<?xml version="1.0" encoding="utf-8"?>
<!-- Generator: Adobe Illustrator 15.0.2, SVG Export Plug-In . SVG Version: 6.00 Build 0)  -->
<!DOCTYPE svg PUBLIC "-//W3C//DTD SVG 1.1//EN" "http://www.w3.org/Graphics/SVG/1.1/DTD/svg11.dtd">
<svg version="1.1" id="Layer_1" xmlns="http://www.w3.org/2000/svg" xmlns:xlink="http://www.w3.org/1999/xlink" x="0px" y="0px"
	 width="63px" height="18px" viewBox="-0.5 1.5 63 18" enable-background="new -0.5 1.5 63 18" xml:space="preserve">
<g id="Green">
	
		<linearGradient id="SVGID_1_" gradientUnits="userSpaceOnUse" x1="121.501" y1="-66.2495" x2="121.501" y2="-48.25" gradientTransform="matrix(1 0 0 -1 -76 -47)">
		<stop  offset="0" style="stop-color:#4F0400"/>
		<stop  offset="0.1" style="stop-color:#730600"/>
		<stop  offset="0.96" style="stop-color:#E30C00"/>
		<stop  offset="1" style="stop-color:#FF8871"/>
	</linearGradient>
	<path fill="url(#SVGID_1_)" d="M28.5,19.25h31c1.657,0,3-1.343,3-3v-12c0-1.657-1.343-3-3-3h-31V19.25z"/>
	
		<linearGradient id="SVGID_2_" gradientUnits="userSpaceOnUse" x1="926" y1="2975.625" x2="926" y2="2957.7461" gradientTransform="matrix(1 0 0 1 -912 -2956.5)">
		<stop  offset="0" style="stop-color:#2E2E2E"/>
		<stop  offset="0.1" style="stop-color:#3F3F3F"/>
		<stop  offset="0.96" style="stop-color:#5A5A5A"/>
		<stop  offset="1" style="stop-color:#AAAAAA"/>
	</linearGradient>
	<path fill="url(#SVGID_2_)" d="M28.5,19.25h-26c-1.657,0-3-1.343-3-3v-12c0-1.657,1.343-3,3-3h26V19.25z"/>
	<g>
		<g opacity="0.3">
			<text transform="matrix(1 0 0 1 33.5 14.5)" font-family="'OpenSans'" font-size="10">1.1.1</text>
		</g>
		<g>
			<text transform="matrix(1 0 0 1 33.5 13.5)" fill="#FFFFFF" font-family="'OpenSans'" font-size="10">1.1.1</text>
		</g>
	</g>
	<g>
		<g opacity="0.3">
			<text transform="matrix(1 0 0 1 4.5 14.5)" font-family="'OpenSans'" font-size="10">gem</text>
		</g>
		<g>
			<text transform="matrix(1 0 0 1 4.5 13.5)" fill="#FFFFFF" font-family="'OpenSans'" font-size="10">gem</text>
		</g>
	</g>
</g>
</svg>
