<?xml version="1.0" standalone="no"?>
<!DOCTYPE svg PUBLIC "-//W3C//DTD SVG 20010904//EN"
 "http://www.w3.org/TR/2001/REC-SVG-20010904/DTD/svg10.dtd">
<svg version="1.0" xmlns="http://www.w3.org/2000/svg"
 width="558.000000pt" height="558.000000pt" viewBox="0 0 558.000000 558.000000"
 preserveAspectRatio="xMidYMid meet">
<metadata>
Created by potrace 1.14, written by Peter Selinger 2001-2017
</metadata>
<g transform="translate(0.000000,558.000000) scale(0.100000,-0.100000)"
fill="#000000" stroke="none">
<path d="M940 5370 c-375 -45 -685 -331 -756 -698 -21 -110 -21 -3654 0 -3764
31 -161 109 -308 229 -435 114 -120 255 -202 422 -245 76 -20 110 -22 640 -25
308 -2 1156 0 1885 5 1487 10 1365 3 1537 87 226 111 380 296 460 552 l28 88
0 1855 0 1855 -28 88 c-80 256 -236 443 -460 552 -175 84 -80 78 -1282 86
-1419 9 -2595 8 -2675 -1z m3640 -111 c149 -18 318 -91 431 -185 106 -88 203
-255 244 -421 l25 -98 0 -1766 0 -1766 -26 -104 c-28 -115 -86 -234 -156 -325
-83 -107 -249 -210 -414 -256 -79 -22 -82 -23 -981 -26 l-903 -3 0 2481 0
2480 848 0 c535 0 879 -4 932 -11z"/>
</g>
</svg>
