<svg fill="#555" width="198" height="58" role="img" viewBox="0 0 198 58" xmlns="http://www.w3.org/2000/svg"><title>Shields.io</title><path d="m23.906 33.641 2.859-.25c.108 2.099 1.511 4.139 3.578 4.722 2.438.895 5.357.799 7.559-.658 1.49-1.129 1.861-3.674.324-4.925-1.557-1.322-3.685-1.504-5.576-2.057-2.343-.565-4.912-1.133-6.611-2.979-1.805-2.088-1.627-5.485.292-7.443 2.041-2.113 5.222-2.55 8.02-2.274 2.46.244 5.058 1.343 6.252 3.635.426.908 1.095 2.241.656 3.108-.888.173-1.81.148-2.715.245-.077-2.084-1.727-4.073-3.863-4.234-1.902-.317-4.02-.252-5.691.802-1.398.989-1.849 3.363-.381 4.494 1.281 1.01 2.962 1.199 4.482 1.642 2.66.627 5.602 1.118 7.596 3.158 2 2.188 1.893 5.84-.088 8.01-2.01 2.32-5.304 2.972-8.237 2.713-2.585-.147-5.319-1.024-6.916-3.184-.987-1.288-1.517-2.905-1.542-4.523M45.953 41V18.094h2.813v8.219c1.391-1.721 3.69-2.523 5.86-2.236 1.975.154 4.03 1.371 4.513 3.402.504 1.973.278 4.02.33 6.04v7.484h-2.813c-.009-3.675.018-7.351-.014-11.03-.026-1.342-.627-2.835-2-3.282-2.187-.802-5.077.393-5.609 2.773-.417 1.764-.216 3.586-.264 5.381v6.153h-2.813m17.825-19.67v-3.234h2.813v3.234zm0 19.672V24.406h2.813V41zm18.469-5.344 2.906.359c-.702 3.464-4.348 5.767-7.781 5.386-3.235-.066-6.43-2.328-7.06-5.598-.843-3.307-.404-7.285 2.101-9.784 3.082-3 8.699-2.618 11.235.892 1.374 1.85 1.676 4.267 1.578 6.51H72.854c-.142 2.889 2.267 6 5.346 5.658 1.881-.162 3.613-1.566 4.045-3.423m-9.234-4.547h9.266c.129-2.774-2.616-5.422-5.419-4.713-2.174.427-3.912 2.474-3.846 4.713M88.64 41V18.094h2.813V41zm17.95 0v-2.094c-1.412 2.442-4.776 3.067-7.233 1.949-2.378-1.02-3.971-3.403-4.345-5.924-.507-2.761-.123-5.768 1.389-8.167 1.863-2.705 5.968-3.642 8.711-1.741.422.228 1.028 1.144 1.294 1.018-.006-2.649 0-5.298-.003-7.948h2.797v22.906h-2.61m-8.89-8.281c-.075 2.246.637 4.861 2.79 5.952 2 1.023 4.682-.047 5.488-2.134.897-1.996.746-4.278.388-6.382-.425-1.95-2.046-3.804-4.158-3.805-1.903-.065-3.633 1.363-4.099 3.181-.327 1.028-.394 2.116-.408 3.188m14.819 3.332 2.781-.438c.126 1.69 1.513 3.244 3.239 3.365 1.398.212 3.01.12 4.12-.851.807-.749 1.1-2.243.159-3.01-.908-.723-2.115-.812-3.182-1.172-1.797-.485-3.713-.848-5.243-1.97-1.83-1.551-1.868-4.679-.099-6.293 1.577-1.507 3.918-1.784 6-1.594 1.685.176 3.54.749 4.535 2.217.464.715.708 1.549.844 2.384l-2.75.375c-.121-1.569-1.653-2.762-3.19-2.695-1.246-.082-2.702.012-3.608.982-.624.724-.543 1.971.314 2.481.998.706 2.269.757 3.389 1.173 1.754.512 3.647.848 5.141 1.965 1.686 1.476 1.728 4.244.396 5.966-1.298 1.788-3.597 2.417-5.709 2.448-1.466-.007-2.984-.214-4.299-.893-1.599-.909-2.585-2.655-2.84-4.444M14 0C6.313 0 0 6.313 0 14v30c0 7.687 6.313 14 14 14h170c7.687 0 14-6.313 14-14V14c0-7.687-6.313-14-14-14zm0 8h120c3.324 0 6 2.676 6 6v30c0 3.324-2.676 6-6 6H14c-3.324 0-6-2.676-6-6V14c0-3.324 2.676-6 6-6m155.457 9.658c3.952.038 7.93 2.057 9.62 5.733 2.265 4.706 1.89 10.92-1.766 14.834-4.554 4.948-13.81 3.975-17.08-1.955-1.112-1.946-1.68-4.188-1.68-6.426-.277-4.765 2.334-9.977 7.049-11.551a11.1 11.1 0 0 1 3.857-.635m-18.348.436h3.032V41h-3.032zm18.774 2.191c-3.184-.104-6.474 1.682-7.533 4.809-.54 1.539-.643 3.18-.676 4.797h.002c-.377 4.273 2.892 8.844 7.375 8.95 3.79.222 7.556-2.651 7.996-6.495.794-3.731.138-8.294-3.108-10.698-1.183-.879-2.609-1.316-4.056-1.363"/></svg>
