<?xml version="1.0" encoding="UTF-8"?>
<!DOCTYPE svg PUBLIC "-//W3C//DTD SVG 1.0//EN" "http://www.w3.org/TR/2001/REC-SVG-20010904/DTD/svg10.dtd">
<!-- Creator: CorelDRAW X7 -->
<svg xmlns="http://www.w3.org/2000/svg" xml:space="preserve" width="125px" height="125px" version="1.0" style="shape-rendering:geometricPrecision; text-rendering:geometricPrecision; image-rendering:optimizeQuality; fill-rule:evenodd; clip-rule:evenodd"
viewBox="0 0 125 125"
 xmlns:xlink="http://www.w3.org/1999/xlink">
 <defs>
  <style type="text/css">
   <![CDATA[
    .fil0 {fill:#CCCCCC}
   ]]>
  </style>
 </defs>
 <g id="Layer_x0020_1">
  <metadata id="CorelCorpID_0Corel-Layer"/>
  <path class="fil0" d="M63 0c34,0 62,28 62,63 0,34 -28,62 -62,62 -35,0 -63,-28 -63,-62 0,-35 28,-63 63,-63zm17 20c2,2 3,4 4,8l2 -1c0,-1 1,-1 1,0l0 0c0,0 0,1 0,1l-2 1c1,4 1,8 1,13l2 -1c0,0 1,1 1,1l0 0c0,1 -1,1 -1,1l-2 0c0,3 -1,5 -1,8 -1,6 -2,13 -3,19 1,-1 3,-2 5,-4l-2 -2c0,0 0,-1 0,-1l0 0c1,0 2,0 2,0l1 2c2,-1 3,-2 5,-3 1,-1 2,-2 3,-2l-1 -2c-1,-1 0,-1 0,-2l0 0c0,0 1,0 1,1l1 2c3,-2 6,-3 8,-3 0,0 0,0 0,0l1 -2c1,0 1,-1 2,0l0 0c0,0 0,1 0,1l-1 2c0,0 1,0 1,0 2,1 4,2 5,5l1 -1c0,0 1,0 1,1l0 0c1,0 0,1 0,1l-1 0c1,3 2,5 1,8 0,0 0,0 0,0l1 0c1,0 1,1 1,1l0 0c0,1 0,1 -1,1l-2 0c-2,2 -4,3 -7,5l1 2c0,0 0,1 0,1l0 0c-1,0 -1,0 -2,0l-1 -2c0,0 -2,1 -3,1 -1,1 -3,1 -5,2l0 2c1,0 0,1 0,1l0 0c-1,0 -1,0 -1,-1l-1 -2c-3,1 -7,2 -10,3 0,0 0,0 0,0l0 3c0,0 0,1 -1,1l0 0c0,0 -1,-1 -1,-1l0 -3c-2,1 -4,1 -5,1 -2,7 -4,14 -6,18 -3,6 -5,9 -8,9 -2,0 -5,-3 -7,-9 -3,-7 -7,-19 -10,-31 -1,0 -3,0 -5,-1l0 3c0,0 -1,1 -1,1l0 0c-1,0 -1,-1 -1,-1l0 -3c0,0 0,0 0,0 -3,-1 -7,-2 -10,-2l-1 1c0,1 0,1 -1,1l0 0c0,0 -1,-1 0,-1l0 -2c-2,-1 -4,-1 -5,-2 -1,0 -3,-1 -3,-1l-1 2c-1,0 -1,0 -2,0l0 0c0,0 0,-1 0,-1l1 -2c-3,-1 -5,-3 -7,-5l-2 0c-1,0 -1,0 -1,-1l0 0c0,0 0,0 1,-1l1 0c0,0 0,0 0,0 -1,-2 0,-5 1,-7l-1 -1c0,0 -1,-1 0,-1l0 0c0,-1 1,-1 1,-1l1 1c1,-2 3,-4 5,-5 0,0 1,0 1,0l-1 -2c0,0 0,-1 0,-1l0 0c1,0 1,0 2,0l1 2c0,0 0,0 0,0 2,1 5,1 8,3l1 -2c0,-1 1,-1 1,-1l0 0c0,1 1,1 0,2l-1 2c1,0 2,1 3,2 2,1 3,2 5,3l1 -2c0,0 1,0 2,0l0 0c0,0 0,1 0,1l-2 2c2,2 5,4 7,6 -1,-3 -1,-6 -2,-8 0,-3 0,-5 0,-8l-2 0c0,0 -1,0 -1,-1l0 0c0,0 1,-1 1,-1l2 0c0,-5 0,-9 1,-12l-2 -1c0,0 0,-1 0,-1l0 0c0,-1 1,-1 1,0l1 0c1,-3 3,-5 5,-7 1,-1 2,-2 3,-2l-1 -2c0,0 0,-1 0,-1l0 0c1,0 1,0 2,0l1 2c3,-1 6,-2 9,-2l0 -2c0,0 1,-1 1,-1l0 0c1,0 1,1 1,1l0 2c4,0 7,1 10,2l1 -2c1,0 1,0 2,0l0 0c0,0 0,1 0,1l-1 2c1,1 2,1 3,2zm-22 16l0 0c1,0 1,1 1,1l0 3c0,0 0,1 -1,1l0 0c0,0 -1,-1 -1,-1l0 -3c0,0 1,-1 1,-1zm-3 16l0 0c1,0 1,1 1,1l0 3c0,0 0,1 -1,1l0 0c0,0 -1,-1 -1,-1l0 -3c0,0 1,-1 1,-1zm16 -16l0 0c0,0 1,1 1,1l0 3c0,0 -1,1 -1,1l0 0c-1,0 -1,-1 -1,-1l0 -3c0,0 0,-1 1,-1zm-7 48l0 0c1,0 1,1 1,1l0 3c0,0 0,1 -1,1l0 0c0,0 -1,-1 -1,-1l0 -3c0,0 1,-1 1,-1zm7 -16l0 0c0,0 1,0 1,1l0 2c0,1 -1,1 -1,1l0 0c-1,0 -1,0 -1,-1l0 -2c0,-1 0,-1 1,-1zm-13 0l0 0c1,0 1,0 1,1l0 2c0,1 0,1 -1,1l0 0c0,0 -1,0 -1,-1l0 -2c0,-1 1,-1 1,-1zm15 -16l0 0c1,0 1,1 1,1l0 3c0,0 0,1 -1,1l0 0c0,0 0,-1 0,-1l0 -3c0,0 0,-1 0,-1zm-54 7l0 0c0,-1 0,-1 1,-1l2 1c1,0 1,1 1,1l0 0c0,1 -1,1 -1,1l-3 -1c0,0 0,-1 0,-1zm87 13l0 0c0,0 -1,0 -1,0l-3 1c0,0 0,0 0,1l0 0c0,0 0,1 1,0l3 0c0,-1 0,-1 0,-2zm-12 1l0 0c0,0 -1,0 -1,0l-3 1c0,0 0,1 0,1l0 0c0,1 1,1 1,1l3 -1c0,-1 0,-1 0,-2zm8 -8l0 0c0,-1 -1,-1 -1,-1l-2 1c-1,1 -1,1 -1,2l0 0c1,0 1,0 2,0l2 -1c0,0 1,-1 0,-1zm-71 -5l0 0c0,-1 1,-1 1,-1l2 1c1,1 1,1 1,2l0 0c0,0 -1,0 -1,0l-3 -1c0,0 0,-1 0,-1zm-8 -9l0 0c0,-1 0,-1 1,0l2 1c1,0 1,1 1,1l0 0c-1,1 -1,1 -2,0l-2 -1c-1,0 -1,-1 0,-1z"/>
 </g>
</svg>
