<?xml version="1.0" encoding="UTF-8"?>
<!DOCTYPE svg PUBLIC "-//W3C//DTD SVG 1.0//EN" "http://www.w3.org/TR/2001/REC-SVG-20010904/DTD/svg10.dtd">
<!-- Creator: CorelDRAW X7 -->
<svg xmlns="http://www.w3.org/2000/svg" xml:space="preserve" width="125px" height="125px" version="1.0" style="shape-rendering:geometricPrecision; text-rendering:geometricPrecision; image-rendering:optimizeQuality; fill-rule:evenodd; clip-rule:evenodd"
viewBox="0 0 125 125"
 xmlns:xlink="http://www.w3.org/1999/xlink">
 <defs>
  <style type="text/css">
   <![CDATA[
    .fil0 {fill:#CCCCCC}
   ]]>
  </style>
 </defs>
 <g id="Layer_x0020_1">
  <metadata id="CorelCorpID_0Corel-Layer"/>
  <path class="fil0" d="M63 0c34,0 62,28 62,63 0,34 -28,62 -62,62 -35,0 -63,-28 -63,-62 0,-35 28,-63 63,-63zm-7 42c-1,-2 -3,-5 -4,-3 -1,1 -1,3 -1,5 1,0 2,0 3,0 1,-1 2,-1 2,-2zm-30 21c-2,-1 -5,-4 -3,-5 1,-1 3,0 5,0 1,1 1,2 0,3 0,1 -1,2 -2,2zm44 -21c2,-2 4,-5 5,-3 1,1 0,3 0,5 -1,0 -2,0 -3,0 -1,-1 -1,-1 -2,-2zm-14 17c-1,-2 -3,-5 -4,-3 -1,1 -1,3 -1,5 1,0 2,1 3,0 1,0 2,-1 2,-2zm14 0c2,-2 4,-5 5,-3 1,1 0,3 0,5 -1,0 -2,1 -3,0 -1,0 -1,-1 -2,-2zm-14 19c-1,-2 -3,-5 -4,-3 -1,1 -1,3 -1,5 1,1 2,1 3,0 1,0 2,-1 2,-2zm14 0c2,-2 4,-5 5,-3 1,1 0,3 0,5 -1,1 -2,1 -3,0 -1,0 -1,-1 -2,-2zm-10 19c0,-3 1,-7 3,-5 1,0 2,3 2,5 -1,0 -1,0 -2,0 -2,0 -2,0 -3,0zm39 -34c2,-1 5,-4 3,-5 -1,-1 -3,0 -5,0 -1,1 -1,2 0,3 0,1 1,2 2,2zm-36 51c-11,0 -17,-15 -21,-32 -9,0 -26,-14 -31,-18 0,-1 -1,-1 -1,-1 -2,1 -5,2 -5,0 0,-1 1,-3 3,-4 0,0 0,0 0,0 -1,-2 -1,-5 -1,-7 0,0 0,0 0,0 -2,-1 -5,-4 -3,-5 1,0 3,0 5,1 1,-1 1,-2 2,-2 1,-1 2,-2 3,-3 0,-2 0,-5 2,-5 1,1 2,2 3,4 3,-1 7,1 10,4 2,1 5,6 9,10 -1,-6 -1,-11 -1,-14 0,-2 0,-3 0,-5 -2,-1 -4,-3 -3,-5 1,0 3,0 5,0 1,-4 4,-7 7,-10 -1,-1 -2,-4 0,-4 1,0 2,1 4,2 3,-2 6,-3 10,-3 1,-3 2,-6 3,-5 1,1 2,3 2,5 4,0 8,1 11,3 1,-1 3,-2 5,-2 1,1 0,3 -1,5 3,3 5,6 6,9 2,0 4,0 5,0 1,2 -1,4 -3,5 0,2 0,3 0,5 0,4 0,10 -1,17 4,-6 8,-11 11,-13 2,-3 5,-4 8,-4 1,-2 2,-3 3,-4 2,0 2,2 2,5 2,0 3,1 5,3 0,0 1,1 1,1 2,0 3,0 4,0 1,1 0,3 -2,4 1,3 0,6 -1,9 1,1 2,2 2,3 0,2 -2,1 -4,0l0 1c-5,5 -24,20 -33,17 -4,17 -10,33 -20,33z"/>
 </g>
</svg>
