<svg xmlns="http://www.w3.org/2000/svg" width="268" height="80" viewBox="0 0 268 80">
  <path fill="#430098" fill-rule="evenodd" d="M64.8,0 C68.776,0 72,3.224 72,7.2 L72,7.2 L72,72.8 C72,76.776 68.776,80 64.8,80 L64.8,80 L7.2,80 C3.224,80 0,76.776 0,72.8 L0,72.8 L0,7.2 C0,3.224 3.224,0 7.2,0 L7.2,0 Z M64.8,4 L7.2,4 C5.436,4 4,5.435 4,7.2 L4,7.2 L4,72.8 C4,74.564 5.436,76 7.2,76 L7.2,76 L64.8,76 C66.565,76 68,74.564 68,72.8 L68,72.8 L68,7.2 C68,5.435 66.565,4 64.8,4 L64.8,4 Z M19,52 L28,60 L19,68 L19,52 Z M27,12 L27,34.711 C30.994,33.411 36.577,32 42,32 C46.945,32 49.905,33.944 51.517,35.575 C54.814625,38.91 54.995191,43.1202378 55.0003112,43.9159307 L55.0002258,68 L47,68 L47,44.11 C46.961,42.243 46.062,40 42,40 C34.230209,40 25.5570898,43.7328438 24.7166549,44.1028638 L24.651,44.132 L19,46.692 L19,12 L27,12 Z M191.995,25 C198.5525,25 205.37,29.165 205.37,39.15 C205.37,49.135 198.5525,53.3 191.995,53.3 C185.3975,53.2975 178.5825,49.135 178.5825,39.15 C178.5825,29.1675 185.3975,25 191.995,25 Z M251.99,25.5175 L251.99,41.805 C251.99,45.5625 253.205,47.2575 256.155,47.2575 C259.1025,47.2575 260.28,45.5625 260.28,41.805 L260.28,25.5175 L267.5,25.5175 L267.5,41.84 C267.5,49.0625 264.0375,53.1875 256.0775,53.1875 C248.1175,53.1875 244.62,49.0625 244.62,41.84 L244.62,25.5175 L251.99,25.5175 Z M220.94,25.5175 L220.94,35.3925 L228.4575,25.5175 L237.005,25.5175 L227.83,36.2775 L237.815,52.785 L229.4875,52.785 L223.04,41.8775 L220.94,44.31 L220.94,52.785 L213.57,52.785 L213.57,25.5175 L220.94,25.5175 Z M140.25,25.5175 L140.25,31.635 L128.165,31.635 L128.165,36.0575 L136.7875,36.0575 L136.7875,41.805 L128.165,41.805 L128.165,46.8525 L140.8775,46.8525 L140.8775,52.785 L120.7975,52.785 L120.7975,25.5175 L140.25,25.5175 Z M159.6175,25.5175 C166.6175,25.5175 170.8925,27.84 170.8925,34.3975 C170.8925,38.67 169.0875,41.1425 165.5125,42.355 L171.2975,52.7825 L163.4875,52.7825 L158.2175,43.315 L156.19,43.315 L156.19,52.7825 L148.9675,52.7825 L148.9675,25.5175 L159.6175,25.5175 Z M94.87,25.5175 L94.87,35.65 L103.935,35.65 L103.935,25.5175 L111.305,25.5175 L111.305,52.7825 L103.935,52.7825 L103.935,41.765 L94.87,41.765 L94.87,52.7825 L87.5,52.7825 L87.5,25.5175 L94.87,25.5175 Z M191.9925,31.0825 C188.1225,31.0825 185.95,34.14 185.95,39.15 C185.95,44.1625 188.125,47.405 191.9925,47.405 C195.825,47.4025 197.9975,44.1625 197.9975,39.15 C197.9975,34.14 195.8225,31.0825 191.9925,31.0825 Z M159.36,31.485 L156.1925,31.485 L156.1925,37.7125 L159.36,37.7125 C162.3825,37.7125 163.7075,36.865 163.7075,34.58 C163.7075,32.295 162.38,31.485 159.36,31.485 Z M55,12 C54.46,16.544 52.618,20.9 49,25 L49,25 L41,25 C44.144,20.875 46.118,16.534 47,12 L47,12 Z"/>
</svg>
