<svg xmlns="http://www.w3.org/2000/svg" width="276" height="63"><g fill="none" fill-rule="evenodd"><path d="M.184 4.530182v44.288h6.528v-32.32l21.568 32.32h6.08v-44.288h-6.528v32.64l-21.12-32.64zm56.704 9.6c-8.384 0-14.336 6.144-14.336 17.728 0 11.648 5.888 17.792 14.336 17.792 8.32 0 14.272-6.144 14.272-17.792 0-11.584-6.016-17.728-14.272-17.728zm0 5.632c4.992 0 8.512 4.16 8.512 12.16 0 7.936-3.52 12.096-8.512 12.096-5.12 0-8.512-4.16-8.512-12.096 0-8 3.456-12.16 8.512-12.16zm44.352-16.192v15.296c-2.24-2.752-5.504-4.736-9.92-4.736-9.344 0-12.8 9.024-12.8 17.792 0 8.768 3.456 17.728 12.8 17.728 4.672 0 8.064-2.24 10.304-5.184v4.352h5.696v-47.296zm-8.384 40.448c-6.464 0-8.576-5.76-8.576-12.096s2.112-12.224 8.512-12.224c4.032 0 6.656 2.368 8.448 5.504v13.376c-1.792 3.264-4.416 5.44-8.384 5.44zm51.456-10.048c.064-.704.128-1.408.128-2.24 0-11.328-6.016-17.6-14.336-17.6s-14.272 6.272-14.272 17.6c0 11.904 6.592 17.92 14.656 17.92 6.08 0 9.856-3.392 11.712-5.952l-4.032-3.52c-1.536 2.24-4.096 3.968-7.424 3.968-4.48 0-8.512-3.136-9.216-10.176zm-14.144-14.336c4.544 0 7.872 3.328 8.576 9.792h-17.216c.64-6.272 3.968-9.792 8.64-9.792z" fill="#f60"/><circle r="5" cy="5.818182" cx="197" fill="#f60"/><path d="M153.27148 4.5292969V48.818359h6.5293V32.306641h11.90234c9.02401 0 14.97657-4.672672 14.97657-13.888672 0-9.1520004-5.95256-13.8886721-14.97657-13.8886721h-18.43164zm6.5293 5.9531251h11.9668c5.248 0 8.76758 2.624 8.76758 8 0 5.44-3.51958 8.064453-8.76758 8.064453h-11.9668V10.482422zM200.184 48.818182v-33.856h-6.08v33.856zM209.912 14.962182v33.856h6.08v-22.976c1.856-4.48 4.864-5.952 8.448-5.952 4.48 0 7.424 2.24 7.424 8.128v20.8h6.08v-21.44c0-9.472-4.736-13.248-11.584-13.248-4.608 0-8.192 1.728-10.688 4.992v-4.16zM259.12891 14.130859c-9.408 0-12.86524 8.510672-12.86524 16.638672s3.45724 16.640625 12.86524 16.640625c4.608 0 7.99828-1.984328 10.23828-4.736328v1.216797c0 7.296-4.03191 10.622828-13.50391 12.798828l.70508 5.441406c12.928-2.496 18.49609-7.489343 18.49609-19.777343V14.962891h-5.69726v3.966797c-2.24-2.752-5.63028-4.798829-10.23828-4.798829zm1.53515 5.503907c4.224 0 6.91113 2.239906 8.70313 5.503906v11.390625c-1.792 3.2-4.47958 5.568359-8.76758 5.568359-6.464 0-8.57617-5.439672-8.57617-11.263672 0-5.76 2.11262-11.199218 8.64062-11.199218z" fill="#111"/></g></svg>