<svg xmlns="http://www.w3.org/2000/svg" viewBox="0 0 717.11 249.68"><path d="M444.45421 148.31906L391.7068 80.229964h-13.1246V171.5213h13.30244v-69.95051l54.22942 69.95051h11.64261V80.229964h-13.30246zm-132.78737-16.91853h47.23435V119.5445H311.6194V92.062268h53.35208V80.206251h-66.92721v91.291329h67.57928v-11.85602H311.6194zm-55.53359-11.59519c-18.45983-4.41043-23.51047-7.93168-23.51047-16.40873 0-7.658976 6.76978-12.816344 16.85924-12.816344 8.40592 0 16.68141 2.97586 25.25332 9.093565l7.18474-10.125039c-9.48481-7.267737-19.74026-10.670414-32.16537-10.670414-18.08043 0-30.69523 10.670414-30.69523 25.988392 0 16.40873 10.67041 22.08776 30.23285 26.83015 17.20307 3.97176 22.44344 7.70644 22.44344 16.00563 0 8.29922-7.11363 13.49215-18.19901 13.49215-10.75339 0-19.92994-3.55681-29.64002-11.64261l-8.05024 9.57967a56.695472 56.695472 0 0037.23975 13.75296c19.55057 0 32.17724-10.51627 32.17724-26.79458-.0239-13.81225-8.19251-21.19856-29.17766-26.2848zm443.29646-39.56352L671.9356 123.291l-27.26884-43.04918h-15.92261l36.1727 55.17791v36.12528h13.70555v-36.54023l36.16085-54.76296zM468.53378 92.59579h29.91274v78.93735h13.7174V92.59579h29.91275V80.229964h-73.5073zm136.97258 43.29819c13.80039-3.80579 21.34083-13.48031 21.34083-27.26884 0-17.523209-12.85193-28.454456-33.52884-28.454456h-40.45271v91.291326h13.57512v-32.79374h23.0244l23.16665 32.86487h15.8515l-25.0162-35.07008zm-39.12487-8.91576V92.3231h25.609c13.36173 0 21.03256 6.295546 21.03256 17.26237 0 10.5637-8.20436 17.39275-20.89029 17.39275zM105.77525 55.45089a16.302024 16.302024 0 00-28.229161 0L54.308296 95.702065l5.928009 3.402672a113.98374 113.98374 0 0156.707315 91.765573h-16.31387a97.693576 97.693576 0 00-48.609665-77.70434l-5.928008-3.3908-21.649086 37.64284 5.928007 3.40269a54.952636 54.952636 0 0126.628613 40.04961H19.736152a2.6913158 2.6913158 0 01-2.371203-4.04289l10.38587-17.98558a37.785126 37.785126 0 00-11.856017-6.76979l-10.2791668 17.95a16.302024 16.302024 0 0014.1205168 24.44711h51.277271v-6.79349a67.768991 67.768991 0 00-28.146182-55.00006l8.156939-14.13238a84.094727 84.094727 0 0136.231981 69.07316v6.80533h43.452299v-6.79347A127.59446 127.59446 0 0072.803683 90.864811l16.491714-28.608568a2.6913158 2.6913158 0 014.65942 0L165.8734 186.82742a2.6913158 2.6913158 0 01-2.37122 4.04289h-16.82367c.21341 4.54085.23711 9.08172 0 13.61069h16.88295a16.302024 16.302024 0 0014.12053-24.4471z" fill="#221f20"/></svg>