<?xml version="1.0" encoding="utf-8"?>
<!-- Generator: Adobe Illustrator 19.1.0, SVG Export Plug-In . SVG Version: 6.00 Build 0)  -->
<svg version="1.1" id="Layer_1" xmlns="http://www.w3.org/2000/svg" xmlns:xlink="http://www.w3.org/1999/xlink" width="40" height="40" x="0px" y="0px"
	 viewBox="0 0 40 40" style="enable-background:new 0 0 40 40;" xml:space="preserve">
<style type="text/css">
	.st0{fill-rule:evenodd;clip-rule:evenodd;fill:#09A9ED;}
</style>
<path class="st0" d="M20,0c11,0,20,9,20,20c0,11-9,20-20,20C9,40,0,31,0,20C0,9,9,0,20,0L20,0z M24.9,23.9c2.2-2.8,1.9-6.8-0.9-8.9
	c-2.7-2.1-6.7-1.6-9,1.2c-2.2,2.8-1.9,6.8,0.9,8.9C18.7,27.2,22.7,26.7,24.9,23.9L24.9,23.9z M14.2,36.9c1.2,0.5,3.8,1,5.1,1
	l8.7-12.6c2.8-4.2,2.1-9.9-1.8-13c-3.5-2.8-8.4-2.7-11.9,0L2.2,21.6c0.3,3.2,1.2,4.8,1.2,4.9l6.9-7.5c-0.5,3.3,0.7,6.7,3.5,8.8
	c2.4,1.9,5.3,2.4,8.1,1.8L14.2,36.9z"/>
</svg>
