<svg xmlns="http://www.w3.org/2000/svg" data-name="Layer 2" viewBox="0 0 43.57 43.37"><g data-name="Layer 1"><path d="M21.78 32.68v10.69L10.89 32.48V21.79l10.89 10.89Z" style="fill:#00701a"/><path d="m21.78 32.68 10.9-10.89v10.69l-10.9 10.89V32.68Z" style="fill:#004300"/><path d="M10.89 21.79v10.69L0 21.58V10.89l10.89 10.9Zm32.68-10.9v10.69l-10.89 10.9V21.79l10.89-10.9ZM21.78 32.68 10.89 21.79l10.89-10.9 10.9 10.9-10.9 10.89Z" style="fill:#43a047"/><path d="M10.89 21.79 0 10.89 10.89 0l10.89 10.89-10.89 10.9Zm21.79 0-10.9-10.9L32.68 0l10.89 10.89-10.89 10.9Z" style="fill:#76d275"/></g></svg>