<svg xmlns="http://www.w3.org/2000/svg" viewBox="0 0 85.323601 85.333336" height="85.333" width="85.324"><defs><clipPath id="a"><path d="M0 64h63.993V0H0z"/></clipPath></defs><g clip-path="url(#a)" transform="matrix(1.33333 0 0 -1.33333 0 85.333)"><path d="M63.04 24.26C58.767 7.115 41.403-3.317 24.258.957 7.12 5.233-3.312 22.597.963 39.737c4.272 17.146 21.635 27.58 38.774 23.306C56.882 58.77 67.313 41.403 63.04 24.26" fill="#f7931a"/><path d="M39.173 36.622c-.99-3.966-7.1-1.95-9.083-1.457l1.748 7.01c1.982-.494 8.367-1.416 7.335-5.553M38.088 25.31c-1.086-4.36-8.426-2.003-10.807-1.412l1.93 7.73c2.38-.595 10.01-1.77 8.88-6.318m8.02 11.25c.637 4.257-2.605 6.546-7.04 8.073l1.44 5.768-3.513.877-1.4-5.616c-.92.23-1.87.448-2.81.663l1.41 5.653-3.51.875-1.44-5.765c-.763.174-1.513.346-2.24.527l.003.02-4.843 1.208-.934-3.75s2.605-.597 2.55-.634c1.422-.355 1.68-1.296 1.636-2.042l-1.64-6.57c.1-.026.225-.062.365-.118l-.37.092-2.297-9.205c-.175-.43-.616-1.08-1.61-.833.035-.05-2.552.637-2.552.637l-1.743-4.02 4.57-1.14c.85-.212 1.683-.436 2.502-.645l-1.453-5.837L24.7 13.9l1.44 5.773c.957-.26 1.887-.5 2.797-.725L27.504 13.2l3.51-.875 1.454 5.823c5.987-1.132 10.49-.675 12.383 4.738 1.53 4.36-.073 6.875-3.223 8.516 2.294.53 4.023 2.04 4.484 5.157" fill="#fff"/></g></svg>