<svg viewBox="0 0 24 24" xmlns="http://www.w3.org/2000/svg"><path d="M23.636 14.902c-1.602 6.43-8.114 10.342-14.543 8.74C2.666 22.037-1.246 15.525.357 9.098 1.96 2.669 8.47-1.244 14.897.359c6.43 1.602 10.341 8.115 8.739 14.544" fill="#f7931a"/><path d="M14.686 10.267c-.371 1.487-2.663.731-3.406.546l.655-2.629c.743.186 3.138.531 2.75 2.083m-.406 4.242c-.407 1.635-3.16.75-4.053.53l.724-2.9c.893.224 3.754.664 3.33 2.37m3.008-4.219c.238-1.596-.977-2.455-2.64-3.027l.54-2.163-1.318-.33-.525 2.107a54.292 54.292 0 0 0-1.054-.249l.53-2.12-1.317-.328-.54 2.162c-.286-.065-.567-.13-.84-.198l.001-.007-1.816-.453-.35 1.406s.977.224.956.238c.533.133.63.486.613.766l-.615 2.463c.038.01.085.024.137.045l-.138-.035-.862 3.452c-.065.161-.23.405-.604.312.014.02-.957-.239-.957-.239L5.836 15.6l1.714.427c.318.08.63.164.938.242l-.545 2.19 1.315.328.54-2.164c.36.097.708.187 1.05.271l-.538 2.156 1.316.328.546-2.183c2.245.424 3.933.253 4.643-1.777.574-1.635-.027-2.578-1.208-3.194.86-.198 1.508-.765 1.681-1.934" fill="#fff"/></svg>