<svg xmlns="http://www.w3.org/2000/svg" width="207.583" height="207.583">
  <path d="M103.798 0C46.533 0 0 46.533 0 103.798s46.533 103.785 103.798 103.785 103.785-46.52 103.785-103.785C207.583 46.533 161.063 0 103.798 0zm0 9.732c52.01 0 94.066 42.055 94.066 94.066 0 52.01-42.055 94.066-94.066 94.066-52.01 0-94.066-42.055-94.066-94.066 0-52.01 42.055-94.066 94.066-94.066z" style="text-indent:0;text-align:start;line-height:normal;text-transform:none;block-progression:tb;-inkscape-font-specification:Sans" color="#000" overflow="visible" font-family="Sans"/>
  <path d="M85.223 106.78v17.906h27.793v12.828H85.223v17.994h25.922c8.73 0 15.174-1.99 19.33-5.968 4.218-4.04 6.326-10.185 6.326-18.44 0-8.314-2.107-14.43-6.324-18.35-4.157-3.98-10.6-5.97-19.33-5.97H85.222m0-54.695V92.17h23.963c7.898 0 13.777-1.632 17.638-4.898 3.92-3.326 5.88-8.374 5.88-15.144 0-6.71-1.96-11.73-5.88-15.055-3.86-3.325-9.74-4.988-17.638-4.988H85.223M69.01 37.297h41.334c12.352 0 21.854 2.85 28.506 8.552 6.71 5.7 10.066 13.807 10.066 24.318 0 8.136-1.722 14.61-5.167 19.42-3.386 4.81-8.404 7.81-15.056 8.997 8.018 1.9 14.224 5.88 18.618 11.937 4.395 5.998 6.592 13.51 6.592 22.538 0 11.877-3.652 21.052-10.957 27.526-7.245 6.473-17.578 9.71-31 9.71H69.01v-32.782H53.688v-12.828H69.01v-87.39" style="text-align:start;line-height:125%;-inkscape-font-specification:DejaVu Sans Semi-Condensed" font-weight="normal" font-stretch="semi-condensed" font-family="DejaVu Sans" font-size="202.678" letter-spacing="0" word-spacing="0"/>
</svg>
