<svg id="Layer_1" xmlns="http://www.w3.org/2000/svg" viewBox="-391.8 393.6 14 15.4"><style>.st0{fill:none}.st1{fill:#FFF}</style><path class="st0" d="M-1295 274H1v1296h-1296z"/><path class="st1" d="M-377.8 400.7c-.1-.6-.2-1.2-.4-1.8-.5-1.6-1.6-3.3-2.8-4.5-.1 0-.3-.2-.4-.1-.2.1.2.9.2 1.1.3.9.5 1.8.3 2.8-.3 1.2-1.2 2.1-2.5 2.2-.7.1-1.4 0-2.1.1-1 .1-2.1.5-2.8 1.3-.1.1-.1.2-.2.3-.3 0-.5-.1-.6-.1h-.1c-.8-.4-1.3-1.4-1.7-2.2-.2-.4-.3-.7-.4-1.1 0-.2 0-.4-.1-.5v-.4c-.1-.2-.3 0-.3.2 0 .3-.1.6-.1.8 0 .5.2 1 .3 1.4.3.7.6 1.3 1.1 1.8l.6.6c.2.2.4.3.6.5.2.3.2.6.2.9 0 .8-.1 1.5.2 2.3.2.7.4 1.4.8 1.9.2.3.5.6.7.8.2.1.5.2.3-.4-.4-1.2-.5-2.4.2-3.5.6-.9 1.6-1.7 2.8-1.6 1.7.2 2.9 1.8 2.8 3.5 0 .5 0 .9-.2 1.3-.1.2-.1.4-.1.6.1.3.4.2.6 0 .4-.6.9-1.1 1.2-1.7 1.5-2.1 2.2-4.3 1.9-6.5z"/><path class="st1" d="M-387.5 396c0 .1.1.2.1.3v.1c.1.3.4.4.6.6.1.1.4.2.6.2.2.1.7 0 .9 0 .5 0 1-.2 1.4 0-2.3 2.7-.1 3.3 1.6 2 1.9-1.5.1-5 .1-5s0-.3-.8-.4c-.1 0-.1-.1-.2-.1-.6-.3-1.3.2-1.8.7-.2.1-.3.3-.5.4-.2.2-.5.3-.7.4-.3.1-.6.3-.9.3h-.2c-.1 0-.2 0-.2.1 0 0-.1.1-.1.2-.1 0 0 .1.1.2z"/></svg>