<svg xmlns="http://www.w3.org/2000/svg" width="16" height="16" viewBox="2 2 16 16">
<path fill="rgba(255,255,255,0.6)" d="M 2.62308 8.25385C 1.84615 8.25385 0.946154 8.53846 0 9.4C 0.0923077 9.72308 0.2 10.0308 0.330769 10.3385C 0.423077 10.3 0.515385 10.2846 0.615385 10.2846C 1.19231 10.2846 1.83846 10.8769 2.43846 10.9385C 2.84615 10.9769 3.93077 11.3923 5.26923 11.3923C 6.12308 11.3923 7.06923 11.2231 8.00769 10.6846L 7.41538 10.6077C 6.63846 10.4308 5.18462 9.36154 5.10769 9.29231C 5.1 9.28462 4.09231 8.25385 2.62308 8.25385ZM 7.40769 0C 6.8 0 5.90769 0.253846 5.90769 0.476923L 5.90769 1.8C 6.41538 1.7 6.95385 1.63077 7.42308 1.63077C 7.87692 1.63077 8.43077 1.7 8.93846 1.79231L 8.93846 0.484615C 8.93846 0.253846 8.01538 0 7.40769 0Z" transform="translate(2.65384 2.49229)"/>
<path fill="rgb(255,255,255)" d="M 0 7.97692L 0.0153847 8.00769L 0 7.97692ZM 10.3231 2.38462C 10.3231 2.17692 10.3231 0.746154 10.3231 0.746154C 10.3231 0.515385 8.36923 0 7.09231 0C 5.81538 0 3.92308 0.523077 3.92308 0.746154L 3.92308 2.36923C 5.42308 1.3 7.06154 0.823077 7.06154 0.823077C 7.06923 0.815385 8.81538 1.29231 10.3231 2.38462ZM 11.1154 5.61539C 10.6308 5.70769 10.0615 6.40769 9.33077 7.10769C 9.62308 6.06923 10.1462 4.90769 11.1 3.90769C 10.8462 3.67692 10.5846 3.46154 10.3231 3.26923L 10.3231 3.26154C 9.36923 2.55385 8.26154 1.94615 7.10769 1.61538C 6.63077 1.73846 6.16154 1.96154 5.72308 2.16923C 4.77692 2.62308 3.88462 3.19231 3.1 3.9C 3.94615 4.76154 4.45385 5.84615 4.76154 6.85385L 4.78462 6.92308L 5.02308 7.13846C 5.62308 7.64615 6.29231 8.06154 7.06923 8.23846L 7.06923 8.21539L 6.76154 5.74615L 6.68461 4.08462L 7.1 2.17692L 7.48462 4.08462L 7.39231 5.75385L 7.11538 8.23077L 7.11538 8.25385L 7.67692 8.32308C 6.76923 8.73846 5.35385 8.96923 3.88462 8.26154C 3.29231 7.97692 2.71538 7.70769 2.05385 7.63846C 1.35385 7.56923 0.653846 7.70769 0 7.96923L 0 7.97692L 0.0153847 8.00769C 1.26923 10.8692 4.20769 12.7308 7.33077 12.6385C 10.3923 12.5462 13.1769 10.5692 14.2923 7.72308C 14.3538 7.56923 14.4077 7.40769 14.4615 7.25385C 13.4077 6.46923 11.7538 5.49231 11.1154 5.61539Z" transform="translate(2.98462 4.86153)"/>
</svg>