<svg xmlns="http://www.w3.org/2000/svg" viewBox="2 2 16 16"><path fill="rgba(255,255,255,0.6)" d="M5.277 10.746c-.777 0-1.677.285-2.623 1.146.092.323.2.631.33.939a.72.72 0 0 1 .285-.054c.577 0 1.223.592 1.823.654.408.038 1.493.454 2.831.454.854 0 1.8-.17 2.739-.708l-.593-.077c-.777-.177-2.23-1.246-2.307-1.315-.008-.008-1.016-1.039-2.485-1.039zm4.785-8.254c-.608 0-1.5.254-1.5.477v1.323a8.152 8.152 0 0 1 1.515-.169 9 9 0 0 1 1.515.162V2.977c0-.23-.923-.485-1.53-.485z"/><path fill="#FFF" d="M2.985 12.838L3 12.87l-.015-.03zm10.323-5.592V5.608c0-.231-1.954-.746-3.231-.746s-3.17.523-3.17.746V7.23a11.756 11.756 0 0 1 3.14-1.546c.007-.008 1.753.469 3.26 1.561zm.792 3.23c-.485.093-1.054.793-1.785 1.493.293-1.038.816-2.2 1.77-3.2a9.746 9.746 0 0 0-.777-.638v-.008c-.954-.708-2.062-1.315-3.216-1.646-.477.123-.946.346-1.384.554a11 11 0 0 0-2.623 1.73c.846.862 1.353 1.947 1.661 2.954l.023.07.239.215c.6.508 1.269.923 2.046 1.1v-.023l-.308-2.47-.077-1.66.416-1.909.384 1.908-.092 1.67-.277 2.476v.023l.562.07a4.463 4.463 0 0 1-3.793-.062c-.592-.285-1.169-.554-1.83-.623-.7-.07-1.4.07-2.054.33v.008L3 12.87c1.254 2.862 4.192 4.723 7.315 4.631 3.062-.092 5.847-2.07 6.962-4.915.061-.154.115-.316.17-.47-1.055-.784-2.709-1.761-3.347-1.638z"/></svg>