<svg fill="none" viewBox="0 0 54 54" xmlns="http://www.w3.org/2000/svg"><path clip-rule="evenodd" d="m30 15v-3h-5c-.5523 0-1-.4477-1-1v-7c0-.55228.4477-1 1-1h7c.5523 0 1 .44772 1 1v11h15c1.6569 0 3 1.3431 3 3v12h2c.5523 0 1 .4477 1 1v10c0 .5523-.4477 1-1 1h-2v6c0 1.6569-1.3431 3-3 3h-42c-1.65685 0-3-1.3431-3-3v-6h-2c-.552284 0-1-.4477-1-1v-10c0-.5523.447716-1 1-1h2v-12c0-1.6569 1.34315-3 3-3zm6.8544 23.6432 6.2888-6.2888c.4725-.4725.4725-1.2387 0-1.7112l-1.2888-1.2888c-.4725-.4725-1.2387-.4725-1.7112 0l-4.1444 4.1444-1.6444-1.6444c-.4725-.4725-1.2387-.4725-1.7112 0l-1.2888 1.2888c-.4725.4725-.4725 1.2387 0 1.7112l3.7888 3.7888c.4725.4725 1.2387.4725 1.7112 0zm-13.7112-6.2888-6.2888 6.2888c-.4725.4725-1.2387.4725-1.7112 0l-3.7888-3.7888c-.4725-.4725-.4725-1.2387 0-1.7112l1.2888-1.2888c.4725-.4725 1.2387-.4725 1.7112 0l1.6444 1.6444 4.1444-4.1444c.4725-.4725 1.2387-.4725 1.7112 0l1.2888 1.2888c.4725.4725.4725 1.2387 0 1.7112z" fill="#fff" fill-rule="evenodd"/></svg>
