<svg xmlns="http://www.w3.org/2000/svg" viewBox="0 0 54 54" fill="#fff"><path d="M25 3a1 1 0 0 0-1 1v7a1 1 0 0 0 1 1h5v3H6a3 3 0 0 0-3 3v12H1a1 1 0 0 0-1 1v10a1 1 0 0 0 1 1h2v6a3 3 0 0 0 3 3h42a3 3 0 0 0 3-3v-6h2a1 1 0 0 0 1-1V31a1 1 0 0 0-1-1h-2V18a3 3 0 0 0-3-3H33V4a1 1 0 0 0-1-1h-7zm-3.982 26a1.21 1.21 0 0 1 .837.355l1.29 1.29a1.21 1.21 0 0 1 0 1.709 1.21 1.21 0 0 1 0 .001l-6.291 6.29a1.21 1.21 0 0 1-1.71 0l-3.79-3.791a1.21 1.21 0 0 1 0-1.71l1.29-1.29a1.21 1.21 0 0 1 1.71 0L16 33.5l4.145-4.145a1.21 1.21 0 0 1 .873-.355zm19.962 0a1.21 1.21 0 0 1 .874.354l1.29 1.29a1.21 1.21 0 0 1 0 1.71l-6.29 6.289v.002a1.21 1.21 0 0 1-1.711 0l-3.79-3.79a1.21 1.21 0 0 1 0-1.71l1.29-1.29a1.21 1.21 0 0 1 1.71 0l1.645 1.645 4.147-4.146A1.21 1.21 0 0 1 40.98 29z"/></svg>