<svg xmlns="http://www.w3.org/2000/svg" viewBox="0 0 564 434">
  <path fill="#fff" d="M131.55 66.49c25.88-13.89 54.63-23.4 84.16-24.29l3.93 4.78c-26.12 7.65-51.6 17.73-75.1 31.52-9.72 5.99-19.6 11.97-28.02 19.72 21.2-10.59 42.87-20.67 65.88-26.71 12.4-3.5 24.94-6.72 37.77-8.19 30.73-4.32 62-6.23 92.92-2.77a337.9 337.9 0 0 1 65.04 14.03 356.27 356.27 0 0 1 53.75 23.01c-4.59-4.65-10.04-8.31-15.44-11.92-24.81-16.55-52.52-28.34-80.94-37.15 2.56-2.38 4.24-7.08 8.46-6.34 37.3 2.38 73.16 16.98 103.47 38.51 2.17 1.41 4.63 2.76 5.56 5.35 18.8 37.72 32.74 77.8 42.31 118.82 7.92 34.48 12.48 69.77 12.99 105.16.08 1.77.08 3.68-1.17 5.11-20.11 28.1-51.89 46.31-85.27 53.74a177.3 177.3 0 0 1-34.04 4.18 1565.1 1565.1 0 0 1-25.95-32.06c11.95-3.12 23.26-8.19 34.09-14.05 14.18-8.31 27.53-18.81 36.91-32.46-13.44 8.62-27.49 16.36-42.46 22.02a358.89 358.89 0 0 1-29.15 10.67c-16.93 5.4-34.53 8.32-52.14 10.4-20.32 2.2-40.86 1.55-61.14-.76-21.07-2.26-41.7-7.58-61.8-14.18-16.58-6.03-33.39-11.98-48.36-21.49-3.83-2.42-7.65-4.84-11.6-7.06 5.92 9.14 14.24 16.4 22.64 23.19 13.73 10.45 29.53 18.01 46.02 22.97a1326.66 1326.66 0 0 1-22.66 28.03c-1.8 1.87-2.97 5.4-6.18 4.69a180.06 180.06 0 0 1-46.74-8.11c-20.82-7.2-40.66-18.14-56.27-33.85-5.44-5.39-10.78-11.16-14.5-17.9-.39-58.73 11.91-117.03 31.63-172.18 7.06-19.44 15.02-38.63 24.74-56.89 8.08-6.89 17.42-12.3 26.66-17.54m68.64 122.85c-13.96 1.57-26.14 11.41-31.62 24.18-8.85 19.11-2.8 44.21 14.77 56.23 8.88 6.13 20.47 8.34 30.91 5.4 11.47-2.81 20.89-11.53 25.96-22.02 8.53-17.3 5.12-39.91-8.9-53.36-8.23-7.68-19.86-12.01-31.12-10.43m141.32.34c-19.5 3.64-33.5 22.92-33.25 42.37-.24 15.34 7.4 30.94 20.7 38.97 8.82 5.62 20.13 6.82 30.09 3.83 11.07-3.08 20.1-11.68 24.97-21.93 8.85-18.01 4.39-41.87-11.09-54.85a38.21 38.21 0 0 0-31.42-8.39z"/>
</svg>