<svg viewBox="0 0 24 24" xmlns="http://www.w3.org/2000/svg" fill="#7289DA"><path d="M4.334 4.636c1.351-.725 2.852-1.222 4.393-1.268l.205.25c-1.363.399-2.693.925-3.92 1.645-.507.312-1.023.624-1.462 1.029 1.106-.553 2.237-1.079 3.438-1.394.648-.183 1.302-.351 1.972-.428 1.604-.225 3.236-.325 4.85-.144a17.637 17.637 0 0 1 3.395.732 18.596 18.596 0 0 1 2.805 1.201c-.24-.243-.524-.434-.806-.622-1.295-.864-2.741-1.48-4.224-1.94.133-.123.22-.369.441-.33 1.947.124 3.819.886 5.4 2.01.114.074.243.144.291.28a28.333 28.333 0 0 1 2.208 6.201c.414 1.8.652 3.642.678 5.489.005.092.005.192-.06.267-1.05 1.466-2.709 2.417-4.451 2.805a9.254 9.254 0 0 1-1.777.218 81.691 81.691 0 0 1-1.355-1.674c.624-.162 1.215-.427 1.78-.733.74-.434 1.437-.982 1.926-1.694-.701.45-1.434.854-2.216 1.15a18.733 18.733 0 0 1-1.521.556c-.884.282-1.803.434-2.722.543-1.06.115-2.133.08-3.191-.04-1.1-.118-2.177-.395-3.226-.74-.865-.315-1.743-.625-2.524-1.122-.2-.126-.4-.252-.605-.368.309.477.743.856 1.181 1.21a7.55 7.55 0 0 0 2.402 1.2 69.246 69.246 0 0 1-1.182 1.462c-.094.098-.155.282-.323.245a9.398 9.398 0 0 1-2.44-.423c-1.086-.376-2.122-.947-2.937-1.767-.284-.281-.562-.582-.757-.934-.02-3.066.622-6.109 1.651-8.987.369-1.015.784-2.017 1.292-2.97.421-.36.909-.642 1.391-.915m3.583 6.412c-.729.082-1.364.596-1.65 1.262-.462.998-.147 2.308.77 2.935.464.32 1.069.435 1.614.282.599-.147 1.09-.602 1.355-1.15.445-.902.267-2.083-.465-2.785-.43-.4-1.036-.626-1.624-.544m7.376.018c-1.018.19-1.748 1.196-1.735 2.211-.013.8.386 1.615 1.08 2.034.46.294 1.05.356 1.57.2.579-.16 1.05-.61 1.304-1.144.462-.94.23-2.186-.579-2.863a1.994 1.994 0 0 0-1.64-.438z"/></svg>