<svg xmlns="http://www.w3.org/2000/svg" height="189" width="221.667"><defs><clipPath id="a"><path d="M0 141.75h166.25V0H0z"/></clipPath><clipPath id="b"><path d="M0 141.75h166.25V0H0z"/></clipPath></defs><g clip-path="url(#a)" transform="matrix(1.33333 0 0 -1.33333 0 189)"><path d="M94.268 76.204h15.743v14.312H94.268zm-18.605 0h15.742v14.312H75.663zm-18.605 0h15.743v14.312H57.058zm-18.605 0h15.743v14.312H38.453zm-18.605 0h15.743v14.312H19.848zm18.605 17.173h15.743v14.311H38.453zm18.605 0h15.743v14.311H57.058zm18.605 0h15.742v14.311H75.663zm0 17.174h15.742v14.312H75.663zm81.658-26.003c-3.438 2.3-11.338 3.143-17.417 1.997-.783 5.726-3.974 10.691-9.779 15.179l-3.337 2.225-2.227-3.34c-2.851-4.299-4.275-10.256-3.808-15.967.21-2.01.87-5.603 2.937-8.764-2.066-1.11-6.15-2.64-11.533-2.537H8.622l-.203-1.192c-.973-5.74-.952-23.653 10.678-37.42 8.84-10.464 22.094-15.772 39.392-15.772 37.5 0 65.244 17.263 78.237 48.641 5.109-.102 16.109-.03 21.76 10.766.147.248.486.896 1.473 2.942l.541 1.122z" fill="#ffffff" fill-rule="evenodd"/></g><g clip-path="url(#b)" transform="matrix(1.33333 0 0 -1.33333 0 189)"><path d="M104.137 24.241h.216c.252 0 .456.084.456.288 0 .18-.132.3-.42.3-.12 0-.204-.012-.252-.024zm-.012-1.115h-.456v1.967c.18.036.432.06.756.06.372 0 .539-.06.684-.144a.547.547 0 0 0 .19-.432c0-.216-.167-.384-.406-.455v-.025c.19-.072.3-.215.359-.479.06-.3.096-.42.145-.492h-.492c-.06.072-.096.252-.157.48-.035.216-.155.312-.407.312h-.216zm-1.212 1.032c0-.876.649-1.57 1.536-1.57.864 0 1.499.694 1.499 1.557 0 .876-.635 1.583-1.511 1.583-.875 0-1.524-.707-1.524-1.57m3.538 0c0-1.116-.875-1.99-2.014-1.99-1.127 0-2.027.874-2.027 1.99 0 1.091.9 1.967 2.027 1.967 1.139 0 2.014-.876 2.014-1.967" fill="#ffffff"/></g></svg>
