<svg xmlns="http://www.w3.org/2000/svg" width="256" height="240" viewBox="0 0 256 240" preserveAspectRatio="xMidYMid"><path fill="#FFF" d="M70.4 153H31.3c5.1 17.8 14.8 33.7 28.8 47.8 22.5 22.5 49.4 33.7 81 33.7 6.3 0 12.4-.5 18.3-1.4 23.8-3.6 44.6-14.3 62.4-32.3 14.2-14.1 23.9-30 29.1-47.8H70.4zM48.8 99.9H28.4c-.8 4.5-1.3 9.1-1.5 13.8h228.4c-.2-4.7-.8-9.3-1.5-13.8M26.9 126.5c.2 4.7.7 9.3 1.5 13.8H253.8c.7-4.5 1.3-9.1 1.5-13.8M250.9 87.1c-5.2-17.8-14.9-33.8-29.1-48-17.8-17.7-38.5-28.4-62.2-32-6-.9-12.1-1.4-18.5-1.4-31.6 0-58.5 11.2-81 33.4-14.1 14.2-23.7 30.2-28.8 48"/><path fill="#FFF" d="M20.1 120.1C20.1 59.8 65.4 9.6 124.4.8c-1.5 0-3-.1-4.5-.1C53.8.7.2 54.1.2 120.1c0 65.9 53.6 119.4 119.7 119.4 1.5 0 3-.1 4.5-.1-59-8.8-104.3-59-104.3-119.3z"/></svg>