<svg role="img" viewBox="0 0 24 24" xmlns="http://www.w3.org/2000/svg"><title>GitHubIssues</title><path d="M 12 14.25 C 13.242188 14.25 14.25 13.242188 14.25 12 C 14.25 10.757812 13.242188 9.75 12 9.75 C 10.757812 9.75 9.75 10.757812 9.75 12 C 9.75 13.242188 10.757812 14.25 12 14.25 Z M 12 14.25 "/><path d="M 12 0 C 18.628906 0 24 5.371094 24 12 C 24 18.628906 18.628906 24 12 24 C 5.371094 24 0 18.628906 0 12 C 0 5.371094 5.371094 0 12 0 Z M 2.25 12 C 2.25 17.386719 6.613281 21.75 12 21.75 C 17.386719 21.75 21.75 17.386719 21.75 12 C 21.75 6.613281 17.386719 2.25 12 2.25 C 6.613281 2.25 2.25 6.613281 2.25 12 Z M 2.25 12 "/></svg>
