<svg role="img" viewBox="0 0 24 24" xmlns="http://www.w3.org/2000/svg"><title>GitHubMilestones</title><path d="M 11.625 0 C 12.246094 0 12.75 0.503906 12.75 1.125 L 12.75 4.5 L 18.199219 4.5 C 18.820312 4.5 19.421875 4.71875 19.894531 5.121094 L 23 7.746094 C 23.589844 8.246094 23.929688 8.976562 23.929688 9.75 C 23.929688 10.523438 23.589844 11.253906 23 11.753906 L 19.894531 14.378906 C 19.421875 14.78125 18.820312 15 18.199219 15 L 12.75 15 L 12.75 22.875 C 12.75 23.496094 12.246094 24 11.625 24 C 11.003906 24 10.5 23.496094 10.5 22.875 L 10.5 15 L 4.125 15 C 2.675781 15 1.5 13.824219 1.5 12.375 L 1.5 7.125 C 1.5 5.675781 2.675781 4.5 4.125 4.5 L 10.5 4.5 L 10.5 1.125 C 10.5 0.503906 11.003906 0 11.625 0 Z M 18.199219 12.75 C 18.289062 12.75 18.375 12.71875 18.441406 12.660156 L 21.546875 10.035156 C 21.632812 9.964844 21.679688 9.859375 21.679688 9.75 C 21.679688 9.640625 21.632812 9.535156 21.546875 9.464844 L 18.441406 6.839844 C 18.375 6.78125 18.289062 6.75 18.199219 6.75 L 4.125 6.75 C 3.917969 6.75 3.75 6.917969 3.75 7.125 L 3.75 12.375 C 3.75 12.582031 3.917969 12.75 4.125 12.75 Z M 18.199219 12.75 "/></svg>
