<svg role="img" viewBox="0 0 24 24" xmlns="http://www.w3.org/2000/svg"><title>GitHubPackages</title><path d="M 13.316406 0.589844 L 21.191406 5.15625 C 22.003906 5.625 22.5 6.492188 22.5 7.425781 L 22.5 16.574219 C 22.5 17.507812 22 18.375 21.191406 18.84375 L 13.316406 23.410156 C 12.503906 23.882812 11.496094 23.882812 10.683594 23.410156 L 2.808594 18.84375 C 2 18.375 1.5 17.507812 1.5 16.574219 L 1.5 7.425781 C 1.5 6.492188 1.996094 5.625 2.808594 5.15625 L 10.683594 0.589844 C 11.496094 0.117188 12.503906 0.117188 13.316406 0.589844 Z M 11.8125 2.535156 L 4.867188 6.5625 L 12 10.699219 L 19.132812 6.5625 L 12.1875 2.535156 C 12.070312 2.46875 11.929688 2.46875 11.8125 2.535156 Z M 3.75 8.515625 L 3.75 16.574219 C 3.75 16.707031 3.820312 16.828125 3.9375 16.898438 L 10.875 20.921875 L 10.875 12.648438 Z M 13.125 20.921875 L 20.0625 16.898438 C 20.179688 16.832031 20.25 16.707031 20.25 16.574219 L 20.25 8.515625 L 13.125 12.648438 Z M 13.125 20.921875 "/></svg>
