<svg role="img" viewBox="0 0 24 24" xmlns="http://www.w3.org/2000/svg"><title>GitHubUnplannedIssue</title><path d="M 12 0 C 18.628906 0 24 5.371094 24 12 C 24 18.628906 18.628906 24 12 24 C 5.371094 24 0 18.628906 0 12 C 0 5.371094 5.371094 0 12 0 Z M 2.25 12 C 2.25 17.386719 6.613281 21.75 12 21.75 C 17.386719 21.75 21.75 17.386719 21.75 12 C 21.75 6.613281 17.386719 2.25 12 2.25 C 6.613281 2.25 2.25 6.613281 2.25 12 Z M 16.921875 8.671875 L 8.671875 16.921875 C 8.390625 17.222656 7.96875 17.347656 7.570312 17.242188 C 7.167969 17.140625 6.859375 16.832031 6.757812 16.429688 C 6.65625 16.03125 6.777344 15.609375 7.078125 15.328125 L 15.328125 7.078125 C 15.773438 6.667969 16.464844 6.679688 16.894531 7.105469 C 17.320312 7.535156 17.332031 8.226562 16.921875 8.671875 Z M 16.921875 8.671875 "></path></svg>
