<svg role="img" viewBox="0 0 24 24" xmlns="http://www.w3.org/2000/svg"><title>GitHubStar</title><path d="M 12 0.375 C 12.429688 0.375 12.820312 0.617188 13.007812 1.003906 L 15.832031 6.722656 L 22.148438 7.640625 C 22.570312 7.703125 22.921875 8 23.054688 8.40625 C 23.1875 8.816406 23.078125 9.261719 22.773438 9.5625 L 18.203125 14.015625 L 19.28125 20.304688 C 19.351562 20.726562 19.179688 21.152344 18.832031 21.402344 C 18.488281 21.65625 18.027344 21.6875 17.648438 21.492188 L 12 18.519531 L 6.351562 21.492188 C 5.972656 21.6875 5.511719 21.65625 5.167969 21.40625 C 4.820312 21.152344 4.648438 20.726562 4.71875 20.304688 L 5.800781 14.015625 L 1.226562 9.5625 C 0.917969 9.261719 0.808594 8.816406 0.941406 8.40625 C 1.074219 8 1.425781 7.703125 1.851562 7.640625 L 8.164062 6.722656 L 10.992188 1.003906 C 11.179688 0.617188 11.570312 0.375 12 0.375 Z M 12 4.042969 L 9.921875 8.25 C 9.757812 8.582031 9.441406 8.8125 9.078125 8.863281 L 4.429688 9.539062 L 7.789062 12.816406 C 8.054688 13.074219 8.175781 13.445312 8.113281 13.8125 L 7.324219 18.4375 L 11.476562 16.253906 C 11.804688 16.082031 12.195312 16.082031 12.523438 16.253906 L 16.679688 18.4375 L 15.882812 13.8125 C 15.820312 13.445312 15.941406 13.074219 16.207031 12.816406 L 19.566406 9.542969 L 14.921875 8.867188 C 14.558594 8.8125 14.242188 8.582031 14.078125 8.25 L 12 4.039062 Z M 12 4.042969 "/></svg>
