<svg role="img" viewBox="0 0 24 24" xmlns="http://www.w3.org/2000/svg"><title>GitHubClosedIssue</title><path d="M 16.921875 10.171875 C 17.332031 9.726562 17.320312 9.035156 16.890625 8.609375 C 16.464844 8.179688 15.773438 8.167969 15.328125 8.578125 L 10.875 13.035156 L 8.671875 10.828125 C 8.226562 10.417969 7.535156 10.429688 7.109375 10.859375 C 6.679688 11.285156 6.667969 11.976562 7.078125 12.421875 L 10.078125 15.421875 C 10.519531 15.859375 11.230469 15.859375 11.671875 15.421875 Z M 16.921875 10.171875 "/><path d="M 24 12 C 24 18.628906 18.628906 24 12 24 C 5.371094 24 0 18.628906 0 12 C 0 5.371094 5.371094 0 12 0 C 18.628906 0 24 5.371094 24 12 Z M 21.75 12 C 21.75 6.613281 17.386719 2.25 12 2.25 C 6.613281 2.25 2.25 6.613281 2.25 12 C 2.25 17.386719 6.613281 21.75 12 21.75 C 17.386719 21.75 21.75 17.386719 21.75 12 Z M 21.75 12 "/></svg>
