<svg role="svg" viewBox="0 0 24 24" xmlns="http://www.w3.org/2000/svg"><title>GitHubRepository</title><path d="M 3 3.75 C 3 1.679688 4.679688 0 6.75 0 L 19.875 0 C 20.496094 0 21 0.503906 21 1.125 L 21 19.875 C 21 20.496094 20.496094 21 19.875 21 L 16.125 21 C 15.503906 21 15 20.496094 15 19.875 C 15 19.253906 15.503906 18.75 16.125 18.75 L 18.75 18.75 L 18.75 15.75 L 6.75 15.75 C 6.144531 15.75 5.601562 16.113281 5.367188 16.667969 C 5.132812 17.226562 5.257812 17.867188 5.679688 18.300781 C 6.113281 18.742188 6.105469 19.457031 5.664062 19.890625 C 5.21875 20.328125 4.507812 20.320312 4.070312 19.875 C 3.382812 19.175781 3 18.230469 3 17.25 Z M 18.75 2.25 L 6.75 2.25 C 5.921875 2.25 5.25 2.921875 5.25 3.75 L 5.25 13.8125 C 5.722656 13.605469 6.234375 13.5 6.75 13.5 L 18.75 13.5 Z M 7.5 18.375 C 7.5 18.167969 7.667969 18 7.875 18 L 13.125 18 C 13.332031 18 13.5 18.167969 13.5 18.375 L 13.5 23.25 C 13.5 23.390625 13.417969 23.523438 13.292969 23.585938 C 13.164062 23.648438 13.011719 23.636719 12.898438 23.550781 L 10.726562 21.917969 C 10.59375 21.820312 10.40625 21.820312 10.273438 21.917969 L 8.101562 23.550781 C 7.988281 23.636719 7.835938 23.648438 7.707031 23.585938 C 7.582031 23.523438 7.5 23.390625 7.5 23.25 Z M 7.5 18.375 "/></svg>
