<svg role="img" viewBox="0 0 24 24" xmlns="http://www.w3.org/2000/svg"><title>GitHubForks</title><path d="M 7.5 8.058594 L 7.5 9.375 C 7.5 9.996094 8.003906 10.5 8.625 10.5 L 15.375 10.5 C 15.996094 10.5 16.5 9.996094 16.5 9.375 L 16.5 8.058594 C 14.949219 7.511719 14.019531 5.925781 14.296875 4.304688 C 14.578125 2.683594 15.980469 1.5 17.625 1.5 C 19.269531 1.5 20.671875 2.683594 20.953125 4.304688 C 21.230469 5.925781 20.300781 7.511719 18.75 8.058594 L 18.75 9.375 C 18.75 11.238281 17.238281 12.75 15.375 12.75 L 13.125 12.75 L 13.125 15.941406 C 14.675781 16.488281 15.605469 18.074219 15.328125 19.695312 C 15.050781 21.316406 13.644531 22.503906 12 22.503906 C 10.355469 22.503906 8.949219 21.316406 8.671875 19.695312 C 8.394531 18.074219 9.324219 16.488281 10.875 15.941406 L 10.875 12.75 L 8.625 12.75 C 6.761719 12.75 5.25 11.238281 5.25 9.375 L 5.25 8.058594 C 3.699219 7.511719 2.769531 5.925781 3.046875 4.304688 C 3.328125 2.683594 4.730469 1.5 6.375 1.5 C 8.019531 1.5 9.421875 2.683594 9.703125 4.304688 C 9.980469 5.925781 9.050781 7.511719 7.5 8.058594 Z M 7.5 4.875 C 7.5 4.253906 6.996094 3.75 6.375 3.75 C 5.753906 3.75 5.25 4.253906 5.25 4.875 C 5.25 5.496094 5.753906 6 6.375 6 C 6.996094 6 7.5 5.496094 7.5 4.875 Z M 17.625 6 C 18.246094 6 18.75 5.496094 18.75 4.875 C 18.75 4.253906 18.246094 3.75 17.625 3.75 C 17.003906 3.75 16.5 4.253906 16.5 4.875 C 16.5 5.496094 17.003906 6 17.625 6 Z M 13.125 19.125 C 13.125 18.503906 12.621094 18 12 18 C 11.378906 18 10.875 18.503906 10.875 19.125 C 10.875 19.746094 11.378906 20.25 12 20.25 C 12.621094 20.25 13.125 19.746094 13.125 19.125 Z M 13.125 19.125 "/></svg>
