<svg role="img" viewBox="0 0 24 24" xmlns="http://www.w3.org/2000/svg"><title>GitHubCodeOfConduct</title><path d="M 12.070312 3.363281 C 13.519531 2.296875 15.191406 1.503906 17.058594 1.5 C 18.90625 1.492188 20.679688 2.226562 21.984375 3.53125 C 22.597656 4.144531 23.117188 4.824219 23.476562 5.675781 C 23.832031 6.527344 24 7.484375 23.996094 8.625 C 23.996094 11.914062 21.738281 15.007812 19.375 17.417969 C 17.132812 19.707031 14.554688 21.613281 13.003906 22.765625 L 12.671875 23.007812 C 12.273438 23.304688 11.726562 23.304688 11.328125 23.007812 L 10.996094 22.765625 C 9.445312 21.613281 6.867188 19.707031 4.625 17.417969 C 2.265625 15.011719 0.0117188 11.929688 0.00390625 8.644531 C -0.0546875 6.730469 0.679688 4.882812 2.03125 3.53125 C 4.683594 0.878906 9.335938 0.804688 12.070312 3.359375 Z M 10.34375 4.835938 C 8.46875 3.285156 5.359375 3.386719 3.621094 5.121094 C 2.695312 6.046875 2.199219 7.316406 2.253906 8.625 C 2.253906 10.960938 3.917969 13.484375 6.230469 15.84375 C 8.195312 17.847656 10.441406 19.546875 12 20.707031 C 12.53125 20.316406 13.136719 19.859375 13.785156 19.351562 L 11.796875 17.515625 C 11.339844 17.09375 11.3125 16.382812 11.734375 15.925781 C 12.15625 15.46875 12.867188 15.441406 13.324219 15.863281 L 15.542969 17.910156 C 16.035156 17.488281 16.53125 17.046875 17.019531 16.582031 L 14.984375 14.703125 C 14.527344 14.28125 14.5 13.570312 14.921875 13.113281 C 15.34375 12.65625 16.054688 12.625 16.511719 13.046875 L 18.589844 14.96875 C 19.03125 14.476562 19.4375 13.976562 19.804688 13.476562 L 19.378906 13.050781 L 17.628906 11.296875 C 16.617188 10.292969 14.960938 10.300781 13.917969 11.34375 C 13.515625 11.746094 13.113281 12.148438 12.714844 12.539062 C 11.375 13.863281 9.238281 13.804688 7.9375 12.492188 C 7.417969 11.964844 6.898438 11.445312 6.375 10.921875 C 5.960938 10.503906 5.933594 9.84375 6.3125 9.394531 C 6.554688 9.109375 6.816406 8.792969 7.09375 8.460938 C 8.023438 7.339844 9.128906 6.007812 10.34375 4.835938 Z M 21.011719 11.5 C 21.480469 10.523438 21.746094 9.558594 21.746094 8.625 C 21.746094 7.703125 21.613281 7.054688 21.402344 6.546875 C 21.1875 6.039062 20.867188 5.597656 20.390625 5.121094 C 19.511719 4.238281 18.3125 3.746094 17.066406 3.75 C 15.425781 3.753906 13.816406 4.691406 12.226562 6.152344 C 10.992188 7.285156 9.894531 8.609375 8.882812 9.828125 L 8.695312 10.058594 L 9.535156 10.90625 C 9.96875 11.355469 10.6875 11.371094 11.136719 10.9375 L 12.328125 9.753906 C 14.214844 7.867188 17.296875 7.789062 19.21875 9.703125 C 19.8125 10.296875 20.40625 10.890625 20.976562 11.464844 Z M 21.011719 11.5 "/></svg>
