<svg role="svg" viewBox="0 0 24 24" xmlns="http://www.w3.org/2000/svg"><title>GitHubDraftPullRequest</title><path d="M 4.875 1.5 C 6.519531 1.5 7.925781 2.683594 8.203125 4.304688 C 8.480469 5.925781 7.550781 7.511719 6 8.058594 L 6 15.941406 C 7.550781 16.488281 8.480469 18.074219 8.203125 19.695312 C 7.925781 21.316406 6.519531 22.503906 4.875 22.503906 C 3.230469 22.503906 1.824219 21.316406 1.546875 19.695312 C 1.269531 18.074219 2.199219 16.488281 3.75 15.941406 L 3.75 8.058594 C 2.203125 7.507812 1.273438 5.925781 1.554688 4.304688 C 1.832031 2.6875 3.234375 1.503906 4.875 1.5 Z M 19.125 22.5 C 17.261719 22.5 15.75 20.988281 15.75 19.125 C 15.75 17.261719 17.261719 15.75 19.125 15.75 C 20.988281 15.75 22.5 17.261719 22.5 19.125 C 22.5 20.988281 20.988281 22.5 19.125 22.5 Z M 3.75 4.875 C 3.75 5.496094 4.253906 6 4.875 6 C 5.496094 6 6 5.496094 6 4.875 C 6 4.253906 5.496094 3.75 4.875 3.75 C 4.253906 3.75 3.75 4.253906 3.75 4.875 Z M 4.875 18 C 4.253906 18 3.75 18.503906 3.75 19.125 C 3.75 19.746094 4.253906 20.25 4.875 20.25 C 5.496094 20.25 6 19.746094 6 19.125 C 6 18.503906 5.496094 18 4.875 18 Z M 19.125 18 C 18.503906 18 18 18.503906 18 19.125 C 18 19.746094 18.503906 20.25 19.125 20.25 C 19.746094 20.25 20.25 19.746094 20.25 19.125 C 20.25 18.503906 19.746094 18 19.125 18 Z M 21 11.25 C 21 12.285156 20.160156 13.125 19.125 13.125 C 18.089844 13.125 17.25 12.285156 17.25 11.25 C 17.25 10.214844 18.089844 9.375 19.125 9.375 C 20.160156 9.375 21 10.214844 21 11.25 Z M 21 4.875 C 21 5.910156 20.160156 6.75 19.125 6.75 C 18.089844 6.75 17.25 5.910156 17.25 4.875 C 17.25 3.839844 18.089844 3 19.125 3 C 20.160156 3 21 3.839844 21 4.875 Z M 21 4.875 "/></svg>
