<svg role="img" viewBox="0 0 24 24" xmlns="http://www.w3.org/2000/svg"><title>GitHubClosedPullRequest</title><path d="M 4.875 1.5 C 6.519531 1.5 7.925781 2.683594 8.203125 4.304688 C 8.480469 5.925781 7.550781 7.511719 6 8.058594 L 6 15.941406 C 7.550781 16.488281 8.480469 18.074219 8.203125 19.695312 C 7.925781 21.316406 6.519531 22.503906 4.875 22.503906 C 3.230469 22.503906 1.824219 21.316406 1.546875 19.695312 C 1.269531 18.074219 2.199219 16.488281 3.75 15.941406 L 3.75 8.058594 C 2.203125 7.507812 1.273438 5.925781 1.554688 4.304688 C 1.832031 2.6875 3.234375 1.503906 4.875 1.5 Z M 19.125 9.75 C 19.746094 9.75 20.25 10.253906 20.25 10.875 L 20.25 15.941406 C 21.800781 16.488281 22.730469 18.074219 22.453125 19.695312 C 22.175781 21.316406 20.769531 22.503906 19.125 22.503906 C 17.480469 22.503906 16.074219 21.316406 15.796875 19.695312 C 15.519531 18.074219 16.449219 16.488281 18 15.941406 L 18 10.875 C 18 10.253906 18.503906 9.75 19.125 9.75 Z M 16.078125 1.839844 C 16.519531 1.402344 17.230469 1.402344 17.671875 1.839844 L 19.125 3.296875 L 20.578125 1.839844 C 20.863281 1.546875 21.28125 1.425781 21.675781 1.53125 C 22.070312 1.632812 22.375 1.945312 22.476562 2.339844 C 22.578125 2.730469 22.460938 3.148438 22.171875 3.433594 L 20.714844 4.886719 L 22.171875 6.34375 C 22.582031 6.785156 22.570312 7.476562 22.144531 7.90625 C 21.714844 8.332031 21.023438 8.34375 20.578125 7.933594 L 19.125 6.476562 L 17.671875 7.933594 C 17.390625 8.234375 16.96875 8.359375 16.570312 8.257812 C 16.167969 8.152344 15.859375 7.84375 15.757812 7.441406 C 15.65625 7.042969 15.777344 6.621094 16.078125 6.34375 L 17.535156 4.886719 L 16.078125 3.433594 C 15.640625 2.992188 15.640625 2.28125 16.078125 1.84375 Z M 3.75 4.875 C 3.75 5.496094 4.253906 6 4.875 6 C 5.496094 6 6 5.496094 6 4.875 C 6 4.253906 5.496094 3.75 4.875 3.75 C 4.253906 3.75 3.75 4.253906 3.75 4.875 Z M 4.875 18 C 4.253906 18 3.75 18.503906 3.75 19.125 C 3.75 19.746094 4.253906 20.25 4.875 20.25 C 5.496094 20.25 6 19.746094 6 19.125 C 6 18.503906 5.496094 18 4.875 18 Z M 19.125 18 C 18.503906 18 18 18.503906 18 19.125 C 18 19.746094 18.503906 20.25 19.125 20.25 C 19.746094 20.25 20.25 19.746094 20.25 19.125 C 20.25 18.503906 19.746094 18 19.125 18 Z M 19.125 18 "/></svg>
