<svg role="img" viewBox="0 0 24 24" xmlns="http://www.w3.org/2000/svg"><title>GitHubActivity</title><path d="M 9 3 C 9.460938 3 9.871094 3.28125 10.042969 3.707031 L 15 16.097656 L 16.957031 11.207031 C 17.128906 10.78125 17.539062 10.5 18 10.5 L 22.875 10.5 C 23.496094 10.5 24 11.003906 24 11.625 C 24 12.246094 23.496094 12.75 22.875 12.75 L 18.761719 12.75 L 16.042969 19.542969 C 15.871094 19.96875 15.457031 20.246094 15 20.246094 C 14.542969 20.246094 14.128906 19.96875 13.957031 19.542969 L 9 7.15625 L 7.042969 12.046875 C 6.871094 12.472656 6.460938 12.75 6 12.75 L 1.125 12.75 C 0.503906 12.75 0 12.246094 0 11.625 C 0 11.003906 0.503906 10.5 1.125 10.5 L 5.238281 10.5 L 7.957031 3.707031 C 8.128906 3.28125 8.539062 3 9 3 Z M 9 3 "/></svg>
