<svg role="img" viewBox="0 0 24 24" xmlns="http://www.w3.org/2000/svg"><title>GitHubWatch</title><path d="M 12 3 C 14.972656 3 17.507812 4.488281 19.398438 6.117188 C 21.304688 7.753906 22.679688 9.632812 23.355469 10.652344 C 23.898438 11.46875 23.898438 12.53125 23.355469 13.347656 C 22.679688 14.367188 21.304688 16.246094 19.398438 17.882812 C 17.503906 19.511719 14.972656 21 12 21 C 9.027344 21 6.492188 19.511719 4.601562 17.882812 C 2.695312 16.246094 1.320312 14.363281 0.644531 13.347656 C 0.101562 12.53125 0.101562 11.464844 0.644531 10.648438 C 1.320312 9.632812 2.695312 7.753906 4.601562 6.117188 C 6.496094 4.488281 9.027344 3 12 3 Z M 2.519531 11.898438 C 2.476562 11.960938 2.476562 12.039062 2.519531 12.101562 C 3.136719 13.035156 4.378906 14.726562 6.066406 16.175781 C 7.765625 17.636719 9.789062 18.75 12 18.75 C 14.210938 18.75 16.238281 17.636719 17.933594 16.175781 C 19.617188 14.726562 20.863281 13.035156 21.480469 12.101562 C 21.523438 12.039062 21.523438 11.960938 21.480469 11.898438 C 20.863281 10.964844 19.617188 9.273438 17.933594 7.824219 C 16.234375 6.363281 14.210938 5.25 12 5.25 C 9.789062 5.25 7.761719 6.363281 6.066406 7.824219 C 4.382812 9.273438 3.136719 10.964844 2.519531 11.898438 Z M 12 15 C 10.914062 15.023438 9.898438 14.457031 9.347656 13.519531 C 8.792969 12.582031 8.792969 11.421875 9.34375 10.480469 C 9.894531 9.542969 10.910156 8.976562 12 9 C 13.628906 9.039062 14.933594 10.371094 14.933594 12 C 14.933594 13.628906 13.628906 14.964844 12 15 Z M 12 15 "/></svg>
