<svg role="img" viewBox="0 0 24 24" xmlns="http://www.w3.org/2000/svg"><title>GitHubBranches</title><path d="M 14.25 4.875 C 14.25 3.160156 15.539062 1.714844 17.246094 1.523438 C 18.949219 1.328125 20.527344 2.445312 20.914062 4.117188 C 21.300781 5.789062 20.367188 7.484375 18.75 8.058594 L 18.75 9 C 18.75 11.070312 17.070312 12.75 15 12.75 L 9 12.75 C 8.171875 12.75 7.5 13.421875 7.5 14.25 L 7.5 15.941406 C 9.050781 16.488281 9.980469 18.074219 9.703125 19.695312 C 9.425781 21.316406 8.019531 22.503906 6.375 22.503906 C 4.730469 22.503906 3.324219 21.316406 3.046875 19.695312 C 2.769531 18.074219 3.699219 16.488281 5.25 15.941406 L 5.25 8.058594 C 3.699219 7.511719 2.769531 5.925781 3.046875 4.304688 C 3.328125 2.683594 4.730469 1.5 6.375 1.5 C 8.019531 1.5 9.421875 2.683594 9.703125 4.304688 C 9.980469 5.925781 9.050781 7.511719 7.5 8.058594 L 7.5 10.8125 C 7.972656 10.605469 8.484375 10.5 9 10.5 L 15 10.5 C 15.828125 10.5 16.5 9.828125 16.5 9 L 16.5 8.058594 C 15.152344 7.582031 14.25 6.304688 14.25 4.875 Z M 5.25 4.875 C 5.25 5.496094 5.753906 6 6.375 6 C 6.996094 6 7.5 5.496094 7.5 4.875 C 7.5 4.253906 6.996094 3.75 6.375 3.75 C 5.753906 3.75 5.25 4.253906 5.25 4.875 Z M 17.625 3.75 C 17.003906 3.75 16.5 4.253906 16.5 4.875 C 16.5 5.496094 17.003906 6 17.625 6 C 18.246094 6 18.75 5.496094 18.75 4.875 C 18.75 4.253906 18.246094 3.75 17.625 3.75 Z M 6.375 18 C 5.753906 18 5.25 18.503906 5.25 19.125 C 5.25 19.746094 5.753906 20.25 6.375 20.25 C 6.996094 20.25 7.5 19.746094 7.5 19.125 C 7.5 18.503906 6.996094 18 6.375 18 Z M 6.375 18 "/></svg>
