<svg role="img" viewBox="0 0 24 24" xmlns="http://www.w3.org/2000/svg"><title>GitHubDiscussions</title><path d="M 2.625 1.5 L 15.375 1.5 C 16.824219 1.5 18 2.675781 18 4.125 L 18 12.375 C 18 13.824219 16.824219 15 15.375 15 L 10.589844 15 L 6.730469 18.859375 C 6.105469 19.484375 5.164062 19.667969 4.351562 19.332031 C 3.535156 18.992188 3 18.199219 3 17.316406 L 3 15 L 2.625 15 C 1.175781 15 0 13.824219 0 12.375 L 0 4.125 C 0 2.675781 1.175781 1.5 2.625 1.5 Z M 2.25 4.125 L 2.25 12.375 C 2.25 12.582031 2.417969 12.75 2.625 12.75 L 4.125 12.75 C 4.746094 12.75 5.25 13.253906 5.25 13.875 L 5.25 17.160156 L 9.328125 13.078125 C 9.539062 12.867188 9.828125 12.75 10.125 12.75 L 15.375 12.75 C 15.582031 12.75 15.75 12.582031 15.75 12.375 L 15.75 4.125 C 15.75 3.917969 15.582031 3.75 15.375 3.75 L 2.625 3.75 C 2.417969 3.75 2.25 3.917969 2.25 4.125 Z M 21.75 7.125 C 21.75 6.917969 21.582031 6.75 21.375 6.75 L 20.625 6.75 C 20.003906 6.75 19.5 6.246094 19.5 5.625 C 19.5 5.003906 20.003906 4.5 20.625 4.5 L 21.375 4.5 C 22.824219 4.5 24 5.675781 24 7.125 L 24 15.375 C 24 16.824219 22.824219 18 21.375 18 L 21 18 L 21 20.316406 C 21 21.199219 20.464844 21.992188 19.648438 22.332031 C 18.835938 22.667969 17.894531 22.484375 17.269531 21.859375 L 13.828125 18.421875 C 13.527344 18.140625 13.402344 17.71875 13.507812 17.320312 C 13.609375 16.917969 13.917969 16.609375 14.320312 16.507812 C 14.71875 16.40625 15.140625 16.527344 15.421875 16.828125 L 18.75 20.160156 L 18.75 16.875 C 18.75 16.253906 19.253906 15.75 19.875 15.75 L 21.375 15.75 C 21.582031 15.75 21.75 15.582031 21.75 15.375 Z M 21.75 7.125 "/></svg>
