<svg role="svg" viewBox="0 0 24 24" xmlns="http://www.w3.org/2000/svg"><title>GitHubMergedPullRequest</title><path d="M 8.175781 7.730469 C 9.257812 9.886719 11.460938 11.25 13.875 11.25 L 15.941406 11.25 C 16.488281 9.699219 18.074219 8.769531 19.695312 9.046875 C 21.316406 9.324219 22.503906 10.730469 22.503906 12.375 C 22.503906 14.019531 21.316406 15.425781 19.695312 15.703125 C 18.074219 15.980469 16.488281 15.050781 15.941406 13.5 L 13.875 13.5 C 11.449219 13.503906 9.132812 12.480469 7.5 10.683594 L 7.5 15.941406 C 9.050781 16.488281 9.980469 18.074219 9.703125 19.695312 C 9.421875 21.316406 8.019531 22.5 6.375 22.5 C 4.730469 22.5 3.328125 21.316406 3.046875 19.695312 C 2.769531 18.074219 3.699219 16.488281 5.25 15.941406 L 5.25 8.058594 C 3.765625 7.535156 2.84375 6.054688 3.023438 4.492188 C 3.203125 2.929688 4.4375 1.695312 6 1.523438 C 7.5625 1.347656 9.039062 2.277344 9.558594 3.761719 C 10.082031 5.246094 9.503906 6.890625 8.175781 7.730469 Z M 6.375 20.25 C 6.996094 20.25 7.5 19.746094 7.5 19.125 C 7.5 18.503906 6.996094 18 6.375 18 C 5.753906 18 5.25 18.503906 5.25 19.125 C 5.25 19.746094 5.753906 20.25 6.375 20.25 Z M 19.125 13.5 C 19.746094 13.5 20.25 12.996094 20.25 12.375 C 20.25 11.753906 19.746094 11.25 19.125 11.25 C 18.503906 11.25 18 11.753906 18 12.375 C 18 12.996094 18.503906 13.5 19.125 13.5 Z M 7.5 4.875 C 7.496094 4.253906 6.992188 3.753906 6.375 3.753906 C 5.753906 3.753906 5.25 4.257812 5.25 4.878906 C 5.25 5.5 5.753906 6.003906 6.375 6.003906 C 6.992188 6.003906 7.496094 5.503906 7.5 4.882812 Z M 7.5 4.875 "/></svg>
