<svg role="img" viewBox="0 0 24 24" xmlns="http://www.w3.org/2000/svg"><title>GitHubLicense</title><path d="M 13.125 1.125 L 13.125 3 L 14.601562 3 C 15.058594 3 15.507812 3.121094 15.902344 3.347656 L 17.839844 4.449219 C 17.894531 4.484375 17.957031 4.5 18.023438 4.5 L 21.375 4.5 C 21.996094 4.5 22.5 5.003906 22.5 5.625 C 22.5 6.246094 21.996094 6.75 21.375 6.75 L 20.734375 6.75 L 23.902344 13.789062 C 24.09375 14.214844 24 14.714844 23.671875 15.046875 L 22.875 14.25 L 23.667969 15.046875 L 23.667969 15.050781 L 23.664062 15.050781 L 23.65625 15.0625 L 23.644531 15.070312 L 23.632812 15.085938 L 23.5625 15.144531 C 23.25 15.40625 22.902344 15.632812 22.535156 15.820312 C 21.835938 16.171875 20.820312 16.5 19.5 16.5 C 18.449219 16.511719 17.410156 16.277344 16.464844 15.820312 C 16.097656 15.632812 15.753906 15.40625 15.4375 15.144531 L 15.367188 15.085938 L 15.34375 15.0625 L 15.335938 15.050781 L 15.328125 15.046875 C 15 14.714844 14.90625 14.214844 15.097656 13.789062 L 18.265625 6.75 L 18.023438 6.75 C 17.566406 6.75 17.117188 6.632812 16.722656 6.402344 L 14.785156 5.300781 C 14.730469 5.265625 14.667969 5.25 14.601562 5.25 L 13.125 5.25 L 13.125 19.5 L 16.875 19.5 C 17.496094 19.5 18 20.003906 18 20.625 C 18 21.246094 17.496094 21.75 16.875 21.75 L 7.125 21.75 C 6.503906 21.75 6 21.246094 6 20.625 C 6 20.003906 6.503906 19.5 7.125 19.5 L 10.875 19.5 L 10.875 5.25 L 9.398438 5.25 C 9.332031 5.25 9.269531 5.265625 9.214844 5.300781 L 7.28125 6.40625 C 6.882812 6.628906 6.433594 6.75 5.976562 6.75 L 5.734375 6.75 L 8.902344 13.789062 C 9.09375 14.214844 9 14.714844 8.671875 15.046875 L 7.875 14.25 L 8.667969 15.046875 L 8.667969 15.050781 L 8.664062 15.050781 L 8.65625 15.0625 L 8.632812 15.085938 L 8.5625 15.144531 C 8.25 15.40625 7.902344 15.632812 7.535156 15.820312 C 6.835938 16.171875 5.820312 16.5 4.5 16.5 C 3.449219 16.511719 2.410156 16.277344 1.464844 15.820312 C 1.097656 15.632812 0.753906 15.40625 0.4375 15.144531 L 0.367188 15.085938 L 0.34375 15.0625 L 0.335938 15.050781 L 0.328125 15.046875 C 0 14.714844 -0.09375 14.214844 0.0976562 13.789062 L 3.265625 6.75 L 2.625 6.75 C 2.003906 6.75 1.5 6.246094 1.5 5.625 C 1.5 5.003906 2.003906 4.5 2.625 4.5 L 5.976562 4.5 C 6.042969 4.5 6.105469 4.484375 6.164062 4.449219 L 8.09375 3.34375 C 8.492188 3.121094 8.941406 3 9.398438 3 L 10.875 3 L 10.875 1.125 C 10.875 0.503906 11.378906 0 12 0 C 12.621094 0 13.125 0.503906 13.125 1.125 Z M 17.542969 13.839844 C 17.96875 14.042969 18.621094 14.25 19.5 14.25 C 20.378906 14.25 21.03125 14.042969 21.457031 13.839844 L 19.5 9.492188 Z M 2.542969 13.839844 C 2.96875 14.042969 3.621094 14.25 4.5 14.25 C 5.378906 14.25 6.03125 14.042969 6.457031 13.839844 L 4.5 9.492188 Z M 2.542969 13.839844 "></path></svg>
