<svg role="img" viewBox="0 0 24 24" xmlns="http://www.w3.org/2000/svg"><title>GitHubTags</title><path d="M 1.5 11.664062 L 1.5 4.125 C 1.5 2.675781 2.675781 1.5 4.125 1.5 L 11.664062 1.5 C 12.359375 1.5 13.027344 1.777344 13.519531 2.269531 L 22.894531 11.644531 C 23.917969 12.667969 23.917969 14.332031 22.894531 15.355469 L 15.355469 22.894531 C 14.332031 23.917969 12.667969 23.917969 11.644531 22.894531 L 2.269531 13.519531 C 1.777344 13.027344 1.5 12.359375 1.5 11.664062 Z M 3.75 11.664062 C 3.75 11.761719 3.789062 11.859375 3.859375 11.929688 L 13.234375 21.304688 C 13.304688 21.375 13.398438 21.414062 13.5 21.414062 C 13.601562 21.414062 13.695312 21.375 13.765625 21.304688 L 21.304688 13.765625 C 21.375 13.695312 21.414062 13.601562 21.414062 13.5 C 21.414062 13.398438 21.375 13.304688 21.304688 13.234375 L 11.929688 3.859375 C 11.859375 3.789062 11.761719 3.75 11.664062 3.75 L 4.125 3.75 C 3.917969 3.75 3.75 3.917969 3.75 4.125 Z M 9 7.5 C 9.828125 7.5 10.5 8.171875 10.5 9 C 10.5 9.828125 9.828125 10.5 9 10.5 C 8.171875 10.5 7.5 9.828125 7.5 9 C 7.5 8.171875 8.171875 7.5 9 7.5 Z M 9 7.5 "/></svg>
