<svg role="img" viewBox="0 0 24 24" xmlns="http://www.w3.org/2000/svg"><title>GitHubPullRequests</title><path d="M 2.25 4.875 C 2.25 3.160156 3.539062 1.714844 5.246094 1.523438 C 6.949219 1.328125 8.527344 2.445312 8.914062 4.117188 C 9.300781 5.789062 8.367188 7.484375 6.75 8.058594 L 6.75 15.941406 C 8.300781 16.488281 9.230469 18.074219 8.953125 19.695312 C 8.675781 21.316406 7.269531 22.503906 5.625 22.503906 C 3.980469 22.503906 2.574219 21.316406 2.296875 19.695312 C 2.019531 18.074219 2.949219 16.488281 4.5 15.941406 L 4.5 8.058594 C 3.152344 7.582031 2.25 6.304688 2.25 4.875 Z M 10.765625 4.609375 L 14.359375 1.015625 C 14.464844 0.90625 14.628906 0.875 14.769531 0.933594 C 14.910156 0.992188 15 1.128906 15 1.28125 L 15 3.75 L 16.5 3.75 C 18.570312 3.75 20.25 5.429688 20.25 7.5 L 20.25 15.941406 C 21.800781 16.488281 22.730469 18.074219 22.453125 19.695312 C 22.175781 21.316406 20.769531 22.503906 19.125 22.503906 C 17.480469 22.503906 16.074219 21.316406 15.796875 19.695312 C 15.519531 18.074219 16.449219 16.488281 18 15.941406 L 18 7.5 C 18 6.671875 17.328125 6 16.5 6 L 15 6 L 15 8.46875 C 15 8.621094 14.910156 8.757812 14.769531 8.816406 C 14.628906 8.875 14.464844 8.84375 14.359375 8.734375 L 10.765625 5.140625 C 10.695312 5.070312 10.65625 4.976562 10.65625 4.875 C 10.65625 4.773438 10.695312 4.679688 10.765625 4.609375 Z M 5.625 3.75 C 5.003906 3.75 4.5 4.253906 4.5 4.875 C 4.5 5.496094 5.003906 6 5.625 6 C 6.246094 6 6.75 5.496094 6.75 4.875 C 6.75 4.253906 6.246094 3.75 5.625 3.75 Z M 5.625 18 C 5.003906 18 4.5 18.503906 4.5 19.125 C 4.5 19.746094 5.003906 20.25 5.625 20.25 C 6.246094 20.25 6.75 19.746094 6.75 19.125 C 6.75 18.503906 6.246094 18 5.625 18 Z M 18 19.125 C 18 19.746094 18.503906 20.25 19.125 20.25 C 19.746094 20.25 20.25 19.746094 20.25 19.125 C 20.25 18.503906 19.746094 18 19.125 18 C 18.503906 18 18 18.503906 18 19.125 Z M 18 19.125"></path></svg>
