<svg role="img" viewBox="0 0 24 24" xmlns="http://www.w3.org/2000/svg"><title>GitHubCommit</title><path d="M 17.894531 12.75 C 17.351562 15.578125 14.878906 17.621094 12 17.621094 C 9.121094 17.621094 6.648438 15.578125 6.105469 12.75 L 1.125 12.75 C 0.503906 12.75 0 12.246094 0 11.625 C 0 11.003906 0.503906 10.5 1.125 10.5 L 6.105469 10.5 C 6.648438 7.671875 9.121094 5.628906 12 5.628906 C 14.878906 5.628906 17.351562 7.671875 17.894531 10.5 L 22.875 10.5 C 23.496094 10.5 24 11.003906 24 11.625 C 24 12.246094 23.496094 12.75 22.875 12.75 Z M 15.75 11.625 C 15.75 9.554688 14.070312 7.875 12 7.875 C 9.929688 7.875 8.25 9.554688 8.25 11.625 C 8.25 13.695312 9.929688 15.375 12 15.375 C 14.070312 15.375 15.75 13.695312 15.75 11.625 Z M 15.75 11.625 "/></svg>
