<svg viewBox="0 0 24 24" xmlns="http://www.w3.org/2000/svg"><path d="M23.956 13.587l-1.344-4.133a4549.814 4549.814 0 0 0-2.663-8.189.456.456 0 0 0-.87 0l-2.658 8.189H7.585L4.92 1.265a.456.456 0 0 0-.87 0A4549.814 4549.814 0 0 0 .044 13.587a.908.908 0 0 0 .336 1.02L12 23.054l11.62-8.447a.908.908 0 0 0 .336-1.02" fill="#fc6d26"/><path d="M12 23.054l4.421-13.6H7.58z" fill="#e24329"/><path d="M7.579 9.454H1.388L12 23.054z" fill="#fc6d26"/><path d="M1.388 9.454L.044 13.587a.908.908 0 0 0 .336 1.02L12 23.054z" fill="#fca326"/><path d="M7.579 9.454L4.92 1.265a.456.456 0 0 0-.87 0L1.388 9.454z" fill="#e24329"/><path d="M16.421 9.454h6.191L12 23.054z" fill="#fc6d26"/><path d="M22.612 9.454l1.344 4.133a.908.908 0 0 1-.336 1.02L12 23.054z" fill="#fca326"/><path d="M16.421 9.454l2.658-8.189a.456.456 0 0 1 .87 0l2.663 8.189z" fill="#e24329"/></svg>