<?xml version="1.0" encoding="UTF-8" standalone="no"?>
<!DOCTYPE svg PUBLIC "-//W3C//DTD SVG 1.1//EN" "http://www.w3.org/Graphics/SVG/1.1/DTD/svg11.dtd">
<svg version="1.1" xmlns="http://www.w3.org/2000/svg" xmlns:xlink="http://www.w3.org/1999/xlink" preserveAspectRatio="xMidYMid meet" viewBox="0 0 40 40" width="40" height="40"><defs><path d="M39.93 21.07L37.69 14.18C35.03 5.99 33.55 1.44 33.25 0.53C33.02 -0.18 32.03 -0.18 31.8 0.53C31.51 1.44 30.03 5.99 27.37 14.18L12.64 14.18C9.97 5.99 8.49 1.44 8.2 0.53C7.97 -0.18 6.98 -0.18 6.75 0.53C6.45 1.44 4.97 5.99 2.31 14.18C0.97 18.31 0.22 20.61 0.07 21.07C-0.13 21.7 0.09 22.39 0.63 22.77C1.92 23.71 8.38 28.4 20 36.85C31.62 28.4 38.08 23.71 39.37 22.77C39.91 22.39 40.13 21.7 39.93 21.07" id="c2KPqSBLg7"></path><path d="M20 36.85L27.37 14.18L12.63 14.18L20 36.85L20 36.85L20 36.85Z" id="c5SlcitIUY"></path><path d="M12.63 14.18L2.31 14.18L20 36.85L20 36.85L12.63 14.18Z" id="h29vzwmnx7"></path><path d="M2.31 14.18C0.97 18.31 0.22 20.61 0.07 21.07C-0.13 21.7 0.09 22.39 0.63 22.77C1.92 23.71 8.38 28.4 20 36.85L2.31 14.18L2.31 14.18L2.31 14.18Z" id="b1PW5tkCX8"></path><path d="M12.63 14.18C9.97 5.99 8.49 1.44 8.2 0.53C7.97 -0.18 6.98 -0.18 6.75 0.53C6.45 1.44 4.97 5.99 2.31 14.18L2.31 14.18L12.63 14.18Z" id="i99BwRr99z"></path><path d="M27.37 14.18L37.69 14.18L20 36.85L20 36.85L27.37 14.18Z" id="a3ufkpvjrq"></path><path d="M37.69 14.18C39.03 18.31 39.78 20.61 39.93 21.07C40.13 21.7 39.91 22.39 39.37 22.77C38.08 23.71 31.62 28.4 20 36.85L37.69 14.18L37.69 14.18L37.69 14.18Z" id="a2P3AovSi"></path><path d="M27.37 14.18C30.03 5.99 31.51 1.44 31.8 0.53C32.03 -0.18 33.02 -0.18 33.25 0.53C33.55 1.44 35.03 5.99 37.69 14.18L37.69 14.18L27.37 14.18Z" id="dqlKa717x"></path></defs><g><g><g><use xlink:href="#c2KPqSBLg7" opacity="1" fill="#fc6d26" fill-opacity="1"></use><g><use xlink:href="#c2KPqSBLg7" opacity="1" fill-opacity="0" stroke="#000000" stroke-width="1" stroke-opacity="0"></use></g></g><g><use xlink:href="#c5SlcitIUY" opacity="1" fill="#e24329" fill-opacity="1"></use><g><use xlink:href="#c5SlcitIUY" opacity="1" fill-opacity="0" stroke="#000000" stroke-width="1" stroke-opacity="0"></use></g></g><g><use xlink:href="#h29vzwmnx7" opacity="1" fill="#fc6d26" fill-opacity="1"></use><g><use xlink:href="#h29vzwmnx7" opacity="1" fill-opacity="0" stroke="#000000" stroke-width="1" stroke-opacity="0"></use></g></g><g><use xlink:href="#b1PW5tkCX8" opacity="1" fill="#fca326" fill-opacity="1"></use><g><use xlink:href="#b1PW5tkCX8" opacity="1" fill-opacity="0" stroke="#000000" stroke-width="1" stroke-opacity="0"></use></g></g><g><use xlink:href="#i99BwRr99z" opacity="1" fill="#e24329" fill-opacity="1"></use><g><use xlink:href="#i99BwRr99z" opacity="1" fill-opacity="0" stroke="#000000" stroke-width="1" stroke-opacity="0"></use></g></g><g><use xlink:href="#a3ufkpvjrq" opacity="1" fill="#fc6d26" fill-opacity="1"></use><g><use xlink:href="#a3ufkpvjrq" opacity="1" fill-opacity="0" stroke="#000000" stroke-width="1" stroke-opacity="0"></use></g></g><g><use xlink:href="#a2P3AovSi" opacity="1" fill="#fca326" fill-opacity="1"></use><g><use xlink:href="#a2P3AovSi" opacity="1" fill-opacity="0" stroke="#000000" stroke-width="1" stroke-opacity="0"></use></g></g><g><use xlink:href="#dqlKa717x" opacity="1" fill="#e24329" fill-opacity="1"></use><g><use xlink:href="#dqlKa717x" opacity="1" fill-opacity="0" stroke="#000000" stroke-width="1" stroke-opacity="0"></use></g></g></g></g></svg>