<svg xmlns="http://www.w3.org/2000/svg" width="40" height="40"><path fill="#fc6d26" d="M39.93 21.07l-2.24-6.89A7584.1 7584.1 0 0 0 33.25.53a.76.76 0 0 0-1.45 0l-4.43 13.65H12.64L8.2.53a.76.76 0 0 0-1.45 0A7584.1 7584.1 0 0 0 .07 21.07c-.2.63.02 1.32.56 1.7L20 36.85l19.37-14.08c.54-.38.76-1.07.56-1.7"/><path fill="#e24329" d="M20 36.85l7.37-22.67H12.63L20 36.85z"/><path fill="#fc6d26" d="M12.63 14.18H2.31L20 36.85l-7.37-22.67z"/><path fill="#fca326" d="M2.31 14.18L.07 21.07c-.2.63.02 1.32.56 1.7L20 36.85 2.31 14.18z"/><path fill="#e24329" d="M12.63 14.18L8.2.53a.76.76 0 0 0-1.45 0L2.31 14.18h10.32z"/><path fill="#fc6d26" d="M27.37 14.18h10.32L20 36.85l7.37-22.67z"/><path fill="#fca326" d="M37.69 14.18l2.24 6.89c.2.63-.02 1.32-.56 1.7L20 36.85l17.69-22.67z"/><path fill="#e24329" d="M27.37 14.18L31.8.53a.76.76 0 0 1 1.45 0l4.44 13.65H27.37z"/></svg>
