<svg xmlns="http://www.w3.org/2000/svg" height="32px" viewBox="0 0 241 224.5">
  <defs>
    <style>.l{fill:#fff}</style>
  </defs>
  <path d="M163.5 103.2c-9.7-3.6-24 10.2-31 31.4a83.9 83.9 0 0 0-3.5 35.9l-4.5-1.9c-8.6-26.7-3.8-55.9 11.1-77Z" class="l"/>
  <path
    d="m169.8 148.8-33.2-13.7c6.1-18.5 17.4-29.6 24.7-29.6a7.8 7.8 0 0 1 2.2.4l.6.3c2.6 1.2 10.5 8 5.7 42.6M157.9 66.7a73.4 73.4 0 0 0-25.8 23.4c-14.6 21.2-19.6 49.9-12 76.7a82.2 82.2 0 0 0 3.3 9.5l-44.5-18.4c-16.8-41.2-1.4-90.3 34.5-109.7Z"
    class="l"/>
</svg>
