<svg xmlns="http://www.w3.org/2000/svg" width="722.8" height="702"><path d="M359 10a46.7 46.3 0 0 0-18 4.6L96.8 131.3a46.7 46.3 0 0 0-25.2 31.5L11.2 425a46.7 46.3 0 0 0 6.3 35.6 46.7 46.3 0 0 0 2.7 3.6l169.1 210.3a46.7 46.3 0 0 0 36.5 17.5l271.2-.1a46.7 46.3 0 0 0 36.6-17.4l169-210.3a46.7 46.3 0 0 0 9-39.2l-60.3-262.3a46.7 46.3 0 0 0-25.3-31.4L381.6 14.6A46.7 46.3 0 0 0 359 10z" fill="#326ce5"/><path d="M361.4 99.3c-8 0-14.6 7.3-14.6 16.3V119.7c.2 5.2 1.3 9.2 2 14 1.2 10.1 2.2 18.6 1.6 26.5a16 16 0 0 1-4.7 7.5l-.4 6.2a188.1 188.1 0 0 0-122 58.7l-5.3-3.8c-2.6.4-5.2 1.2-8.7-.8-6.5-4.4-12.5-10.5-19.7-17.8-3.3-3.6-5.7-6.9-9.6-10.3l-3.2-2.6c-3.1-2.4-6.7-3.7-10.2-3.8a14 14 0 0 0-11.7 5.2c-5 6.3-3.4 16 3.6 21.5l.2.2 3 2.4c4.2 3 8 4.7 12.2 7.1 8.7 5.4 16 9.9 21.7 15.3 2.3 2.4 2.7 6.6 3 8.4l4.7 4.2a189.3 189.3 0 0 0-29.9 132l-6.1 1.7c-1.6 2.1-4 5.4-6.3 6.4-7.5 2.3-16 3.2-26.2 4.3-4.8.4-9 .1-14 1.1l-4 1h-.3c-8.6 2-14.2 10-12.4 17.8 1.8 7.8 10.2 12.6 18.9 10.7h.2l.3-.1 3.8-.9c5-1.3 8.6-3.3 13.1-5 9.7-3.5 17.7-6.4 25.5-7.5 3.3-.2 6.7 2 8.4 3l6.4-1.1A190.3 190.3 0 0 0 265 526.5l-2.6 6.4c1 2.4 2 5.8 1.3 8.2a143 143 0 0 1-13.3 23.8c-2.6 4-5.4 7.1-7.8 11.7l-1.9 4c-3.7 8-1 17.3 6.2 20.7 7.3 3.5 16.3-.2 20.2-8.2l1.9-3.8c2-4.7 2.7-8.8 4.2-13.4 3.9-9.7 6-20 11.3-26.3 1.5-1.7 3.8-2.4 6.3-3l3.3-6a189 189 0 0 0 135 .3l3.1 5.6c2.5.8 5.3 1.3 7.5 4.6 4 6.8 6.7 14.8 10 24.6 1.5 4.5 2.2 8.6 4.3 13.4l1.8 3.7c3.9 8 13 11.8 20.2 8.3 7.2-3.5 10-12.8 6.2-20.8l-1.9-4c-2.4-4.5-5.1-7.6-7.8-11.6a136.6 136.6 0 0 1-13-23.2c-1.2-3.8.2-6.2 1.1-8.6-.5-.7-1.7-4.3-2.4-6 40.4-23.8 70.3-62 84.3-106l6.3 1c2.2-1.4 4.2-3.2 8.1-3 7.8 1.2 15.9 4 25.5 7.6 4.5 1.7 8.2 3.7 13.2 5l3.7.8.3.1h.2c8.7 2 17.1-2.8 19-10.6 1.7-7.8-3.8-15.8-12.5-17.8l-4.2-1c-5-1-9.2-.8-14-1.2-10.3-1-18.7-1.9-26.3-4.3-3-1.2-5.2-4.8-6.3-6.3l-5.9-1.7a188.9 188.9 0 0 0-30.4-131.7l5.1-4.6c.3-2.6 0-5.4 2.8-8.3 5.7-5.4 13-9.9 21.7-15.3 4.2-2.4 8-4 12.2-7l3.2-2.7c7-5.6 8.7-15.2 3.6-21.5-5-6.3-14.8-7-21.8-1.3-1 .7-2.4 1.8-3.2 2.6-4 3.3-6.4 6.7-9.7 10.2-7.2 7.3-13.2 13.4-19.7 17.8-2.9 1.7-7 1-8.9 1l-5.6 4A191.7 191.7 0 0 0 377.5 174l-.3-6.5c-2-1.9-4.2-3.4-4.8-7.3-.6-8 .4-16.4 1.7-26.6.6-4.7 1.8-8.7 2-13.9v-4.1c0-9-6.6-16.3-14.7-16.3zm-18.3 113.4l-4.3 76.8-.4.1a12.9 12.9 0 0 1-20.4 9.9h-.2L255 255a150.7 150.7 0 0 1 88.2-42.3zm36.7 0a152 152 0 0 1 87.6 42.3l-62.5 44.3h-.2a13 13 0 0 1-20.5-10h-.1zm-147.7 71l57.5 51.3-.1.3a12.9 12.9 0 0 1-5 22.2l-.1.2-73.6 21.3a150.6 150.6 0 0 1 21.3-95.4zm258.2 0a152.5 152.5 0 0 1 22 95l-74-21.3v-.3a12.9 12.9 0 0 1-5.1-22.2v-.1l57-51.1zM349.6 339h23.6l14.6 18.2-5.3 22.9-21 10.1-21.3-10.2-5.2-22.8zm75.5 62.5c1 0 2 0 3 .2v-.1l76.2 12.9a150.8 150.8 0 0 1-61 76.6l-29.5-71.4v-.2a13 13 0 0 1 11.3-18zm-128 .3a12.9 12.9 0 0 1 11.7 18l.2.3-29.2 70.7a151.4 151.4 0 0 1-60.8-76l75.5-12.9.1.2a13 13 0 0 1 2.6-.3zm63.8 31c2 0 4.1.3 6 1.3 2.6 1.2 4.6 3.2 5.9 5.5h.2l37.3 67.2a154.3 154.3 0 0 1-97.5 0l37.2-67.2a13 13 0 0 1 11-6.8z" style="text-indent:0;text-align:start;line-height:normal;text-transform:none;block-progression:tb;marker:none;-inkscape-font-specification:Sans" font-weight="400" color="#000" fill="#fff" stroke="#fff" stroke-width=".3" overflow="visible" font-family="Sans"/></svg>