<svg xmlns="http://www.w3.org/2000/svg" width="325.207" height="176.529" viewBox="0 0 86.044 46.707"><path d="M43.049 0c-14.422 0-24.38 4.311-28.602 12.05-2.57-.932-4.456-7.666-6.568-8.965-1.702-1.052-2.696-.793-2.696-.793-3.85 0-7.814 11.331-2.884 16.334 2.625 2.682 7.49 3.422 9.867 3.217.18 7.719 4.681 14.668 10.599 18.004 3.027 1.7 6.285 2.615 9.298 3.768 3.734 1.442 7.252 2.783 10.783 3.092h.375c3.547 0 7.05-1.665 10.784-3.092 3.013-1.153 6.27-2.043 9.298-3.744 5.95-3.335 10.449-10.305 10.63-18.025 2.395.19 7.206-.557 9.812-3.22 4.93-5.003.966-16.334-2.883-16.334 0 0-.995-.26-2.696.793-2.1 1.292-3.979 7.96-6.527 8.95C67.409 4.314 57.458 0 43.049 0z" fill="#fff" fill-opacity=".435"/><path d="M45.12 38.628c.974 0 1.535-.629 1.535-1.479 0-1.335-.562-1.847-1.528-1.925-.345-.027-.629.07-.726.374-.098.304.058.682.374.727.739.104.738.233.738.61 0 .374-.433.532-.523.553a.578.578 0 0 0 .13 1.14M40.99 38.628c-.973 0-1.534-.629-1.534-1.479 0-1.335.562-1.847 1.527-1.925.346-.027.63.07.727.374.097.304-.058.682-.374.727-.74.104-.739.233-.739.61 0 .374.434.532.524.553a.578.578 0 0 1-.131 1.14" fill="#fcfbfb"/><path d="M58.747 9.44c-6.829 0-12.365 5.537-12.365 12.366S51.918 34.17 58.747 34.17c6.83 0 12.365-5.536 12.365-12.365 0-6.829-5.536-12.366-12.365-12.366zm-1.731 6.941a5.497 5.497 0 0 1 5.496 5.495 5.494 5.494 0 1 1-10.817-1.367 2.31 2.31 0 0 0 4.448-.872 2.309 2.309 0 0 0-2.214-2.306 5.466 5.466 0 0 1 3.087-.95zM27.35 9.44c-6.83 0-12.365 5.537-12.365 12.366S20.52 34.17 27.35 34.17c6.829 0 12.365-5.536 12.365-12.365 0-6.829-5.536-12.366-12.365-12.366zm1.767 6.941a5.496 5.496 0 0 1 0 10.99 5.495 5.495 0 0 1-5.322-6.862 2.31 2.31 0 0 0 4.449-.872 2.309 2.309 0 0 0-2.215-2.306 5.468 5.468 0 0 1 3.088-.95z" fill="#f5f3ff"/></svg>