<svg xmlns="http://www.w3.org/2000/svg" width="340.925" height="202.676" viewBox="0 0 90.203 53.625"><g fill="#fff"><path opacity=".456" d="M45.216 3.826c-12.836 0-22.28 3.634-26.884 10.531-.091-.106-.171-.172-.266-.302-.459-.629-.945-1.486-1.428-2.384-.484-.898-.967-1.835-1.485-2.67-.518-.835-1.025-1.593-1.874-2.116-.927-.573-1.733-.828-2.347-.916a3.683 3.683 0 0 0-.862-.015c-1.535.006-2.714 1.018-3.62 2.255-.91 1.241-1.609 2.835-2.042 4.586-.866 3.499-.703 7.758 2.056 10.56 1.46 1.493 3.404 2.35 5.265 2.85 1.32.355 2.53.478 3.629.509.608 7.133 4.797 13.406 10.39 16.559h.001c2.985 1.677 6.084 2.538 8.799 3.577 3.468 1.34 6.834 2.643 10.366 2.952l.058.006h.405c3.705 0 7.076-1.656 10.478-2.956 2.71-1.037 5.812-1.876 8.802-3.556 5.623-3.152 9.81-9.44 10.42-16.572 2.678-.052 6.356-.828 8.841-3.367 2.761-2.802 2.925-7.062 2.058-10.562-.433-1.75-1.131-3.345-2.041-4.586-.907-1.237-2.086-2.25-3.621-2.255a3.684 3.684 0 0 0-.862.015c-.614.088-1.42.343-2.348.916-.844.52-1.35 1.273-1.865 2.102-.516.83-.997 1.76-1.478 2.655-.48.894-.964 1.75-1.42 2.382-.094.13-.174.197-.264.303-4.611-6.87-14.045-10.5-26.86-10.5z"/><path d="M45.13 0C34.178 0 24.922 2.551 18.84 7.928c-.184-.327-.319-.61-.53-.949-.636-1.025-1.231-2.189-3.11-3.347-1.331-.823-2.657-1.282-3.81-1.45-.574-.082-1.242-.055-1.768-.007l.371-.047c-3.417 0-5.421 2.05-6.718 3.818C1.98 7.715 1.145 9.7.607 11.872c-1.075 4.343-1.088 9.965 3.04 14.16 2.164 2.208 4.706 3.244 7.005 3.86.443.118.837.148 1.262.236 1.499 7.11 5.936 13.123 11.87 16.467l.002.003.004.001c3.491 1.962 6.806 2.86 9.29 3.81 3.476 1.34 7.14 2.823 11.413 3.197l.224.02h.567c4.905 0 8.627-1.982 11.846-3.212h.002c2.46-.942 5.788-1.814 9.305-3.79a23.139 23.139 0 0 0 4.498-3.309 25.403 25.403 0 0 0 7.392-12.962c2.727-.466 5.62-1.66 8.23-4.323 4.126-4.194 4.114-9.816 3.04-14.158-.539-2.172-1.373-4.157-2.67-5.926-1.296-1.769-3.3-3.818-6.717-3.818l.378.048c-.53-.048-1.2-.076-1.775.007-1.152.168-2.473.628-3.8 1.448-1.873 1.154-2.47 2.315-3.105 3.336-.208.334-.34.613-.522.936C65.306 2.546 56.065 0 45.13 0zm.087 5.15c13.369 0 22.602 4.003 26.526 11.165 2.364-.917 4.107-7.105 6.056-8.304 1.578-.976 2.501-.735 2.501-.735 3.571 0 7.25 10.513 2.675 15.154-2.418 2.471-6.881 3.165-9.104 2.988-.168 7.163-4.341 13.63-9.862 16.724-2.809 1.578-5.832 2.404-8.627 3.474-3.464 1.325-6.715 2.868-10.006 2.868h-.347c-3.277-.286-6.54-1.53-10.005-2.868-2.796-1.07-5.818-1.918-8.627-3.496-5.49-3.095-9.666-9.542-9.834-16.704-2.206.19-6.719-.497-9.155-2.986-4.574-4.64-.895-15.154 2.676-15.154 0 0 .923-.241 2.501.735 1.96 1.205 3.71 7.454 6.094 8.319C22.597 9.15 31.836 5.15 45.217 5.15z"/><path d="M47.14 40.99c.902 0 1.423-.584 1.423-1.373 0-1.239-.522-1.714-1.418-1.786-.32-.026-.584.065-.674.347-.09.282.054.633.347.674.686.097.685.216.685.566 0 .348-.402.494-.485.513a.536.536 0 0 0 .121 1.058m-3.833.001c-.902 0-1.423-.584-1.423-1.373 0-1.239.521-1.714 1.417-1.786.321-.026.584.065.675.347.09.282-.054.633-.347.674-.686.097-.686.216-.686.566 0 .348.403.494.486.513a.536.536 0 0 1-.122 1.058m16.476-27.081c-6.336 0-11.472 5.137-11.472 11.473 0 6.336 5.136 11.473 11.472 11.473 6.336 0 11.473-5.137 11.473-11.473 0-6.336-5.137-11.473-11.473-11.473zm-1.606 6.44a5.1 5.1 0 0 1 0 10.197 5.098 5.098 0 0 1-4.938-6.367 2.144 2.144 0 1 0 2.074-2.95 5.072 5.072 0 0 1 2.864-.88zm-27.525-6.44c-6.336 0-11.472 5.137-11.472 11.473 0 6.336 5.136 11.473 11.472 11.473 6.336 0 11.473-5.137 11.473-11.473 0-6.336-5.137-11.473-11.473-11.473zm1.64 6.44a5.1 5.1 0 0 1 0 10.197 5.098 5.098 0 0 1-4.938-6.367 2.144 2.144 0 0 0 4.127-.81 2.142 2.142 0 0 0-2.054-2.14 5.074 5.074 0 0 1 2.864-.88z"/></g></svg>