<svg xmlns="http://www.w3.org/2000/svg" viewBox="0 0 80 80"><path d="M80.058 72.37a7.734 7.734 0 0 1-7.735 7.734H7.789A7.737 7.737 0 0 1 .054 72.37V7.836A7.737 7.737 0 0 1 7.789.1h64.534a7.734 7.734 0 0 1 7.735 7.735v64.533" fill="#f6c915"/><g fill="#fff"><path d="M32.658 56.149c-2.577 0-4.6-.336-6.07-1.007-1.469-.672-2.522-1.587-3.156-2.75-.636-1.16-.944-2.49-.926-4 .018-1.506.226-3.111.626-4.817l6.913-28.902 8.437-1.306-7.566 31.352a9.843 9.843 0 0 0-.245 1.795c-.019.544.082 1.026.3 1.442.217.419.589.754 1.115 1.007.525.255 1.26.419 2.205.49l-1.633 6.692M63.131 38.135c0 2.648-.435 5.07-1.306 7.266-.87 2.197-2.078 4.092-3.62 5.688-1.542 1.598-3.392 2.84-5.551 3.728-2.16.889-4.51 1.334-7.048 1.334-1.234 0-2.468-.11-3.701-.328l-2.45 9.853h-8.056l9.035-37.662c1.451-.435 3.112-.826 4.98-1.17 1.87-.345 3.893-.517 6.07-.517 2.032 0 3.784.308 5.252.925 1.47.616 2.677 1.46 3.62 2.53.943 1.071 1.642 2.323 2.095 3.756.453 1.433.68 2.967.68 4.6M43.373 49.298c.617.145 1.379.218 2.286.218 1.415 0 2.703-.263 3.864-.79a8.52 8.52 0 0 0 2.967-2.204c.815-.943 1.45-2.076 1.904-3.402.454-1.324.68-2.784.68-4.381 0-1.56-.345-2.885-1.033-3.974-.69-1.088-1.887-1.633-3.592-1.633-1.162 0-2.25.109-3.267.327l-3.809 15.839"/></g></svg>