<svg xmlns="http://www.w3.org/2000/svg" width="200" height="200" viewBox="0 0 52.917 52.917"><path fill="none" d="M54.657-117.467h4v200h-4zM49.044-113.458h4v200h-4z"/><path fill="#fff" d="M9.76 15.419h6.929v3.185q.903-1.679 2.711-2.712 1.85-1.033 3.916-1.033 3.185 0 4.347 1.378 1.206 1.377 1.808 2.797 2.54-4.132 6.8-4.132 3.185 0 5.036 1.98 1.85 1.98 1.85 5.423v15.752H35.97V24.672l-.043-1.42q0-.818-.603-1.334-.602-.56-1.635-.56-1.162 0-2.152.818-.947.775-1.55 2.324v13.557H22.8V24.63l-.043-1.377q-.215-1.85-2.109-1.85-2.281 0-3.744 2.754v13.901H9.759z"/><path fill="none" d="M53.673-128.512h5v52.917h-5z"/><path fill="#fff" d="M0 0h2.646v52.917H0zM44.979 0h5.292v2.646h-5.292zM2.646 50.27h5.292v2.647H2.646zM50.271 0h2.646v52.917h-2.646zM2.646 0h5.292v2.646H2.646zM44.979 50.27h5.292v2.647h-5.292z"/></svg>
