<?xml version="1.0" encoding="UTF-8" standalone="no"?>
<svg
   xmlns:svg="http://www.w3.org/2000/svg"
   xmlns="http://www.w3.org/2000/svg"
   id="svg3730"
   version="1.1"
   viewBox="0 0 52.916665 52.916668"
   height="200"
   width="200">
  <defs
     id="defs3724" />
  <metadata
     id="metadata3727">
  </metadata>
  <g
     transform="translate(0,-244.08332)"
     id="layer1">
       <rect
       y="126.61567"
       x="54.65662"
       height="200"
       width="4"
       id="rect4037"
       style="fill:none;stroke-width:0.26458332" />
    <rect
       width="4"
       y="130.62473"
       x="49.043957"
       height="200"
       id="rect4039"
       style="fill:none;stroke-width:0.26458332" />
    <g
       id="flowRoot4047"
       style="font-style:normal;font-variant:normal;font-weight:normal;font-stretch:normal;font-size:162.66667175px;line-height:1.25;font-family:Formula-Bold;-inkscape-font-specification:Formula-Bold;letter-spacing:0px;word-spacing:0px;fill:#ffffff;fill-opacity:1;stroke:none"
       transform="matrix(0.26458333,0,0,0.26458333,-65.676968,119.8309)">
      <path
         id="path4543"
         style="fill:#ffffff;stroke-width:0.26458332"
         d="m 285.11325,527.89144 h 26.18933 v 12.03733 q 3.416,-6.344 10.248,-10.248 6.99467,-3.904 14.80267,-3.904 12.03733,0 16.42933,5.20534 4.55467,5.20533 6.832,10.57333 9.59733,-15.616 25.70133,-15.616 12.03734,0 19.03201,7.48267 6.99466,7.48266 6.99466,20.496 v 59.536 h -27.16533 v -50.58933 l -0.16267,-5.368 q 0,-3.09067 -2.27733,-5.04267 -2.27734,-2.11467 -6.18134,-2.11467 -4.392,0 -8.13333,3.09067 -3.57867,2.928 -5.856,8.784 v 51.24 h -27.16533 v -50.752 l -0.16267,-5.20533 q -0.81333,-6.99467 -7.97067,-6.99467 -8.62133,0 -14.152,10.41067 v 52.54133 h -27.00266 z" />
    </g>
    <rect
       y="115.57143"
       x="53.672619"
       height="52.916668"
       width="5"
       id="rect4049"
       style="fill:none;stroke-width:0.26458332" />
    <rect
       y="244.08331"
       x="2.1684043e-019"
       height="52.916668"
       width="2.6458333"
       id="rect4051"
       style="fill:#ffffff;stroke-width:0.26458332" />
    <rect
       y="244.08331"
       x="44.979164"
       height="2.6458333"
       width="5.2916665"
       id="rect4053"
       style="fill:#ffffff;stroke-width:0.26458332" />
    <rect
       style="fill:#ffffff;stroke-width:0.26458332"
       id="rect4055"
       width="5.2916665"
       height="2.6458333"
       x="2.6458333"
       y="294.35416" />
    <rect
       style="fill:#ffffff;stroke-width:0.26458332"
       id="rect4057"
       width="2.6458333"
       height="52.916668"
       x="50.270832"
       y="244.08331" />
    <rect
       style="fill:#ffffff;stroke-width:0.26458332"
       id="rect4068"
       width="5.2916665"
       height="2.6458333"
       x="2.6458333"
       y="244.08331" />
    <rect
       style="fill:#ffffff;stroke-width:0.26458332"
       id="rect4070"
       width="5.2916665"
       height="2.6458333"
       x="44.979164"
       y="294.35413" />
  </g>
</svg>
