<svg xmlns="http://www.w3.org/2000/svg" width="137.583" height="137.583" viewBox="0 0 137.583 36.402"><path fill="#fff" d="M3.625-47.442V83.844h9.445v3.149H0V-50.59h13.07v3.148zM44-5.823v6.64h.185c1.773-2.54 3.916-4.497 6.403-5.873 2.487-1.402 5.371-2.09 8.6-2.09 3.095 0 5.926.609 8.492 1.8 2.567 1.19 4.498 3.333 5.848 6.35 1.455-2.144 3.44-4.05 5.926-5.69 2.487-1.64 5.45-2.46 8.864-2.46 2.593 0 5 .318 7.223.953s4.101 1.64 5.689 3.042c1.587 1.403 2.804 3.202 3.704 5.45.873 2.25 1.323 4.949 1.323 8.124v32.834H92.789V15.45c0-1.64-.053-3.202-.185-4.657s-.476-2.725-1.032-3.784a6.338 6.338 0 0 0-2.512-2.566c-1.112-.635-2.62-.952-4.498-.952-1.905 0-3.44.37-4.604 1.084-1.164.74-2.09 1.667-2.752 2.858-.661 1.164-1.11 2.487-1.323 3.995a31.876 31.876 0 0 0-.343 4.498v27.33H62.07V15.742c0-1.455-.026-2.884-.106-4.313a11.892 11.892 0 0 0-.82-3.942 6.029 6.029 0 0 0-2.381-2.884c-1.111-.715-2.725-1.085-4.895-1.085-.635 0-1.481.132-2.513.423-1.032.29-2.064.82-3.043 1.614-.979.794-1.826 1.932-2.514 3.413-.688 1.482-1.031 3.44-1.031 5.848v28.468H31.3V-5.823zm89.959 89.667V-47.442h-9.446v-3.148h13.07V86.993h-13.07v-3.15z"/></svg>