<svg viewBox="0 0 24 24" xmlns="http://www.w3.org/2000/svg"><path d="M19.715 6.133c.249-1.866 0-3.11-.999-4.266C17.634.622 15.721 0 13.307 0H6.235c-.418 0-.916.444-1 .889L2.323 20.622c0 .356.25.8.665.8h4.328l-.25 1.956c-.084.355.166.622.498.622h3.663c.417 0 .832-.267.915-.711v-.267l.749-4.622v-.178c.083-.444.5-.8.915-.8h.5c3.578 0 6.325-1.51 7.156-5.955.418-1.867.252-3.378-.747-4.445-.25-.355-.666-.622-1-.889" fill="#009cde"/><path d="M19.715 6.133c.249-1.866 0-3.11-.999-4.266C17.634.622 15.721 0 13.307 0H6.235c-.418 0-.916.444-1 .889L2.323 20.622c0 .356.25.8.665.8h4.328l1.164-7.378-.083.267c.084-.533.5-.889.998-.889h2.08c4.079 0 7.241-1.778 8.24-6.755-.083-.267 0-.356 0-.534" fill="#012169"/><path d="M9.563 6.133c.082-.266.25-.533.498-.71.166 0 .25-.09.416-.09h5.494c.666 0 1.33.09 1.83.178.166 0 .333 0 .498.089.168.089.334.089.418.178h.25c.248.089.497.266.748.355.248-1.866 0-3.11-.999-4.355C17.717.533 15.804 0 13.39 0H6.235c-.418 0-.916.356-1 .889L2.323 20.622c0 .356.25.8.665.8h4.328l1.164-7.378 1.084-7.91z" fill="#003087"/></svg>