<svg width="24" height="32" viewBox="0 0 24 32" xmlns="http://www.w3.org/2000/svg" preserveAspectRatio="xMidYMid meet"><path fill="#009cde" d="M20.905 9.5c.28-2.1 0-3.5-1.123-4.8-1.218-1.4-3.37-2.1-6.085-2.1H5.74c-.47 0-1.03.5-1.125 1L1.34 25.8c0 .4.28.9.748.9h4.868l-.28 2.2c-.095.4.186.7.56.7h4.12c.47 0 .936-.3 1.03-.8v-.3l.842-5.2v-.2c.094-.5.562-.9 1.03-.9h.563c4.025 0 7.115-1.7 8.05-6.7.47-2.1.283-3.8-.84-5-.282-.4-.75-.7-1.125-1"/><path fill="#012169" d="M20.905 9.5c.28-2.1 0-3.5-1.123-4.8-1.218-1.4-3.37-2.1-6.085-2.1H5.74c-.47 0-1.03.5-1.125 1L1.34 25.8c0 .4.28.9.748.9h4.868l1.31-8.3-.093.3c.094-.6.562-1 1.123-1h2.34c4.588 0 8.146-2 9.27-7.6-.094-.3 0-.4 0-.6"/><path fill="#003087" d="M9.485 9.5c.092-.3.28-.6.56-.8.187 0 .28-.1.468-.1h6.18c.75 0 1.496.1 2.06.2.186 0 .374 0 .56.1.188.1.375.1.47.2h.28c.28.1.56.3.842.4.28-2.1 0-3.5-1.123-4.9-1.124-1.4-3.276-2-5.992-2H5.74c-.47 0-1.03.4-1.125 1L1.34 25.8c0 .4.28.9.748.9h4.868l1.31-8.3 1.22-8.9z"/></svg>