<svg xmlns="http://www.w3.org/2000/svg" viewBox="0 0 40 40">
  <g stroke="#fff">
    <path d="M36.3 24.4c-4.4 1-4.7-.6-4.7-.6 4.7-7 6.6-15.7 5-17.8C32 0 24 3 23.8 3h-.2l-3-.4c-2 0-3.4.6-4.6 1.4 0 0-14.2-5.8-13.5 7.4 0 2.8 4 21.2 8.7 15.6 1.6-2 3.3-3.7 3.3-3.7.8.5 1.8.8 2.8.7v.7c-1 1.4-.8 1.6-3 2-2.5.6-1 1.5-.2 1.7 1 .3 4 .7 6-1.8v.3c1 0 1 2 1 4s0 3 .5 4 .7 3 4 2c2.5-.8 4-2 4-4.7 0-1.7.5-1.5.5-3l.2-.8c.4-2.4 0-3 1.8-2.8h.4c1 0 2.7 0 3.6-.7 2-1 3.3-2.3 1.3-2z" fill="none" stroke-width="1.1" stroke-linecap="round" stroke-linejoin="round"/>
    <path d="M20 25.7c-.2 4.4 0 8.8.4 9.8s1.3 3.2 4.5 2.5c2-.6 3-1.7 4-4v-7.7M16 4S2-2 2.7 11.2c0 2.8 4 21.2 8.6 15.7l3.2-4M24 3c-.6 0 7.7-3.2 12.5 3 1.7 2-.3 10.8-5 17.8" fill="none" stroke-width="1.1" stroke-linecap="round" stroke-linejoin="round"/>
    <path d="M31.6 23.8s.3 1.5 4.7.5c2-.4.8 1.2-1.2 2-1 .8-5 1-5 0 0-2.7 2-2 2-2.5 0-.6-1-1.2-1-2.7-.5-1-7.2-11 2-9 0 0-2.5-8.2-11-9-9 0-9 11-9 11" fill="none" stroke-width="1.1" stroke-linecap="round" stroke-linejoin="bevel"/>
    <path d="M17.6 24.7c-1.2 1.3-1 1.5-3.3 2-2.4.5-1 1.4 0 1.6 1 .3 3.7.7 5.4-1.7.6-.8 0-2-.7-2.3-.4 0-.8-.3-1.4.4z" fill="none" stroke-width="1.1" stroke-linecap="round" stroke-linejoin="round"/>
    <path d="M17.5 24.6c0-.7.2-1.7.6-2.8 1-1.6 3-3.2 1-8.4 0-4-6-.8-6-.3v6c0 3.7 2 6 5 6" fill="none" stroke-width="1.1" stroke-linecap="round" stroke-linejoin="round"/>
    <path d="M16 13c0 .2.5.7 1 .7.4 0 .8-.3.8-.4 0-.2-.3-.4-.8-.5-.4 0-.8 0-1 .2z" fill="#fff" stroke-width=".4"/>
    <path d="M30 12.7c.2 0-.2.6-.6.7-.5 0-1-.3-1-.5 0-1 .4-1 1-1h.7z" fill="#fff" stroke-width=".2"/>
    <path d="M31.8 11.4c0 1.4-.3 2.4-.4 4 0 2 1 4.5-.6 7" fill="none" stroke-width="1.1" stroke-linecap="round" stroke-linejoin="round"/>
  </g>
</svg>
