<svg xmlns="http://www.w3.org/2000/svg" viewBox="0 0 40 40"><path fill="#fcfcfc" d="M2.57 39.83l-.1-1.03c.2-2.04 1.33-3.98 3.27-5.71a10.74 10.72 0 0 1 4.1-2.25c1.94-.72 2.75-.72 10.53-.72 6.75-.1 6.95-.1 7.26-.3a2.45 2.45 0 0 0 .71-.61c.2-.52.31-.62.31-1.74s0-1.23-.3-1.63a3.07 3.06 0 0 0-.62-.62c-.51-.3-1.64-.4-8.7-.4-5.92 0-7.05 0-7.66-.21a12.58 12.58 0 0 1-5.52-2.65 9.4 9.4 0 0 1-3.07-4.6c-.2-.92-.31-2.04-.1-2.25.2-.2 24.74-.1 25.56.1a11.56 11.54 0 0 1 3.99 1.64 14.21 14.2 0 0 1 3.88 4.8 14.01 13.99 0 0 1 .62 10.1 12.89 12.87 0 0 1-5.83 7.16l-.61.3a7.57 7.56 0 0 1-1.23.41l-.82.2a471.64 470.96 0 0 1-25.67 0z"/><path fill="#aeaeae" d="M2.67 13.48c-.3-.2-.3-1.12-.2-2.45l.2-1.43.2-.92a10.6 10.6 0 0 1 2.26-4.4A10.23 10.21 0 0 1 11.37.1l13.3-.1C35.6 0 37.23 0 37.33.2c.1.1.1 1.03-.1 1.94-.82 3.58-4.7 6.85-9.2 7.56-.41.1-4 .2-8.08.2-2.97.21-6.96-.3-7.88.41-.5.51-.92.82-.92 2.05 0 .71.41 1.12.31 1.12z"/></svg>
