<svg xmlns="http://www.w3.org/2000/svg" viewBox="0 0 120 120"><style>.st0{fill:#a7a9ac}.st1{fill:#818285}.st2{fill:#58585a}.st3{fill:#d1d2d4}.st4{fill:#231f20}</style><path class="st0" d="M13.7 41.6h44v8.7h-44z"/><path class="st1" d="M13.7 55.8h44v8.7h-44z"/><path class="st2" d="M13.7 69h44v8.7h-44z"/><path class="st3" d="M13.7 27.6h44v8.7h-44z"/><path class="st4" d="M13.7 83.2h44v8.7h-44z"/><path fill="#992224" d="M63 41.6h18.7v8.7H63z"/><path fill="#630f16" d="M63 55.8h18.7v8.7H63z"/><path fill="#2b1415" d="M63 69h18.7v8.7H63z"/><path fill="#e7282d" d="M63 27.6h18.7v8.7H63z"/><path class="st4" d="M63 83.2h18.7v8.7H63z"/><g><path class="st0" d="M86.8 42h18.7v8.7H86.8z"/><path class="st1" d="M86.8 56.2h18.7v8.7H86.8z"/><path class="st2" d="M86.8 69.4h18.7v8.7H86.8z"/><path class="st3" d="M86.8 28h18.7v8.7H86.8z"/><path class="st4" d="M86.8 83.6h18.7v8.7H86.8z"/></g></svg>