<svg xmlns="http://www.w3.org/2000/svg" width="40" height="40" viewBox="0 0 40 40"><g fill="#FFF"><rect transform="translate(20.094679 19.935137)rotate(-18.518296)" x="-2.8" y="-2.7" width="5.6" height="5.4"/><path d="M38.3 14.4C34.2 0.8 28.3-2.4 14.6 1.7 1 5.8-2.2 11.7 1.9 25.4 6 39 11.9 42.2 25.6 38.1 39.2 34 42.4 28.1 38.3 14.4ZM31.4 23.3L28.8 24.2 29.7 26.8C30.1 27.9 29.5 29.1 28.4 29.4 28.2 29.5 27.9 29.6 27.7 29.5 26.9 29.5 26.1 29 25.8 28.1L24.9 25.5 19.6 27.2 20.5 29.9C20.9 31 20.3 32.2 19.2 32.5 19 32.6 18.7 32.6 18.5 32.6 17.7 32.6 16.9 32 16.6 31.2L15.7 28.5 13.1 29.4C12.9 29.5 12.7 29.5 12.4 29.5 11.6 29.5 10.8 28.9 10.5 28.1 10.2 27 10.8 25.8 11.8 25.5L14.4 24.6 12.7 19.5 10.1 20.4C9.9 20.4 9.7 20.5 9.4 20.5 8.6 20.4 7.8 19.9 7.5 19.1 7.2 18 7.7 16.8 8.8 16.5L11.4 15.6 10.5 13C10.2 11.9 10.7 10.7 11.8 10.3 12.9 10 14.1 10.6 14.4 11.7L15.3 14.3 20.6 12.5 19.7 9.9C19.4 8.8 19.9 7.6 21 7.3 22.1 6.9 23.3 7.5 23.6 8.6L24.5 11.2 27.1 10.4C28.2 10 29.3 10.6 29.7 11.7 30 12.8 29.5 13.9 28.4 14.3L25.8 15.1 27.5 20.3 30.1 19.4C31.2 19 32.3 19.6 32.7 20.7 33 21.8 32.5 23 31.4 23.3Z"/></g></svg>
