<svg width="306" height="477" xmlns="http://www.w3.org/2000/svg"><g fill="none" fill-rule="nonzero"><g fill="#FFF"><path d="M223.768 33.361l2.018 3.733c4.409 8.125 42.993 80.125 42.99 106.139v1.525l-17.491 46.87c2.844 25.549 8.5 81.061 4.23 91.907-2.636 6.708-12.684 20.508-21.28 31.684l-4.51.009 4.672 42.925-14.087 10.187-5.769-53.082-5.152.01a80.68 80.68 0 0 1-1.673 5.076c-3.227 8.768-8.93 15.413-16.223 19.349-.428 21.02-19.994 32.362-38.429 32.362-18.588 0-38.318-11.332-38.753-32.346-7.308-3.943-13.018-10.588-16.249-19.365a81.403 81.403 0 0 1-1.606-4.85l-5.04.01-5.79 53.4-14.087-9.836 4.72-43.534-4.432.009c-8.662-11.226-18.903-25.231-21.565-32.014-4.27-10.848 1.166-66.352 4.014-91.905L36.467 144.76v-1.527c0-26.014 38.893-98.014 43.308-106.139l.355-.643a735.818 735.818 0 0 1 8.61-16.409L99.787 0s10.088 69.653 10.08 69.715l5.44 37.628 5.086 41.68c6.172-1.945 14.835-4.195 24.13-5.118 2.532-6.21 5.282-10.355 8.306-10.355 5.798 0 11.576 5.58 16.774 11.543 5.734 1.04 10.957 2.432 15.135 3.718l5.732-41.466L205.964 0l10.817 20.042c.92 1.698 3.535 6.57 6.987 13.32z"/><path d="M152.999 476.629L0 368.678v-251.73s56.573-21.003 153.207-21.003C249.84 95.945 306 116.948 306 116.948v251.73l-153.001 107.95z"/></g><path d="M122.218 130.647l2.967 4.877c7.91-2.207 17.817-4.178 27.93-4.178 10.139 0 20.096 1.979 28.049 4.192l2.977-4.883 3.158-22.098a579.851 579.851 0 0 0-68.25.024l3.169 22.066z" fill="#DBDBDB"/><path fill="#3B3B63" d="M218.262 300.375h-65.365v-110.04L86.574 297.156 76.262 406.85l75.614 54.302 1.021.735 77.33-55.428z"/><g fill="#C6C6C6"><path d="M181.164 135.54l2.977-4.883 3.158-22.098a579.851 579.851 0 0 0-33.921-.992c-.062 0-.126.004-.19.004v23.779c10.122.01 20.044 1.98 27.976 4.19zM265.003 119.158c2.465 8.106 3.996 15.357 3.996 20.876v3.016l-15.961 43.222c8.174 74.824 4.51 84.238 3.12 87.8-.812 2.092-3.22 8.28-18.697 28.877l9.868 91.461 46.053-33V127.117c-.002 0-9.866-3.745-28.38-7.959z"/></g><path fill="#3B3B63" d="M230.535 406.232l-11.942-105.857h-65.368V461.64z"/><path fill="#53537A" d="M76.262 406.85l76.635 55.036V190.334L86.574 297.157z"/><path d="M185.879 375.58c0 18.15-16.959 27.147-32.517 27.147-15.557 0-32.86-8.997-32.86-27.147" fill="#BC9375"/><path d="M176.344 365.294c0 21.286-11.464 26.992-23.154 26.992-11.688 0-23.156-5.706-23.156-26.992" fill="#083251"/><path d="M153.19 384.966c-12.49 0-18.564-9.16-18.564-27.99h5.956c0 22.046 8.513 22.046 12.608 22.046 4.093 0 12.608 0 12.608-22.046h5.953c0 18.83-6.073 27.99-18.561 27.99z" fill="#FFF"/><path d="M252.333 140.034c0-22.963-38.823-95.212-38.823-95.212l-13.133 91.627-11.787 19.345-35.326 1.435-.14.285v-.285l-35.332-1.435-11.783-19.345-13.133-91.627s-38.827 72.25-38.827 95.212l16.403 44.122s-8.277 74.112-4.498 83.816c3.767 9.705 29.937 42.16 29.937 42.16s-.077 27.284 7.087 46.9c5.112 14.008 16.376 19.69 27.16 19.69 16.52 0 22.982-15.15 22.982-15.15s6.618 15.15 23.137 15.15c10.783 0 22.034-5.673 27.158-19.69 7.157-19.608 7.085-46.9 7.085-46.9s26.164-32.455 29.94-42.16c3.776-9.706-4.502-83.816-4.502-83.816l16.395-44.122z" fill="#C49A7E"/><path d="M153.19 157.376l-.068.138v-.283l-35.332-1.435-11.783-19.345L92.87 44.823s-38.823 72.25-38.823 95.213l16.4 44.122s-8.276 74.112-4.503 83.816c3.775 9.705 29.935 42.16 29.935 42.16s-.067 27.284 7.09 46.9c5.12 14.008 16.383 19.69 27.158 19.69 16.528 0 22.991-15.15 22.991-15.15s.03.054.074.153v-204.35h-.002z" fill="#D8B7A0"/><path d="M236.29 188.499c-3.01-6.295 1.27-21.189 1.27-21.189-24.517-25.12-30.649-77.5-30.649-77.5-4.577 16.505-14.526 65.17-14.526 65.17s-18.298-6.812-39.114-6.845h-.155c-1.143.006-2.269.035-3.395.072v205.345l1.554 2.275v-1.124h.961v1.124l.01-1.124h1.897v1.124-1.124h.971v1.124l16.948-24.737 3.684-69.46 21.1 24.058 27.181 7.937s10.17-7.247 10.17-7.22c4.318-6.043 5.75-11.19 6.795-13.862 3.775-9.719-4.702-84.044-4.702-84.044z" fill="#3B3B63"/><path d="M153.38 148.133l-.072-.002v.002c-20.823.035-39.123 6.843-39.123 6.843s-9.953-48.663-14.527-65.17c0 0-6.127 52.38-30.648 77.5 0 0 4.279 14.896 1.27 21.189 0 0-8.477 74.329-4.702 84.032 1.043 2.674 2.486 7.82 6.798 13.863 0-.027 10.176 7.222 10.176 7.222l27.176-7.94 21.096-24.053 3.694 69.46 16.937 24.736v-1.124h.971v1.124-1.124h.952V148.133h.002z" fill="#53537A"/><path d="M202.512 234.99h-31.755v.335c0 11.073 9.59 20.043 20.837 20.043 11.252 0 20.84-8.972 20.84-20.043v-.335h-9.922z" fill="#333152"/><path d="M178.695 234.99v.335c0 6.587 5.31 11.924 11.91 11.924 6.601 0 11.91-5.337 11.91-11.924v-.335h-23.82z" fill="#FFF"/><path d="M194.28 234.99h-5.581c-.055 0-.101.027-.15.037.692.145 1.076 1.712.927 2.755-.223 1.594-1.584 2.7-3.142 2.728a5.242 5.242 0 0 0 4.415 4.076c2.887.408 5.556-1.57 5.965-4.45.294-2.12-.727-5.146-2.434-5.146zM125.857 234.99H94.104v.335c0 11.073 9.591 20.043 20.837 20.043 11.252 0 20.842-8.972 20.842-20.043v-.335h-9.926z" fill="#333152"/><path d="M102.044 234.99v.335c0 6.587 5.314 11.924 11.905 11.924 6.602 0 11.91-5.337 11.91-11.924v-.335h-23.815z" fill="#FFF"/><path d="M117.629 234.99h-5.587c-.049 0-.1.027-.146.037.69.145 1.072 1.712.927 2.755-.225 1.594-1.578 2.7-3.145 2.728a5.256 5.256 0 0 0 4.416 4.076c2.886.408 5.56-1.57 5.963-4.45.299-2.12-.72-5.146-2.428-5.146z" fill="#333152"/><path d="M200.117 225.538c1.333-1.458 12.653-14.28-2.486-14.28-13.68 0-23.523 11.019-26.131 14.28h28.617z" fill="#C49A7E"/><path d="M134.816 225.538c-2.606-3.261-12.449-14.28-26.133-14.28-15.131 0-3.812 12.822-2.486 14.28h28.62z" fill="#D8B7A0"/><path fill="#53537A" d="M86.8 229.436h57.911v5.436H86.8z"/><path d="M260.07 140.223c0-24.253-35.6-91.38-39.667-98.955L209.022 20l-16.304 113.911-7.525 12.373c-7.265-2.436-19.63-5.834-32.079-5.834-12.435 0-24.716 3.387-31.95 5.826l-7.53-12.367-5.722-39.93c.008-.066.018-.155.018-.195l-.045-.006L97.305 20 85.685 41.268c-4.073 7.575-39.958 74.702-39.958 98.955v1.424l16.432 43.693c-2.628 23.823-7.644 75.57-3.704 85.684 2.456 6.324 11.905 19.382 19.897 29.848L67.586 401.03l14.821 10.439 7.833-72.86c1.126 7.087 2.787 14.57 5.252 21.329 3.399 9.314 9.407 16.366 17.096 20.55.458 22.299 21.217 34.324 40.774 34.324 19.397 0 39.984-12.035 40.433-34.342 7.675-4.176 13.674-11.227 17.07-20.532 2.567-7.03 4.252-14.86 5.372-22.19l7.88 73.121 14.82-10.81-10.738-99.49c7.93-10.418 17.202-23.285 19.634-29.539 3.94-10.112-1.28-61.867-3.903-85.687l16.139-43.698v-1.422h.002zm-198.033-1.29c.9-12.58 14.01-42.722 26.515-68.123l3.333 23.225c-1.27 8.684-7.08 42.741-22.666 64.208l-7.182-19.31zm91.325 260.024c-8.714 0-21.106-3.88-24.189-14.161.316.01.626.037.948.037 1.684 0 3.263-.155 4.788-.372 4.42 6.144 11.306 8.028 18.283 8.028 6.988 0 13.887-1.866 18.315-8.02 1.516.207 3.078.364 4.748.364.328 0 .644-.027.971-.037-3.052 10.282-15.279 14.16-23.864 14.16zm-10.054-16.9a31.083 31.083 0 0 0 5.723-3.299c1.543.453 3.023.453 4.159.453 1.13 0 2.595.01 4.126-.443a31.826 31.826 0 0 0 5.73 3.289c-2.659 1.985-5.934 3.1-9.848 3.1-3.936 0-7.227-1.108-9.89-3.1zm89.73-116.767c-2.3 5.899-18.18 26.973-28.727 40.058l-1.76 2.194.008 2.799c0 .253-.008 26.085-6.607 44.163-4.77 13.065-15.367 14.477-19.697 14.477-10.96 0-15.691-10.03-15.858-10.392l-.626-9.396h-13.325l-.6 9.342c-.19.426-4.805 10.421-15.712 10.421-4.339 0-14.931-1.396-19.706-14.462-6.578-18.014-6.609-43.9-6.609-44.163l.01-2.799-1.76-2.184c-10.542-13.075-26.423-34.15-28.666-39.905-1.792-6.225 1.167-46.482 4.934-80.216l.208-1.872-2.973-7.988c10.213-10.688 17.38-25.398 22.323-39.4l.48 3.409 16.221 26.607 6.337-2.716c.159-.068 16.41-6.97 32.191-6.97 15.68 0 32.199 6.908 32.354 6.976l6.327 2.693 16.201-26.596.636-4.441c4.891 14.139 12.05 29.112 22.311 40.038l-3.112 8.382.207 1.87c3.766 33.742 6.725 74 4.99 80.071zm4.3-107.503c-16.838-23.632-22.12-62.05-22.578-65.56l3.072-21.415c12.503 25.4 25.62 55.543 26.52 68.123l-7.013 18.852z" fill="#333152"/><g><path d="M171.877 321.975h-37.25s-5.01 8.717-5.01 11.545c0 8.4 22.928 21.773 22.928 21.773s24.218-13.772 24.218-21.773c0-3.817-4.886-11.545-4.886-11.545z" fill="#333152"/><path d="M164.697 347.58c-2.077-3.677-4.76-4.349-5.99-1.513-1.226 2.838-.525 8.12 1.553 11.79 2.077 3.679 4.761 4.35 5.986 1.512 1.23-2.836.533-8.12-1.549-11.789z" fill="#C49A7E"/><path d="M141.682 347.58c-2.08 3.67-2.773 8.953-1.548 11.789 1.227 2.838 3.905 2.167 5.992-1.513 2.078-3.668 2.773-8.95 1.543-11.789-1.225-2.836-3.905-2.164-5.987 1.513z" fill="#D8B7A0"/></g><path d="M69.09 303.245c-15.721-20.848-18.145-27.073-18.967-29.185-3.444-8.853-2.463-38.373 2.919-87.769l-16.248-43.216v-3.041c0-5.47 1.506-12.644 3.97-20.698C22.68 123.474 13 127.117 13 127.117v234.29l46.25 33.145 9.84-91.307z" fill="#DBDBDB"/></g></svg>