<svg xmlns="http://www.w3.org/2000/svg" viewBox="0 0 77.075 77.7"><path fill="#FFF" d="M47.323 77.7c-3.594 0-6.79-2.396-7.787-5.99l-17.172-61.7c-.998-4.393 1.598-8.786 5.99-9.784 4.193-1 8.387 1.397 9.584 5.39l16.973 61.7c1.198 4.394-1.397 8.786-5.59 9.984-.6.2-1.397.4-1.997.4z"/><path fill="#FFF" d="M17.372 70.71c-4.393 0-7.987-3.593-7.987-7.985 0-1.997.8-3.994 1.997-5.392L54.112 9.41c2.995-3.393 7.986-3.593 11.38-.598s3.595 7.987.6 11.38l-42.73 47.723c-1.597 1.798-3.794 2.796-5.99 2.796z"/><path fill="#FFF" d="M69.087 56.734c-.798 0-1.597-.2-2.596-.4L5.59 36.368C1.4 34.97-.997 30.377.4 26.184c1.397-4.193 5.99-6.59 10.183-5.19l60.9 19.966c4.193 1.397 6.59 5.99 5.19 10.184-.996 3.394-3.99 5.59-7.586 5.59z"/></svg>