<?xml version="1.0" encoding="UTF-8"?>
<svg width="190px" height="98px" viewBox="0 0 190 98" version="1.1" xmlns="http://www.w3.org/2000/svg" xmlns:xlink="http://www.w3.org/1999/xlink">
    <!-- Generator: Sketch 41.2 (35397) - http://www.bohemiancoding.com/sketch -->
    <title>sqreen-eye-white</title>
    <desc>Created with Sketch.</desc>
    <defs></defs>
    <g id="Logo" stroke="none" stroke-width="1" fill="none" fill-rule="evenodd">
        <g id="sqreen-eye-white" transform="translate(-85.000000, -132.000000)" fill="#FFFFFF">
            <g transform="translate(85.753425, 132.060274)">
                <path d="M188.289918,48.6186287 C188.289918,48.6186287 188.289918,50.2841826 187.454312,51.3945519 C186.34017,52.7825135 166.842693,77.765822 157.651026,89.7022916 C148.459358,101.916354 129.797488,95.2541379 129.797488,95.2541379 C129.797488,95.2541379 135.925266,91.6454378 139.824761,86.9263684 C150.13057,73.8795295 169.906583,48.3410364 169.906583,48.3410364 C169.906583,48.3410364 150.13057,23.3577279 139.824761,10.0332967 C136.203801,5.31422731 129.797488,1.70552719 129.797488,1.70552719 C129.797488,1.70552719 148.459358,-4.67909609 157.651026,7.25737353 C166.842693,19.4714355 186.34017,44.454744 187.175776,45.8427056 C188.289918,46.9530748 188.289918,48.6186287 188.289918,48.6186287" id="Fill-1"></path>
                <path d="M-5.68434189e-14,48.6186287 C-5.68434189e-14,48.6186287 -5.68434189e-14,50.2841826 0.835606144,51.3945519 C1.67121229,52.5049212 21.4472244,77.765822 30.3603566,89.7022916 C39.2734888,101.638761 58.2138947,95.2541379 58.2138947,95.2541379 C58.2138947,95.2541379 52.0861163,91.6454378 48.186621,86.9263684 C37.8808119,73.8795295 18.1047998,48.6186287 18.1047998,48.6186287 C18.1047998,48.6186287 37.8808119,23.3577279 48.186621,10.0332967 C51.8075809,5.31422731 58.2138947,1.70552719 58.2138947,1.70552719 C58.2138947,1.70552719 39.5520241,-4.67909609 30.3603566,7.25737353 C21.168689,19.1938431 1.94974767,44.454744 1.11414153,45.8427056 C0.278535381,47.2306671 -5.68434189e-14,48.6186287 -5.68434189e-14,48.6186287" id="Fill-4"></path>
                <path d="M94.1449589,16.9731046 C77.1543006,16.9731046 62.9489962,31.1303128 62.9489962,48.6186287 C62.9489962,66.1069447 76.8757652,80.2641528 94.1449589,80.2641528 C111.414153,80.2641528 125.340922,66.1069447 125.340922,48.6186287 C125.340922,31.1303128 111.135617,16.9731046 94.1449589,16.9731046" id="Fill-6"></path>
            </g>
        </g>
    </g>
</svg>