<?xml version="1.0" encoding="utf-8"?>
<svg version="1.1" xmlns="http://www.w3.org/2000/svg" xmlns:xlink="http://www.w3.org/1999/xlink" x="0px" y="0px"
	 viewBox="0 0 120 120" style="enable-background:new 0 0 120 120;" xml:space="preserve">
<style type="text/css">
	.st0{fill:#121210;}
	.st1{fill:#2EACE3;}
</style>
<g id="g2472" transform="translate(11.8857,11.5225)">
	<path id="path2474" class="st0" d="M35.2,90.5H15.2c-0.8,0-1.2-0.2-1.2-0.9V5.8c0-0.6,0.4-1,1.2-1H35c0.8,0,1.3,0.3,1.3,1v5.2
		c0,0.7-0.4,0.9-1.2,0.9h-8.9c-1.1,0-1.5,0.4-1.5,1.1v69.4c0,0.7,0.4,1,1.3,1H35c0.8,0,1.3,0.3,1.3,0.9v5.3
		C36.4,90.2,36,90.5,35.2,90.5"/>
</g>
<g id="g2476" transform="translate(37.5488,30.5913)">
	<path id="path2478" class="st1" d="M55.2,37.5c-5.3,1.5-8.9,4.6-8.9,9.7v14.6c0,10.9-10.4,9.7-23.3,9.7h-2c-0.8,0-1.3-0.3-1.3-1v-5
		c0-0.7,0.4-1,1.2-1h1.6c7.7,0,13.1,1.7,13.1-4.5V46c0-4.3,3-10.3,9-12.5c0.4-0.1,0.5-0.3,0.5-0.5c0-0.2-0.1-0.5-0.5-0.7
		c-5.5-2.5-9-6.6-9-11.5V5c0-6.1-5.4-12.2-13.1-12.2h-1.6c-0.8,0-1.2-0.3-1.2-1v-5c0-0.7,0.5-1,1.3-1h2c12.9,0,23.4,9.2,23.4,20.1
		v13.3c0,5,3.6,7.9,9,9.8c2,0.6,3.1,0.7,3.1,2.3v4.2C58.6,36.4,57.6,36.8,55.2,37.5"/>
</g>
<g id="g2480" transform="translate(23.0029,38.9136)">
	<path id="path2482" class="st0" d="M43.8,14.4c0,1.2-1.1,2.1-2.3,2.1h-5.3c-1.3,0-2.3-1-2.3-2.1V9.6c0-1.2,1.1-2.1,2.3-2.1h5.3
		c1.3,0,2.3,1,2.3,2.1V14.4z"/>
</g>
</svg>
