<svg xmlns="http://www.w3.org/2000/svg" viewBox="0 0 120 120"><style>.st0{fill:#121210}</style><g id="g2472" transform="translate(11.886 11.523)"><path id="path2474" class="st0" d="M35.2 90.5h-20c-.8 0-1.2-.2-1.2-.9V5.8c0-.6.4-1 1.2-1H35c.8 0 1.3.3 1.3 1V11c0 .7-.4.9-1.2.9h-8.9c-1.1 0-1.5.4-1.5 1.1v69.4c0 .7.4 1 1.3 1h9c.8 0 1.3.3 1.3.9v5.3c.1.6-.3.9-1.1.9"/></g><g id="g2476" transform="translate(37.549 30.591)"><path id="path2478" d="M55.2 37.5c-5.3 1.5-8.9 4.6-8.9 9.7v14.6c0 10.9-10.4 9.7-23.3 9.7h-2c-.8 0-1.3-.3-1.3-1v-5c0-.7.4-1 1.2-1h1.6c7.7 0 13.1 1.7 13.1-4.5V46c0-4.3 3-10.3 9-12.5.4-.1.5-.3.5-.5s-.1-.5-.5-.7c-5.5-2.5-9-6.6-9-11.5V5c0-6.1-5.4-12.2-13.1-12.2h-1.6c-.8 0-1.2-.3-1.2-1v-5c0-.7.5-1 1.3-1h2c12.9 0 23.4 9.2 23.4 20.1v13.3c0 5 3.6 7.9 9 9.8 2 .6 3.1.7 3.1 2.3v4.2c.1.9-.9 1.3-3.3 2" fill="#2eace3"/></g><g id="g2480" transform="translate(23.003 38.914)"><path id="path2482" class="st0" d="M43.8 14.4c0 1.2-1.1 2.1-2.3 2.1h-5.3c-1.3 0-2.3-1-2.3-2.1V9.6c0-1.2 1.1-2.1 2.3-2.1h5.3c1.3 0 2.3 1 2.3 2.1v4.8z"/></g></svg>