<svg xmlns="http://www.w3.org/2000/svg" viewBox="0 0 24 24"><path d="M12 24c6.627 0 12-5.373 12-12S18.627 0 12 0 0 5.373 0 12s5.373 12 12 12Z" fill="url(#a)"/><path fill-rule="evenodd" clip-rule="evenodd" d="M5.425 11.871a796.414 796.414 0 0 1 6.994-3.018c3.328-1.388 4.027-1.628 4.477-1.638.1 0 .32.02.47.14.12.1.15.23.17.33.02.1.04.31.02.47-.18 1.898-.96 6.504-1.36 8.622-.17.9-.5 1.199-.819 1.229-.7.06-1.229-.46-1.898-.9-1.06-.689-1.649-1.119-2.678-1.798-1.19-.78-.42-1.209.26-1.908.18-.18 3.247-2.978 3.307-3.228.01-.03.01-.15-.06-.21-.07-.06-.17-.04-.25-.02-.11.02-1.788 1.14-5.056 3.348-.48.33-.909.49-1.299.48-.43-.01-1.248-.24-1.868-.44-.75-.24-1.349-.37-1.299-.79.03-.22.33-.44.89-.669Z" fill="#fff"/><defs><linearGradient id="a" x1="11.99" y1="0" x2="11.99" y2="23.81" gradientUnits="userSpaceOnUse"><stop stop-color="#2AABEE"/><stop offset="1" stop-color="#229ED9"/></linearGradient></defs></svg>
