<svg xmlns="http://www.w3.org/2000/svg" viewBox="0 0 40 40"><g fill="#fff"><path d="M26.223 23.845c.048 1.333.761 1.323 1.609 1.292 1.142-.021 1.769-.371 2.342-.095-.009-.032-.188-.567-.979-.474.092-.198.131-.466.103-.834-.104-1.332-.879-2.39-1.729-2.36-.848.029-1.393 1.135-1.346 2.471zm1.266-1.625c.239-.005.438.186.441.426.005.239-.187.438-.425.442-.24.004-.438-.188-.442-.428-.005-.239.187-.436.426-.44zm-12.908 3.157c.088.002.18 0 .274-.002.082 0 .164-.002.25-.005.851-.008 1.556.072 1.545-1.262-.014-1.334-.606-2.414-1.457-2.405-.849.008-1.671 1.102-1.622 2.435.015.348.066.598.148.779-.74.187-.945.644-.957.673.466-.251.993-.215 1.819-.213zm.731-2.835c.24-.008.439.182.447.422.006.239-.184.439-.423.445-.24.008-.44-.183-.446-.422-.007-.239.182-.44.422-.445zm1.997-14.215h2.386v-.984h.537v4.546h-.811v2.543h4.177v-2.543h-.812V7.343h.538v.984h2.388V4.958h-8.403"/><path d="M39.689 14.823c-.015-.289-.043-.577-.082-.861-.02-.144-.041-.288-.071-.429-.028-.146-.056-.281-.103-.44l-.03-.112-.079-.063c-.455-.356-.944-.626-1.441-.864-.411-.194-.828-.363-1.249-.518-1.177-3.264-3.197-6.158-5.856-8.173C28.031 1.279 24.8.176 21.436.176c-3.366 0-6.596 1.103-9.344 3.187-2.093 1.586-3.788 3.718-4.989 6.145h-.006c-.325.657-.617 1.333-.867 2.028-.422.155-.839.324-1.25.518-.498.238-.986.508-1.441.864l-.08.063-.03.112c-.046.159-.076.294-.104.44-.028.141-.051.285-.07.429-.029.205-.048.413-.065.621h.007c-.007.08-.013.16-.017.241-.029.577-.013 1.154.05 1.728.061.573.167 1.14.32 1.703.08.28.171.555.279.83.053.137.111.273.176.41.032.068.067.135.102.204l.057.101c.022.038.037.065.07.114l.057.09.092.047c.097.05.178.087.266.129l.256.116c.047.019.093.039.142.059-1.167 1.078-2.435 2.479-3.532 4.211L.13 26.749l1.945-1.707c.034-.029 1.664-1.44 4.384-3.041l.038.313.099.789.498 4.047c.011.077.051.146.115.19l1.021.717c.018.057.035.114.052.173.024.081.046.161.071.242l.233.703c.511 1.589 1.235 3.022 2.116 4.281-.042.013-.085.025-.127.037-.531-.246-2.386-1.106-3.009-1.387l-1.303-.585.771 1.203c.056.087 1.386 2.161 2.471 3.559 1.017 1.305 2.408 2.637 5.032 2.637.315 0 .647-.02.987-.056.783-.091 1.371-.161 1.818-.219 2.754 1.014 5.792 1.074 8.675-.017.79-.3 1.509-.663 2.168-1.071.014-.002.027-.006.039-.009 1.072-.258 2.289-.549 2.89-.717.096-.026.217-.055.342-.085.837-.191 2.236-.517 2.981-2.009.751-1.506 1.977-3.812 1.989-3.835L37 29.829l-1.115.485c-.061.026-1.475.643-2.21 1.028-.025.015-.057.028-.086.042.598-1.219.896-2.19 1.003-2.563l.403-1.663 1.161-2.597s.326-2.839.333-2.837l.114-1.086c.102-.043.722-.086.843-.134.173-.068.346-.135.519-.21l.255-.116c.09-.042.17-.079.267-.129l.092-.047.058-.09c.032-.049.05-.077.069-.114l.056-.101c.039-.069.072-.136.103-.204.065-.136.122-.272.178-.41.107-.275.196-.55.277-.83.152-.563.262-1.13.32-1.703.064-.572.078-1.15.049-1.727zM13.195 21.83c.025-.017 1.068-.701 2.771-1.534 1.698-.129 3.571-.211 5.578-.211.488 0 .967.007 1.44.015-.33.266-.678.517-1.04.734l-1.203.728c-.759.092-1.417.281-1.453.291-.023.006-.044.016-.063.027-.059.034-.104.09-.124.156l-1.23 4.051-6.565 1.459-2.069-1.449-.602-4.873c1.174-.217 2.746-.466 4.632-.677-.202.24-.399.494-.584.762l-1.123 1.612 1.635-1.091zm8.86 16.954c-1.083.072-2.183-.055-3.26-.35.09-.018.155-.028.235-.037.088-.012 2.021-.266 2.89-1.558l.082.002.216-.002c.143 0 .273-.012.412-.018.33-.027.649-.075.966-.139.034.033.066.066.101.102.653.647 1.464 1.018 2.355 1.083-1.499.609-2.91.845-3.997.917zm.098-2.37c.163-.363.286-.646.379-.859.192.214.435.479.708.762-.213.032-.423.059-.63.076-.136.006-.278.021-.408.021h-.049zm-3.221-8.362l.587-.132c.097-.021.173-.094.202-.188l1.226-4.033c.212-.028.398-.043.559-.043.156 0 .345.015.556.043l1.262 4.153c.032.106.123.183.231.195l.468.053.12.013 8.062.917c.067.008.133-.011.188-.049l.81-.566.749-.524.277-.195c-.045.193-.095.385-.147.574-.077.248-.159.488-.241.726-.331.942-.702 1.797-1.106 2.569-.11.007-.229.012-.354.012-.392 0-.79-.032-1.231-.073-.766-.071-1.979-.21-2.361-.253-.333-.265-1.464-1.162-2.403-1.903-.036-.028-.068-.058-.101-.084-.165-.14-.353-.298-.734-.298-.348 0-.854.126-2.077.495.637-.476.642-1.089.642-1.089s-.906.844-2.368 1.03c-1.458.188-2.605-.709-2.605-.709.048.156.116.509.447.808-.389-.045-.809-.077-1.25-.077-.158 0-.32.004-.475.012-.898.048-2.162 1.404-3.049 2.773-.436.138-1.799.571-3.375 1.034-.931-1.288-1.562-2.595-1.919-3.436-.208-.49-.324-.823-.35-.902v-.002c-.029-.08-.06-.165-.087-.25l.378.264v.002l.935.656.312.217c.047.033.104.05.158.05.02 0 .04-.002.061-.006m12.977-7.8c-.028-.09-.098-.157-.188-.184-.041-.013-.852-.244-1.713-.317l.158-.012c.136-.01 2.397-.286 5.098-1.218 2.991.229 5.433.596 7.103.9l-.591 4.146-2.086 1.459-6.557-.745m13.171-9.614c-.073.534-.315 1.574-.315 1.574l-.189.031c-.099-.027-1.021-.266-2.609-.56.051-.011.1-.022.148-.033.329-.082.653-.183.968-.31.156-.067.312-.138.459-.222.146-.085.289-.179.401-.306-1.59.52-4.876.284-7.797-.018-2.669-.276-5.348-.454-8.04-.46-2.691.006-5.367.185-8.039.46-2.921.302-6.206.538-7.796.018.112.126.256.221.403.306.146.084.301.154.457.222.314.126.64.228.969.31.116.027.234.053.352.074-1.449.275-2.288.493-2.382.519 0 0-.334.054-.407-.202-.145-.512-.242-.87-.315-1.403-.069-.531-.104-1.068-.1-1.604.001-.088-.001-.264-.001-.264.005-.18.013-.36.03-.54.01-.133.499-.559.919-.801.454-.264.931-.502 1.417-.723.481-.228 2.04-.559 2.98-.729.94-.172 4.302-.618 4.554-.712.251-.096 1.704-1.216 1.958-1.309-.534.088-7.912 1.215-8.244 1.32 2.395-6.263 7.096-9.313 13.353-9.313 6.255 0 10.957 2.88 13.354 9.144-3.164-.841-7.546-1.233-8.08-1.322.254.093 1.691 1.104 1.958 1.138 2.188.284 5.638 1.049 5.888 1.148.496.201.993.408 1.475.635.487.221.963.459 1.417.723.42.243.908.668.92.801.023.268.033.535.036.803.004.536-.033 1.074-.102 1.605z"/></g></svg>