<svg xmlns="http://www.w3.org/2000/svg" width="266.666" height="264.497"><path fill="#cd2445" d="M63.708 115.43s-41.49 29.203-43.113 40.329l3.113-.64s49.685-32.932 89.07-36.948l.893-4.999-49.963 2.257M128.839 111.256l-32.682 23.18 1.767 1.418c1.332-1.075 58.052-18.398 58.052-18.398l11.959-7.497c-8.024.998-39.096 1.297-39.096 1.297M157.243 139.292c23.206 0 57.993-22.728 57.993-22.728l-11.245-2.14c-.556.556-18.134-.616-18.134-.616l-8.344-2.317-19.934 22.714-1.623 3.942c1.433-.583 1.287 1.145 1.287 1.145M59.275 225.384l-.482-.222c-1.14-.984-2.074-1.79-2.684-2.314zm173.696-13.608l-7.17 2.019-33.124-.716-20.721-16.113-25.045 6.266-28.968-2.507-16.222 17.725-30.437 9.093-15.198-4.712-.765-.66 6.822 16.703s15.45 16.566 24.081 18.514c8.63 1.948 24.22-.14 35.913-1.95 11.692-1.81 21.019-5.986 24.776-12.805 3.758-6.822 4.315-8.77 4.315-8.77s11.137 15.73 20.741 17.54c9.604 1.809 38.14-7.936 38.14-7.936s17.402-4.732 20.462-10.718c3.062-5.985 11.137-25.612 11.137-25.612l-8.737 4.639"/><path fill="#f2f19b" d="M261.11 93.447c-.073-.895-.171-1.79-.28-2.679-.078-.63-.178-1.29-.287-1.899-2.391-2.012-5.108-3.801-7.936-5.428-3.066-1.79-6.272-3.394-9.546-4.884-3.25-1.533-6.589-2.921-9.948-4.276-1.676-.68-3.366-1.34-5.064-1.969-1.692-.66-3.4-1.275-5.113-1.899 3.596.596 7.155 1.412 10.687 2.322a144.18 144.18 0 0 1 6.853 1.969c-16.15-42.207-54.76-69.693-96.916-69.693-42.163 0-80.77 27.486-96.915 69.693 2.271-.71 4.557-1.375 6.85-1.97 3.537-.909 7.097-1.725 10.69-2.32-1.718.623-3.422 1.238-5.12 1.898-1.689.63-3.381 1.29-5.063 1.97-3.36 1.354-6.688 2.742-9.947 4.275-3.267 1.49-6.476 3.094-9.541 4.884-2.829 1.626-5.543 3.416-7.943 5.428-.1.61-.202 1.268-.28 1.899a69.55 69.55 0 0 0-.28 2.679 68.664 68.664 0 0 0-.236 5.414c-.036 3.618.208 7.235.666 10.814.494 3.589 1.152 7.154 2.127 10.601a57.076 57.076 0 0 0 1.653 5.077c.316.823.66 1.634 1.02 2.422.178.392.364.78.55 1.152l.229.437c.265.135.544.272.81.4l1.605.767c.894.406 2.133.994 3.157 1.453l.164-.152-2.98-11.35c.632-.174 6.29-1.634 16.043-3.49a51.595 51.595 0 0 1-2.363-.508c-2.22-.552-4.412-1.225-6.532-2.085a29.9 29.9 0 0 1-3.079-1.487c-.989-.568-1.962-1.21-2.716-2.064 10.715 3.496 32.854 1.912 52.532-.121 17.999-1.855 36.039-3.058 54.174-3.094 18.136.036 36.182 1.239 54.173 3.094 19.688 2.033 41.827 3.617 52.54.121-.752.853-1.724 1.497-2.713 2.064a29.999 29.999 0 0 1-3.078 1.487c-2.122.86-4.312 1.533-6.532 2.085-.329.079-.661.15-.99.221 10.693 1.984 16.918 3.596 17.584 3.775l-2.851 10.813c.573-.258 1.152-.508 1.72-.765l1.603-.767c.266-.129.537-.265.809-.4l.221-.437c.195-.372.382-.76.559-1.152.36-.788.704-1.599 1.019-2.421a56.313 56.313 0 0 0 1.654-5.078c.975-3.446 1.634-7.012 2.127-10.601.46-3.58.701-7.197.668-10.813a67.831 67.831 0 0 0-.239-5.412"/><path fill="#e5c9a3" d="M155.716 243.548a58.1 58.1 0 0 1-4.248.5c-.91.044-1.872.136-2.745.136l-.323.007a776.115 776.115 0 0 0 2.559-5.786 197.628 197.628 0 0 0 4.757 5.143M158.801 246.69c4.406 4.363 9.864 6.862 15.872 7.306-10.092 4.099-19.602 5.68-26.929 6.173-7.304.49-14.71-.372-21.965-2.361a26.775 26.775 0 0 1 1.59-.252c.596-.072 13.608-1.77 19.474-10.49l.55.012 1.44-.012c.975 0 1.86-.08 2.792-.117a58.348 58.348 0 0 0 6.504-.937c.223.228.444.45.672.679"/><path fill="#5d6762" d="M171.285 116.095c-.422.55-.894 1.158-1.397 1.79-2.577 3.259-6.152 7.427-10.392 11.503a492.78 492.78 0 0 0-15.205-.236c-8.614 0-16.874.228-24.716.61 11.081-4.6 24.394-9.091 38.812-11.79 4.21-.797 8.521-1.435 12.898-1.877M106.428 121.056c-3.955 2.779-8.423 6.325-12.755 10.628a480.415 480.415 0 0 0-28.756 3.747c12.276-5.643 26.285-10.836 41.511-14.375M241.973 143.959l-4.512 31.572-21.616 15.14-56.377-6.41-8.487-27.948a1.844 1.844 0 0 0-1.477-1.294c-2.09-.338-3.937-.51-5.477-.51-1.547 0-3.388.172-5.487.51a1.859 1.859 0 0 0-1.475 1.294l-8.279 27.267-56.062 12.476-22.216-15.563-4.377-35.429a266.92 266.92 0 0 1 2.9-1.612c1.376-.296 2.922-.61 4.634-.939l4.126 33.431c.064.523.352.988.78 1.29l15.284 10.709a1.9 1.9 0 0 0 1.468.284l46.093-10.256c.159-.036.316-.092.459-.166a1.85 1.85 0 0 0 .909-1.102l8.3-27.331c2.226-.573 7.93-1.905 12.941-1.905 4.999 0 10.707 1.332 12.935 1.905l8.3 27.33c.215.71.832 1.217 1.568 1.303l46.093 5.236c.447.05.903-.067 1.27-.322l15.292-10.7c.413-.294.693-.755.764-1.262l4.082-28.561c3.068.592 5.632 1.128 7.644 1.563M247.668 124.159l-3.968 15.053c-8.115-1.79-25.941-5.3-50.205-7.663 7.928-3.38 16-7.62 23.374-12.92 14.439 2.04 25.04 4.226 30.799 5.53"/><path fill="#e4c896" d="M153.997 134.256c-2.22 1.799-4.561 3.48-6.998 4.95l-8.13 4.906c-5.098.621-9.524 1.883-9.774 1.956-.15.041-.292.105-.423.187a1.873 1.873 0 0 0-.839 1.058l-8.278 27.28-44.247 9.84-13.936-9.761-4.055-32.845c7.915-1.454 18.5-3.136 31.214-4.56a75.89 75.89 0 0 0-3.94 5.14l-7.57 10.865 11.022-7.348c.164-.115 7.182-4.732 18.664-10.348a503.057 503.057 0 0 1 47.29-1.32zm-68.876 36.999c3.143-1.699 6.695-1.447 12.254-1.439.596.015 1.21.007 1.853-.007.547-.006 1.096-.014 1.677-.029 5.728-.056 10.492.488 10.409-8.508-.087-8.994-4.083-16.264-9.806-16.206-5.73.049-11.272 7.418-10.93 16.407.094 2.342.438 4.031.99 5.25-4.993 1.25-6.37 4.338-6.447 4.532M230.687 141.72l-3.99 27.925-14.052 9.839-44.188-5.022-8.244-27.15a1.881 1.881 0 0 0-1.26-1.245c-.273-.08-5.744-1.64-11.545-2.143l1.06-.07c.916-.066 16.157-1.935 34.356-8.21 20.153 1.548 36.61 4.027 47.863 6.076zm-28.24 25.847c-.056-.213-1.26-3.831-6.59-3.196.615-1.338.888-3.142.695-5.614-.704-8.974-5.924-16.107-11.647-15.908-5.722.203-9.389 7.642-9.073 16.638.315 8.987 5.12 8.925 10.843 8.724 7.693-.143 11.918-2.507 15.772-.644"/><path fill="#c4af90" d="M153.997 134.256c-2.22 1.799-4.561 3.48-6.998 4.95l-8.13 4.906c-5.098.621-9.524 1.883-9.774 1.956-.15.041-.292.105-.423.187a1.873 1.873 0 0 0-.839 1.058l-8.278 27.28-44.247 9.84-13.936-9.761-4.055-32.845c7.915-1.454 18.5-3.136 31.214-4.56a75.89 75.89 0 0 0-3.94 5.14l-7.57 10.865 11.022-7.348c.164-.115 7.182-4.732 18.664-10.348a503.057 503.057 0 0 1 47.29-1.32zm-68.876 36.999c3.143-1.699 6.695-1.447 12.254-1.439.596.015 1.21.007 1.853-.007.547-.006 1.096-.014 1.677-.029 5.728-.056 10.492.488 10.409-8.508-.087-8.994-4.083-16.264-9.806-16.206-5.73.049-11.272 7.418-10.93 16.407.094 2.342.438 4.031.99 5.25-4.993 1.25-6.37 4.338-6.447 4.532M230.687 141.72l-3.99 27.925-14.052 9.839-44.188-5.022-8.244-27.15a1.881 1.881 0 0 0-1.26-1.245c-.273-.08-5.744-1.64-11.545-2.143l1.06-.07c.916-.066 16.157-1.935 34.356-8.21 20.153 1.548 36.61 4.027 47.863 6.076zm-28.24 25.847c-.056-.213-1.26-3.831-6.59-3.196.615-1.338.888-3.142.695-5.614-.704-8.974-5.924-16.107-11.647-15.908-5.722.203-9.389 7.642-9.073 16.638.315 8.987 5.12 8.925 10.843 8.724 7.693-.143 11.918-2.507 15.772-.644"/><path fill="#e5c9a3" d="M249.975 154.003c.677.558 1.214 2.005.608 8.744-.746 8.25-4.214 22.732-6.362 25.066-2.37.459-7.34-.085-10.37-.793.524-2.079.673-3.075 1.096-5.2l5.3-3.708c.422-.293.701-.755.773-1.255l3.704-25.954c2.248 1.216 4.561 2.532 5.25 3.1M54.583 187.878c.265.938.544 1.876.832 2.8-2.852.837-8.66 1.64-11.287 1.18-2.177-2.192-6.238-17.287-7.126-25.303-.725-6.495-.217-7.899.443-8.446.767-.643 3.638-2.277 6.124-3.609l3.36 27.266c.063.523.342.988.78 1.289l6.874 4.823M161.796 188.259l-.201 1.74s-6.108 5.663-15.942 6.932c-9.833 1.266-17.56-4.776-17.56-4.776.322 1.05.78 3.423 3.007 5.448a70.966 70.966 0 0 0-8.417-.524c-1.073 0-2.155.03-3.202.08-6.052.317-14.565 9.468-20.552 18.686-2.937.93-12.119 3.844-22.746 6.983-9.92-13.745-14.798-27.79-15.292-29.243l.006-.007c-.2-.56-.401-1.12-.588-1.692l2.55 1.785v.007l6.302 4.411 2.107 1.468c.315.223.687.338 1.059.338.136 0 .271-.015.406-.041l57.914-12.894a1.848 1.848 0 0 0 1.367-1.267l8.258-27.186c1.425-.194 2.677-.294 3.752-.294 1.068 0 2.328.1 3.753.294l8.499 27.996c.216.709.832 1.225 1.561 1.302l3.959.454"/><path fill="#e5c9a3" d="M227.901 186.755l1.87-1.312c-.31 1.297-.646 2.586-.996 3.861-2.599 8.33-5.667 15.699-9.074 22.208-.753.052-1.548.081-2.4.081-2.629 0-5.314-.222-8.286-.494-5.158-.474-13.343-1.411-15.928-1.711-2.227-1.776-9.847-7.83-16.187-12.82-.25-.201-.464-.388-.673-.56-1.116-.944-2.386-2.017-4.956-2.017-2.335 0-5.744.85-13.986 3.344 4.283-3.202 4.311-7.334 4.311-7.334l.201-1.74 54.331 6.172a1.88 1.88 0 0 0 1.273-.321l5.459-3.824 5.041-3.533"/><path fill="#e9d586" d="M187.916 72.45c.165 4.833.044 13.591-2.207 21.793a1.78 1.78 0 0 0 0 .938 345.73 345.73 0 0 0-8.594-.788c3.216-6.738 3.917-13.914 4.069-16.442 2.47-1.756 4.928-3.862 6.732-5.502M105.941 77.95c.15 2.527.851 9.689 4.062 16.422-2.866.228-5.73.493-8.588.795.077-.295.087-.61 0-.926-2.248-8.185-2.363-16.952-2.206-21.793 1.805 1.641 4.254 3.747 6.732 5.501"/><path fill="#2a2c30" d="M184.463 154.396a2.936 2.936 0 0 0 2.872-2.98 2.915 2.915 0 0 0-2.98-2.87 2.918 2.918 0 0 0-2.87 2.978 2.925 2.925 0 0 0 2.978 2.872zm17.984 13.17c-3.854-1.86-8.079.503-15.771.646-5.723.201-10.528.264-10.843-8.724-.316-8.996 3.351-16.434 9.074-16.638 5.722-.2 10.942 6.934 11.646 15.909.194 2.472-.08 4.276-.694 5.613 5.328-.636 6.532 2.98 6.588 3.195"/><path fill="#f1fafc" d="M184.355 148.535a2.924 2.924 0 1 1 .106 5.849 2.925 2.925 0 1 1-.106-5.85"/><path fill="#2a2c30" d="M102.467 156.566a2.927 2.927 0 1 0-.165-5.852 2.927 2.927 0 0 0 .165 5.852zm8.845 4.705c.084 8.996-4.679 8.452-10.408 8.508-.58.014-1.13.021-1.677.029-.643.015-1.259.021-1.854.007-5.557-.007-9.11-.259-12.253 1.439.077-.194 1.453-3.282 6.447-4.534-.552-1.219-.898-2.908-.99-5.25-.342-8.987 5.2-16.358 10.93-16.408 5.722-.055 9.718 7.216 9.805 16.209"/><path fill="#f1fafc" d="M102.315 150.719a2.927 2.927 0 1 1 .15 5.852 2.927 2.927 0 0 1-.15-5.852"/><path fill="#ebdb8b" d="M66.027 101.144l-.665-1.255-.027-3.297 1.733-19.599 30.083-7.285 1.872 25.293c-1.458-1.977-3.642-6.453-4.995-12.594-.724-3.28-3.05-4.215-5.726-4.215-2.335 0-4.936.712-6.973 1.196-4.373 1.041-10.098 2.499-11.034 4.788-1.818 4.441-2.707 16.03-2.707 16.03l-1.561.938M221.368 101.144l-1.561-.937s-.888-11.59-2.706-16.031c-.937-2.29-6.662-3.747-11.033-4.788-2.037-.484-4.64-1.196-6.975-1.196-2.677 0-5.002.935-5.726 4.215-1.351 6.141-3.539 10.617-4.998 12.594l1.876-25.293 30.083 7.285 1.476 16.707-.055 6.723-.381.721"/><path fill="#ebdc8c" d="M174.301 96.604l-60.642-.112-3.143-7.076-2.247-12.128-4.942-3.93-.113-28.243 6.96-20.584s1.143 60.626 15.311 60.626h36.836c14.168 0 14.966-60.653 14.966-60.653l9.216 34-6.698 19.121-.338 5.391-2.359 8.533-2.807 5.055M235.967 107.43l-3.43-1.675 3.43 1.676m-3.43-1.676l-10.804-3.259.016-2.073.556-1.048-.501-5.675.101-12.641s2.916 20.922 10.632 24.696"/><path fill="#ead687" d="M221.75 100.423l.054-6.723.501 5.675-.556 1.048"/><path fill="#ebdc8c" d="M51.147 107.43l3.43-1.675-3.43 1.676m3.43-1.676c7.718-3.774 10.633-24.696 10.633-24.696l.125 15.533-.245 2.783.272.514.02 2.607-10.805 3.259"/><path fill="#ead687" d="M65.362 99.89l-.272-.515.245-2.783.027 3.297"/><path fill="#2a2c30" d="M98.09 95.524l-.13-.33c-2.633-9.582-2.519-19.63-2.283-24.265l-27.352 7.778c-1.84 11.976-.981 20.777-.796 22.396a184.97 184.97 0 0 1 6.842-1.712c3.78-.838 7.59-1.539 11.408-2.184 3.825-.638 7.662-1.124 11.501-1.59.273-.036.539-.056.81-.093zm11.912-1.152c-3.211-6.733-3.912-13.896-4.062-16.423-2.477-1.754-4.928-3.86-6.732-5.5-.159 4.842-.043 13.608 2.206 21.794.086.316.077.63 0 .925 2.86-.303 5.722-.567 8.588-.796zm75.706-.13c2.25-8.2 2.372-16.96 2.207-21.794-1.804 1.64-4.263 3.745-6.732 5.5-.152 2.528-.854 9.704-4.07 16.443 2.866.23 5.731.488 8.595.788a1.774 1.774 0 0 1 0-.938zm33.879 6.867c.186-1.609 1.052-10.412-.788-22.401l-27.36-7.777c.245 4.633.353 14.682-2.276 24.265l-.135.344c.27.028.544.05.808.085 7.692.882 15.348 2.112 22.919 3.774 2.282.53 4.568 1.097 6.832 1.71zm4.396 1.291c3.673 1.203 7.368 2.477 10.714 4.433-1.79-.709-3.638-1.217-5.501-1.676a93.847 93.847 0 0 0-5.601-1.232c-3.76-.708-7.534-1.309-11.331-1.769-3.788-.493-7.583-.91-11.395-1.232-3.81-.321-7.612-.644-11.43-.867-15.262-.938-30.566-1.173-45.88-1.189-15.311.008-30.616.295-45.879 1.196-3.816.221-7.62.545-11.43.868-3.809.321-7.613.73-11.394 1.23-3.796.46-7.57 1.062-11.33 1.77-1.877.352-3.747.76-5.609 1.225-1.854.459-3.71.967-5.5 1.676 3.344-1.954 7.04-3.236 10.72-4.441.31-.1.623-.185.938-.285l-.058-.236c-.064-.423-1.425-10.479.946-24.86a1.782 1.782 0 0 1 1.282-1.434l3.89-1.108c.845-30.166 13.27-44.354 13.657-44.792-11.101 17.863-11 39.048-10.808 43.982l24.17-6.87.056-.013.302-.043.1-.008c.123-.006.26.008.396.036l.07.022.3.1.114.065.236.15.065.043.043.043.072.059c.016.021.659.657 1.683 1.612-.243-7.964.136-30.811 11.016-49.747-.23.664-8.862 25.904-5.887 54.193a45.351 45.351 0 0 0 2.972 2.199c.479.33.773.873.78 1.453.008.094.214 9.111 4.197 16.782.056.114.1.236.136.357 9.905-.673 19.838-.945 29.75-.952 9.914.007 19.84.293 29.742.975.036-.13.08-.258.146-.38 3.981-7.671 4.189-16.688 4.189-16.782a1.817 1.817 0 0 1 .788-1.453 48.53 48.53 0 0 0 2.965-2.199c2.979-28.289-5.653-53.529-5.881-54.193 10.87 18.935 11.259 41.781 11.016 49.747a83.381 83.381 0 0 0 1.681-1.612l.071-.059.044-.043.065-.044.236-.157.108-.057.315-.107.065-.015c.128-.028.267-.042.395-.036l.093.008.308.043.056.013 24.172 6.87c.195-4.934.295-26.12-10.805-43.982.385.438 12.812 14.626 13.65 44.792l3.895 1.108a1.798 1.798 0 0 1 1.283 1.434c2.37 14.381 1.003 24.437.944 24.86l-.056.242c.319.094.627.186.943.287"/><path fill="#2a2c30" d="M167.556 43.175V30.123h-46.965v13.052h6.421v-6.632h13.285v40.3h-5.466v7.474h18.486v-7.474h-5.466v-40.3h13.285v6.632zm4.835-17.878v22.7H156.3v-6.632h-3.627v30.642h5.479V89.14h-28.145V72.007h5.456v-30.64h-3.615v6.632h-16.08V25.297h56.623"/><path fill="#cd2445" d="M167.556 30.121v13.054h-6.421v-6.632h-13.286v40.3h5.467v7.474h-18.485v-7.474h5.466v-40.3h-13.285v6.632h-6.421V30.12h46.965"/><path fill="#5d6762" d="M40.925 124.159c2.346-.532 5.515-1.21 9.402-1.96a139.118 139.118 0 0 0-8.296 6.129l-1.106-4.17"/><path fill="#c4af90" d="M126.815 186.373s.656 4.22-5.251 6.026c-5.904 1.806-43.31 12.955-47.576 12.35-4.265-.601-15.092-7.832-15.092-7.832l-2.625-9.338 16.021 9.99 54.523-11.196M160.323 185.556s-.472 4.243 5.508 5.793c5.978 1.548 43.833 11.06 48.066 10.272 4.235-.788 14.738-8.481 14.738-8.481l2.217-9.445-14.727 8.784-55.802-6.923"/><path fill="#c4af90" d="M37.883 178.608s5.182 10.366 13.554 6.777l5.98 2.194-.597 4.387-12.559 1.593-3.388-1.992-2.99-12.96M250.068 175.762s-8.47 10.82-16.843 7.233l-2.692 1.736.598 4.385 12.558 1.595 3.387-1.994 2.992-12.955M119.039 257.205s30.706 15.482 65.474-5.584l-11.165-.761s-24.363 9.643-43.65 4.313l-10.66 2.032"/><path fill="#2a2c30" d="M50.327 122.199a305.465 305.465 0 0 0-9.402 1.96l1.106 4.169a138.532 138.532 0 0 1 8.296-6.13zm5.087 68.48a91.058 91.058 0 0 1-.829-2.803l-6.882-4.816a1.854 1.854 0 0 1-.782-1.292l-3.354-27.265c-2.486 1.332-5.357 2.966-6.123 3.609-.663.545-1.167 1.947-.448 8.443.89 8.013 4.95 23.11 7.13 25.305 2.625.463 8.437-.344 11.288-1.181zm41.133-72.263c5.1-1.43 10.36-2.679 15.75-3.728-7.73.283-15.466.641-23.19 1.077-4.488.248-8.954.552-13.42.89-2.238.172-4.46.35-6.677.593-.634.061-1.255.13-1.89.213-5.825 3.486-28.17 17.512-43.508 35.852 14.905-10.358 40.872-25.924 72.935-34.897zm-2.879 13.265c4.335-4.3 8.807-7.848 12.756-10.622-15.22 3.534-29.23 8.724-41.504 14.37a481.258 481.258 0 0 1 28.748-3.748zm58.419-17.525c-3.08-.048-6.164-.076-9.244-.083h-.007c-4.52.007-9.05.055-13.585.146l-8.359 3.961-.117.064c-1.256.613-12.232 6.15-22.559 16.028 9.257-4.867 22.861-11.224 38.87-16.153a192.248 192.248 0 0 1 15-3.963zm-5.088 25.05c2.436-1.47 4.776-3.154 6.998-4.949a563.12 563.12 0 0 0-9.704-.096 501.65 501.65 0 0 0-37.585 1.415c-11.48 5.612-18.5 10.23-18.664 10.347l-11.024 7.351 7.572-10.865a69.832 69.832 0 0 1 3.941-5.142c-12.714 1.421-23.302 3.105-31.213 4.562l4.05 32.843 13.938 9.761 44.245-9.837 8.283-27.285c.139-.45.441-.828.836-1.057.13-.085.27-.146.42-.187.256-.07 4.68-1.332 9.781-1.954zm4.472 104.843c1.408-.11 2.822-.29 4.245-.504a185.087 185.087 0 0 1-4.757-5.142 531.072 531.072 0 0 1-2.56 5.785h.324c.877.001 1.837-.095 2.748-.139zm23.2 9.948c-6.004-.442-11.464-2.94-15.871-7.302-.228-.234-.448-.458-.67-.683-2.13.428-4.291.745-6.507.938-.931.035-1.815.117-2.788.117l-1.444.014-.551-.014c-5.861 8.718-18.879 10.417-19.473 10.493-.538.061-.979.137-1.588.248 7.256 1.988 14.661 2.85 21.965 2.36 7.323-.49 16.836-2.077 26.927-6.17zm-4.783-136.113c.503-.628.972-1.235 1.392-1.787a149.548 149.548 0 0 0-12.893 1.878c-14.419 2.698-27.735 7.185-38.814 11.782a511.01 511.01 0 0 1 24.72-.606c5.211 0 10.278.089 15.206.234 4.238-4.074 7.814-8.242 10.389-11.501zm39.835-1.235l-.042-.016a735.498 735.498 0 0 0-13.101-.868c-6.073-.346-12.15-.636-18.223-.89-.353.525-1.069 1.56-2.098 2.966-3.306 4.474-9.864 12.68-18.272 19.64 11.901-2.134 32.545-7.414 50.404-19.874.448-.318.89-.648 1.332-.958zm20.045 68.791l-1.872 1.31-5.039 3.535-5.46 3.824a1.888 1.888 0 0 1-1.272.324l-54.328-6.177-3.954-.45a1.852 1.852 0 0 1-1.562-1.302l-8.502-27.997c-1.422-.194-2.686-.292-3.747-.292-1.079 0-2.335.097-3.756.292l-8.256 27.189a1.844 1.844 0 0 1-1.367 1.261L72.74 199.854c-.137.026-.275.04-.407.04-.372 0-.745-.111-1.064-.338l-2.104-1.464-6.301-4.41v-.014l-2.547-1.78c.18.573.386 1.133.588 1.69l-.008.009c.491 1.456 5.371 15.496 15.29 29.238a1166.445 1166.445 0 0 0 22.742-6.978c5.985-9.223 14.503-18.37 20.557-18.686a68.018 68.018 0 0 1 3.204-.08c2.96 0 5.791.212 8.413.523-2.228-2.023-2.684-4.397-3.008-5.447 0 0 7.724 6.04 17.56 4.779 9.837-1.27 15.945-6.939 15.945-6.939s-.028 4.136-4.315 7.338c8.243-2.492 11.652-3.348 13.986-3.348 2.574 0 3.844 1.077 4.956 2.025.214.172.429.357.676.559a4626.185 4626.185 0 0 1 16.188 12.818c2.581.303 10.766 1.235 15.924 1.711 2.973.268 5.66.496 8.289.496.85 0 1.644-.035 2.396-.084 3.41-6.507 6.476-13.881 9.077-22.204.348-1.28.688-2.57.991-3.868zm-3.07-15.793l3.989-27.93c-11.252-2.049-27.707-4.526-47.863-6.073-18.196 6.276-33.436 8.144-34.355 8.206l-1.062.077c5.804.498 11.272 2.058 11.546 2.14.603.18 1.072.64 1.259 1.244l8.248 27.155 44.184 5.018zm10.76 5.881l4.513-31.568a321.017 321.017 0 0 0-7.642-1.559l-4.078 28.563a1.886 1.886 0 0 1-.767 1.257l-15.296 10.698c-.36.255-.821.373-1.263.324l-46.096-5.239a1.855 1.855 0 0 1-1.568-1.297l-8.302-27.334c-2.224-.574-7.932-1.906-12.928-1.906-5.019 0-10.722 1.332-12.945 1.906l-8.303 27.334a1.85 1.85 0 0 1-1.367 1.262L75.32 188.225c-.145.03-.27.044-.408.044-.372 0-.745-.11-1.056-.333l-15.29-10.705a1.863 1.863 0 0 1-.78-1.291l-4.12-33.43a329.36 329.36 0 0 0-4.64.938c-.978.54-1.946 1.079-2.898 1.618l4.375 35.423 22.221 15.567 56.062-12.472 8.277-27.265c.208-.686.78-1.19 1.477-1.3 2.099-.338 3.933-.51 5.488-.51 1.537 0 3.381.172 5.473.51.704.11 1.276.614 1.478 1.3l8.488 27.94 56.376 6.412zm6.24-36.316l3.969-15.053c-5.758-1.304-16.36-3.487-30.8-5.531-7.374 5.301-15.443 9.54-23.374 12.921 24.266 2.362 42.094 5.875 50.204 7.663zm6.88 23.53c.609-6.735.078-8.185-.606-8.738-.684-.573-2.996-1.883-5.247-3.105l-3.705 25.951c-.07.505-.353.962-.773 1.257l-5.303 3.708c-.42 2.124-.572 3.126-1.09 5.204 3.031.704 8 1.25 10.367.793 2.15-2.33 5.619-16.813 6.358-25.07zm15.994-64.04c.195 3.885.09 7.777-.344 11.643a73.949 73.949 0 0 1-2.159 11.474 60.042 60.042 0 0 1-1.872 5.597 51.06 51.06 0 0 1-1.186 2.761c-.215.455-.442.904-.698 1.367l-.378.683c-.139.247-.25.434-.464.765l-.392.61-.615.315a44.73 44.73 0 0 1-1.79.871l-1.73.78c-1.161.496-2.327.965-3.493 1.42a83.89 83.89 0 0 0-2.216.899l-1.926 7.316c-.048-.012-.628-.16-1.71-.42l-.104.765c2.125 1.11 6.301 3.363 7.724 4.537 2.864 2.367 3.065 6.116 2.43 13.122-.325 3.596-1.518 10.594-3.174 17.022-2.859 11.064-4.378 12.364-6.338 12.866a17.2 17.2 0 0 1-4.01.51c-3.022 0-7.138.084-9.906-.585-.71 2.517-2.74 9.083-6.757 17.283.201-.098.4-.18.58-.276 4.956-2.603 14.481-6.753 14.883-6.932l7.524-3.27-3.854 7.247c-.089.157-8.352 15.697-13.412 25.844-5.025 10.05-14.446 12.239-20.086 13.534-.85.202-1.655.389-2.311.567-4.047 1.14-12.24 3.092-19.465 4.83l-.263.057a85.425 85.425 0 0 1-14.607 7.215c-19.424 7.357-39.897 6.943-58.458.122-3.015.388-6.979.863-12.258 1.463a60.239 60.239 0 0 1-6.646.388c-17.686 0-27.06-8.981-33.9-17.775-7.324-9.416-16.283-23.394-16.663-23.98l-5.195-8.102 8.78 3.948c4.203 1.891 16.699 7.676 20.273 9.333.29-.081.574-.166.857-.248-5.943-8.476-10.816-18.14-14.26-28.845-2.927.882-7.435 1.566-10.942 1.566-1.281 0-2.429-.096-3.312-.304-1.96-.448-4.197-2.338-7.241-13.06-1.767-6.224-3.085-13.018-3.47-16.516-.76-6.828-.622-10.485 2.215-12.848 1.71-1.428 7.482-4.458 8.676-5.078l-.256-2.107c-18.333 10.773-29.321 20.293-29.543 20.488L0 179.069l9.34-14.729c7.392-11.673 15.93-21.11 23.787-28.379-.325-.13-.629-.261-.947-.392l-1.732-.78a47.25 47.25 0 0 1-1.787-.87l-.614-.316-.394-.61c-.221-.332-.317-.517-.462-.765l-.387-.683c-.241-.462-.477-.912-.69-1.366a41.04 41.04 0 0 1-1.187-2.762 59.69 59.69 0 0 1-1.872-5.597 72.993 72.993 0 0 1-2.16-11.473 72.885 72.885 0 0 1-.346-11.644c.104-1.94.291-3.879.559-5.806.139-.966.284-1.933.477-2.893.2-.979.395-1.89.691-2.961l.207-.752.538-.423c3.06-2.403 6.358-4.217 9.712-5.825a105.157 105.157 0 0 1 8.415-3.488c7.924-21.991 21.55-41.491 39.455-55.082C99.116 7.427 120.885 0 143.56 0c22.676 0 44.446 7.427 62.958 21.475 17.906 13.59 31.532 33.092 39.45 55.076 2.844 1.049 5.654 2.188 8.422 3.493 3.353 1.608 6.653 3.423 9.71 5.825l.539.423.208.752c.303 1.07.496 1.983.69 2.961.194.96.346 1.927.475 2.894.271 1.924.464 3.862.559 5.802zM53.998 74.28c-3.354 1.352-6.688 2.747-9.946 4.279-3.266 1.492-6.475 3.093-9.54 4.88-2.828 1.629-5.543 3.417-7.939 5.434-.102.607-.198 1.27-.28 1.898a68.22 68.22 0 0 0-.278 2.678 69.874 69.874 0 0 0-.24 5.412c-.035 3.618.213 7.235.669 10.816.496 3.59 1.152 7.159 2.125 10.603.484 1.727 1.023 3.43 1.658 5.072.31.83.656 1.637 1.016 2.424.178.392.365.78.55 1.152l.23.435c.268.138.545.276.806.4l1.608.765c.898.415 2.134 1.001 3.155 1.457l.165-.152-2.974-11.348c.627-.172 6.289-1.636 16.042-3.492a44.935 44.935 0 0 1-2.366-.505c-2.216-.55-4.412-1.228-6.53-2.084-1.05-.448-2.093-.932-3.08-1.492-.988-.567-1.961-1.207-2.713-2.063 10.713 3.499 32.85 1.911 52.53-.117 18.002-1.857 36.038-3.057 54.171-3.1 18.134.041 36.184 1.241 54.174 3.1 19.693 2.03 41.832 3.617 52.541.117-.752.856-1.724 1.496-2.712 2.063-.985.56-2.03 1.043-3.079 1.492-2.126.856-4.314 1.532-6.537 2.084-.325.075-.656.152-.988.221 10.693 1.982 16.919 3.596 17.581 3.776l-2.85 10.81c.573-.256 1.152-.503 1.717-.766l1.61-.765c.26-.125.538-.261.807-.4l.222-.435c.192-.372.378-.76.558-1.152.36-.788.704-1.594 1.023-2.424a55.628 55.628 0 0 0 1.648-5.072c.975-3.444 1.637-7.013 2.127-10.602.461-3.582.704-7.2.669-10.816a70.34 70.34 0 0 0-.235-5.412 68.764 68.764 0 0 0-.284-2.679c-.076-.628-.18-1.29-.284-1.897-2.396-2.018-5.108-3.804-7.938-5.435-3.066-1.787-6.272-3.388-9.546-4.88-3.25-1.532-6.59-2.927-9.946-4.279-1.679-.677-3.371-1.34-5.068-1.968-1.69-.654-3.403-1.274-5.114-1.897 3.595.593 7.159 1.413 10.684 2.319 2.299.594 4.592 1.264 6.855 1.974-16.147-42.21-54.76-69.696-96.913-69.696-42.163 0-80.768 27.486-96.912 69.696 2.27-.71 4.555-1.38 6.846-1.974 3.535-.904 7.097-1.726 10.693-2.319-1.72.621-3.423 1.241-5.122 1.897-1.69.627-3.38 1.29-5.066 1.967zm96.17 154.399l2.125 2.532c.048.06 4.77 5.68 10.542 11.402 3.838 3.804 8.476 5.73 13.79 5.73 1.815 0 3.722-.234 5.647-.698 1.787-.434 3.728-.897 5.716-1.373 7.179-1.716 15.31-3.665 19.25-4.77.78-.22 1.651-.42 2.567-.629 5.247-1.212 12.439-2.884 16.25-10.518 2.865-5.73 6.729-13.166 9.596-18.615-2.484 1.145-5.088 2.387-6.938 3.36-2.85 1.497-6.584 2.223-11.41 2.223-2.87 0-5.688-.242-8.807-.519-6.233-.573-16.781-1.815-16.89-1.83l-.807-.089-.638-.51c-.094-.07-9.337-7.434-16.808-13.308-.302-.248-.578-.478-.828-.684-.786-.671-.786-.671-1.256-.671-2.396 0-9.36 2.16-24.616 6.89l-.937.297-.919-.347c-.104-.035-10.113-3.747-22.107-3.747-.982 0-1.96.026-2.914.075-1.201.061-7.944 3.264-16.567 16.906l-.558.876-.988.318a1060 1060 0 0 1-30.723 9.34l-1.021.29-.967-.449c-.103-.041-6.261-2.899-12.121-5.592 3.196 4.722 7.283 10.611 10.878 15.23 6.282 8.089 14.199 15.565 29.379 15.565 1.904 0 3.927-.117 6.004-.353 15.441-1.745 19.417-2.45 21.557-2.823.724-.122 1.298-.228 2.03-.317.117-.015 12.761-1.65 16.309-9.609 3.659-8.178 4.397-10.126 4.425-10.2l1.291-3.445s.16-.892.423-1.17l.006.008.026.021c.406.292 1.009 1.203 1.009 1.203"/></svg>