<svg xmlns="http://www.w3.org/2000/svg" x="0" y="0" width="40" height="40" viewBox="0 0 72 72">
<path fill="#55acee" d="M68.812,15.141c-2.348,1.039-4.869,1.743-7.519,2.06c2.703-1.62,4.778-4.187,5.756-7.244c-2.529,1.5-5.33,2.592-8.313,3.176C56.349,10.591,52.948,9,49.182,9c-7.229,0-13.092,5.861-13.092,13.093c0,1.026,0.118,2.021,0.338,2.981c-10.885-0.548-20.528-5.757-26.987-13.679c-1.126,1.936-1.771,4.184-1.771,6.581c0,4.542,2.312,8.551,5.824,10.898c-2.146-0.069-4.165-0.657-5.93-1.638c-0.002,0.055-0.002,0.11-0.002,0.162c0,6.345,4.513,11.638,10.504,12.84c-1.101,0.298-2.256,0.457-3.449,0.457c-0.846,0-1.667-0.078-2.465-0.231c1.667,5.2,6.499,8.986,12.23,9.09c-4.482,3.512-10.129,5.606-16.26,5.606c-1.055,0-2.096-0.061-3.122-0.184c5.794,3.717,12.676,5.882,20.067,5.882c24.083,0,37.251-19.949,37.251-37.249c0-0.566-0.014-1.134-0.039-1.694C64.838,20.068,67.058,17.765,68.812,15.141z"/>
</svg>
