<svg data-name="Layer 1" xmlns="http://www.w3.org/2000/svg" width="100" height="100">
  <path d="M50 95.27A5.58 5.58 0 0 0 55.08 92l.13-.23 19.5-36.05a6.25 6.25 0 0 0-5.42-9.36c-2.77 0-4.65 1.35-5.92 4.26L50 75.52 36.66 50.65c-1.29-2.94-3.17-4.29-5.94-4.29a6.25 6.25 0 0 0-5.43 9.35l19.5 36.06.09.16A5.59 5.59 0 0 0 50 95.27m0-53.54a5 5 0 0 0 5-5v-1.17a4.74 4.74 0 0 1 4.74-4.71h25.52a12.12 12.12 0 0 0 12.13-12.13V9.38a4.66 4.66 0 0 0-8.73-2.28 4.63 4.63 0 0 0-.59 2.27v2.92A4.74 4.74 0 0 1 83.31 17h-23.1a10 10 0 0 0-9.86 8.47 14.72 14.72 0 0 0-.24 2.53h-.21a14.72 14.72 0 0 0-.24-2.46A10 10 0 0 0 39.79 17h-23.1a4.74 4.74 0 0 1-4.74-4.74V9.39a4.63 4.63 0 0 0-.59-2.27 4.66 4.66 0 0 0-8.73 2.27v9.34a12.12 12.12 0 0 0 12.11 12.11h25.51A4.74 4.74 0 0 1 45 35.56v1.19a5 5 0 0 0 5 5z" fill="#00b4f0"/>
</svg>
