<?xml version="1.0" encoding="utf-8"?>
<!-- Generator: Adobe Illustrator 15.0.2, SVG Export Plug-In . SVG Version: 6.00 Build 0)  -->
<!DOCTYPE svg PUBLIC "-//W3C//DTD SVG 1.1//EN" "http://www.w3.org/Graphics/SVG/1.1/DTD/svg11.dtd">
<svg version="1.1" id="Layer_1" xmlns="http://www.w3.org/2000/svg" xmlns:xlink="http://www.w3.org/1999/xlink" x="0px" y="0px"
	 width="120px" height="18px" viewBox="0 1.25 120 18" enable-background="new 0 1.25 120 18" xml:space="preserve">
<g id="Green">
	<linearGradient id="SVGID_1_" gradientUnits="userSpaceOnUse" x1="97" y1="19.25" x2="97" y2="1.25">
		<stop  offset="0" style="stop-color:#722F22"/>
		<stop  offset="0.1" style="stop-color:#9E4230"/>
		<stop  offset="0.96" style="stop-color:#E05D44"/>
		<stop  offset="1" style="stop-color:#FFAC9C"/>
	</linearGradient>
	<path fill="url(#SVGID_1_)" d="M74,19.25h43c1.657,0,3-1.343,3-3v-12c0-1.657-1.343-3-3-3H74V19.25z"/>
	
		<linearGradient id="SVGID_2_" gradientUnits="userSpaceOnUse" x1="873" y1="-2429.625" x2="873" y2="-2411.7461" gradientTransform="matrix(1 0 0 -1 -836 -2410.5)">
		<stop  offset="0" style="stop-color:#2E2E2E"/>
		<stop  offset="0.1" style="stop-color:#3F3F3F"/>
		<stop  offset="0.96" style="stop-color:#5A5A5A"/>
		<stop  offset="1" style="stop-color:#AAAAAA"/>
	</linearGradient>
	<path fill="url(#SVGID_2_)" d="M74,19.25H3c-1.657,0-3-1.343-3-3v-12c0-1.657,1.343-3,3-3h71V19.25z"/>
	<g>
		<g opacity="0.3">
			<text transform="matrix(1 0 0 1 78 13.8193)" font-family="'OpenSans'" font-size="10">update!</text>
		</g>
		<g>
			<text transform="matrix(1 0 0 1 78 12.8193)" fill="#FFFFFF" font-family="'OpenSans'" font-size="10">update!</text>
		</g>
	</g>
	<g>
		<g opacity="0.3">
			<text transform="matrix(1 0 0 1 5 13.8193)" font-family="'OpenSans'" font-size="10">dependencies</text>
		</g>
		<g>
			<text transform="matrix(1 0 0 1 5 12.8193)" fill="#FFFFFF" font-family="'OpenSans'" font-size="10">dependencies</text>
		</g>
	</g>
</g>
</svg>
